DINishExpanded-Italic.ufo
<glyph name="exclam" format="2">
  <advance width="247"/>
  <unicode hex="0021"/>
  <outline>
    <contour>
      <point x="79" y="211" type="line"/>
      <point x="147" y="211" type="line"/>
      <point x="270" y="707" type="line"/>
      <point x="167" y="707" type="line"/>
    </contour>
    <contour>
      <point x="16" y="0" type="line"/>
      <point x="120" y="0" type="line"/>
      <point x="142" y="106" type="line"/>
      <point x="39" y="106" type="line"/>
    </contour>
  </outline>
</glyph>
<glyph name="numbersign" format="2">
  <advance width="593"/>
  <unicode hex="0023"/>
  <outline>
    <contour>
      <point x="51" y="0" type="line"/>
      <point x="126" y="0" type="line"/>
      <point x="202" y="221" type="line"/>
      <point x="337" y="221" type="line"/>
      <point x="260" y="0" type="line"/>
      <point x="335" y="0" type="line"/>
      <point x="411" y="221" type="line"/>
      <point x="535" y="221" type="line"/>
      <point x="549" y="290" type="line"/>
      <point x="434" y="290" type="line"/>
      <point x="483" y="433" type="line"/>
      <point x="606" y="433" type="line"/>
      <point x="622" y="501" type="line"/>
      <point x="507" y="501" type="line"/>
      <point x="578" y="707" type="line"/>
      <point x="504" y="707" type="line"/>
      <point x="433" y="501" type="line"/>
      <point x="298" y="501" type="line"/>
      <point x="369" y="707" type="line"/>
      <point x="294" y="707" type="line"/>
      <point x="223" y="501" type="line"/>
      <point x="101" y="501" type="line"/>
      <point x="87" y="433" type="line"/>
      <point x="200" y="433" type="line"/>
      <point x="151" y="290" type="line"/>
      <point x="30" y="290" type="line"/>
      <point x="14" y="221" type="line"/>
      <point x="127" y="221" type="line"/>
    </contour>
    <contour>
      <point x="225" y="290" type="line"/>
      <point x="274" y="433" type="line"/>
      <point x="410" y="433" type="line"/>
      <point x="360" y="290" type="line"/>
    </contour>
  </outline>
</glyph>
<glyph name="dollar" format="2">
  <advance width="528"/>
  <unicode hex="0024"/>
  <outline>
    <contour>
      <point x="157" y="-60" type="line"/>
      <point x="226" y="-60" type="line"/>
      <point x="246" y="30" type="line"/>
      <point x="303" y="34"/>
      <point x="350" y="50"/>
      <point x="388" y="79" type="curve" smooth="yes"/>
      <point x="426" y="108"/>
      <point x="453" y="147"/>
      <point x="469" y="196" type="curve" smooth="yes"/>
      <point x="476" y="214"/>
      <point x="479" y="234"/>
      <point x="479" y="256" type="curve" smooth="yes"/>
      <point x="479" y="333"/>
      <point x="432" y="379"/>
      <point x="338" y="392" type="curve" smooth="yes"/>
      <point x="323" y="394" type="line"/>
      <point x="367" y="600" type="line"/>
      <point x="391" y="596"/>
      <point x="409" y="588"/>
      <point x="421" y="575" type="curve" smooth="yes"/>
      <point x="433" y="562"/>
      <point x="439" y="543"/>
      <point x="439" y="519" type="curve" smooth="yes"/>
      <point x="439" y="509"/>
      <point x="439" y="502"/>
      <point x="438" y="497" type="curve"/>
      <point x="523" y="497" type="line"/>
      <point x="524" y="504"/>
      <point x="525" y="516"/>
      <point x="525" y="531" type="curve" smooth="yes"/>
      <point x="525" y="572"/>
      <point x="513" y="604"/>
      <point x="488" y="629" type="curve" smooth="yes"/>
      <point x="463" y="654"/>
      <point x="428" y="669"/>
      <point x="383" y="675" type="curve"/>
      <point x="400" y="759" type="line"/>
      <point x="331" y="759" type="line"/>
      <point x="313" y="677" type="line"/>
      <point x="258" y="674"/>
      <point x="212" y="658"/>
      <point x="174" y="629" type="curve" smooth="yes"/>
      <point x="136" y="600"/>
      <point x="110" y="561"/>
      <point x="97" y="512" type="curve" smooth="yes"/>
      <point x="92" y="495"/>
      <point x="90" y="478"/>
      <point x="90" y="461" type="curve" smooth="yes"/>
      <point x="90" y="422"/>
      <point x="102" y="391"/>
      <point x="127" y="369" type="curve" smooth="yes"/>
      <point x="151" y="346"/>
      <point x="186" y="331"/>
      <point x="233" y="324" type="curve" smooth="yes"/>
      <point x="239" y="323" type="line"/>
      <point x="193" y="108" type="line"/>
      <point x="134" y="116"/>
      <point x="105" y="146"/>
      <point x="105" y="197" type="curve" smooth="yes"/>
      <point x="106" y="201"/>
      <point x="107" y="208"/>
      <point x="108" y="219" type="curve"/>
      <point x="23" y="219" type="line"/>
      <point x="20" y="204"/>
      <point x="19" y="191"/>
      <point x="19" y="179" type="curve" smooth="yes"/>
      <point x="19" y="137"/>
      <point x="33" y="103"/>
      <point x="60" y="78" type="curve" smooth="yes"/>
      <point x="87" y="52"/>
      <point x="126" y="36"/>
      <point x="176" y="31" type="curve"/>
    </contour>
    <contour>
      <point x="262" y="108" type="curve"/>
      <point x="305" y="313" type="line"/>
      <point x="309" y="312" type="line" smooth="yes"/>
      <point x="337" y="307"/>
      <point x="358" y="300"/>
      <point x="371" y="289" type="curve" smooth="yes"/>
      <point x="384" y="278"/>
      <point x="391" y="261"/>
      <point x="391" y="239" type="curve" smooth="yes"/>
      <point x="391" y="227"/>
      <point x="390" y="216"/>
      <point x="387" y="205" type="curve" smooth="yes"/>
      <point x="370" y="147"/>
      <point x="328" y="115"/>
    </contour>
    <contour>
      <point x="256" y="404" type="line"/>
      <point x="229" y="410"/>
      <point x="209" y="419"/>
      <point x="196" y="430" type="curve" smooth="yes"/>
      <point x="183" y="441"/>
      <point x="177" y="458"/>
      <point x="177" y="479" type="curve" smooth="yes"/>
      <point x="177" y="490"/>
      <point x="179" y="500"/>
      <point x="183" y="511" type="curve" smooth="yes"/>
      <point x="190" y="536"/>
      <point x="203" y="556"/>
      <point x="222" y="572" type="curve" smooth="yes"/>
      <point x="241" y="587"/>
      <point x="266" y="597"/>
      <point x="297" y="601" type="curve"/>
    </contour>
  </outline>
</glyph>
<glyph name="percent" format="2">
  <advance width="1020"/>
  <unicode hex="0025"/>
  <outline>
    <contour>
      <point x="83" y="382" type="curve" smooth="yes"/>
      <point x="83" y="401"/>
      <point x="85" y="420"/>
      <point x="90" y="441" type="curve" smooth="yes"/>
      <point x="115" y="554" type="line" smooth="yes"/>
      <point x="126" y="607"/>
      <point x="145" y="647"/>
      <point x="173" y="674" type="curve" smooth="yes"/>
      <point x="200" y="701"/>
      <point x="238" y="714"/>
      <point x="285" y="714" type="curve" smooth="yes"/>
      <point x="325" y="714"/>
      <point x="356" y="705"/>
      <point x="378" y="686" type="curve" smooth="yes"/>
      <point x="400" y="667"/>
      <point x="411" y="641"/>
      <point x="411" y="607" type="curve" smooth="yes"/>
      <point x="411" y="591"/>
      <point x="408" y="572"/>
      <point x="403" y="551" type="curve" smooth="yes"/>
      <point x="380" y="438" type="line" smooth="yes"/>
      <point x="369" y="382"/>
      <point x="349" y="340"/>
      <point x="322" y="313" type="curve" smooth="yes"/>
      <point x="294" y="286"/>
      <point x="256" y="272"/>
      <point x="208" y="272" type="curve" smooth="yes"/>
      <point x="168" y="272"/>
      <point x="137" y="282"/>
      <point x="116" y="301" type="curve" smooth="yes"/>
      <point x="94" y="320"/>
      <point x="83" y="347"/>
    </contour>
    <contour>
      <point x="649" y="103" type="curve" smooth="yes"/>
      <point x="649" y="122"/>
      <point x="651" y="142"/>
      <point x="656" y="163" type="curve" smooth="yes"/>
      <point x="680" y="275" type="line" smooth="yes"/>
      <point x="691" y="328"/>
      <point x="711" y="368"/>
      <point x="738" y="395" type="curve" smooth="yes"/>
      <point x="765" y="422"/>
      <point x="803" y="435"/>
      <point x="851" y="435" type="curve" smooth="yes"/>
      <point x="891" y="435"/>
      <point x="922" y="426"/>
      <point x="944" y="408" type="curve" smooth="yes"/>
      <point x="965" y="389"/>
      <point x="976" y="363"/>
      <point x="976" y="329" type="curve" smooth="yes"/>
      <point x="976" y="316"/>
      <point x="974" y="297"/>
      <point x="970" y="272" type="curve" smooth="yes"/>
      <point x="946" y="160" type="line" smooth="yes"/>
      <point x="934" y="104"/>
      <point x="914" y="62"/>
      <point x="887" y="35" type="curve" smooth="yes"/>
      <point x="859" y="8"/>
      <point x="821" y="-6"/>
      <point x="774" y="-6" type="curve" smooth="yes"/>
      <point x="734" y="-6"/>
      <point x="703" y="3"/>
      <point x="682" y="22" type="curve" smooth="yes"/>
      <point x="660" y="41"/>
      <point x="649" y="68"/>
    </contour>
    <contour>
      <point x="755" y="709" type="line"/>
      <point x="833" y="709" type="line"/>
      <point x="305" y="0" type="line"/>
      <point x="228" y="0" type="line"/>
    </contour>
    <contour>
      <point x="865" y="163" type="curve" smooth="yes"/>
      <point x="887" y="264" type="line" smooth="yes"/>
      <point x="892" y="287"/>
      <point x="894" y="303"/>
      <point x="894" y="313" type="curve" smooth="yes"/>
      <point x="894" y="348"/>
      <point x="876" y="365"/>
      <point x="840" y="366" type="curve" smooth="yes"/>
      <point x="817" y="366"/>
      <point x="800" y="359"/>
      <point x="789" y="344" type="curve" smooth="yes"/>
      <point x="777" y="329"/>
      <point x="767" y="303"/>
      <point x="759" y="267" type="curve" smooth="yes"/>
      <point x="737" y="166" type="line" smooth="yes"/>
      <point x="733" y="147"/>
      <point x="731" y="130"/>
      <point x="731" y="117" type="curve" smooth="yes"/>
      <point x="731" y="81"/>
      <point x="749" y="63"/>
      <point x="784" y="62" type="curve" smooth="yes"/>
      <point x="807" y="62"/>
      <point x="825" y="70"/>
      <point x="837" y="86" type="curve" smooth="yes"/>
      <point x="848" y="101"/>
      <point x="858" y="127"/>
    </contour>
    <contour>
      <point x="300" y="441" type="curve" smooth="yes"/>
      <point x="322" y="543" type="line" smooth="yes"/>
      <point x="326" y="563"/>
      <point x="328" y="579"/>
      <point x="328" y="592" type="curve" smooth="yes"/>
      <point x="328" y="627"/>
      <point x="310" y="644"/>
      <point x="274" y="644" type="curve" smooth="yes"/>
      <point x="251" y="644"/>
      <point x="234" y="636"/>
      <point x="223" y="621" type="curve" smooth="yes"/>
      <point x="211" y="606"/>
      <point x="201" y="581"/>
      <point x="194" y="546" type="curve" smooth="yes"/>
      <point x="172" y="445" type="line" smooth="yes"/>
      <point x="167" y="421"/>
      <point x="165" y="404"/>
      <point x="165" y="395" type="curve" smooth="yes"/>
      <point x="165" y="360"/>
      <point x="183" y="342"/>
      <point x="219" y="342" type="curve" smooth="yes"/>
      <point x="242" y="342"/>
      <point x="260" y="350"/>
      <point x="271" y="365" type="curve" smooth="yes"/>
      <point x="282" y="380"/>
      <point x="292" y="405"/>
    </contour>
  </outline>
</glyph>
<glyph name="ampersand" format="2">
  <advance width="677"/>
  <unicode hex="0026"/>
  <outline>
    <contour>
      <point x="560" y="80" type="curve" smooth="yes"/>
      <point x="584" y="80" type="line"/>
      <point x="567" y="0" type="line"/>
      <point x="529" y="0" type="line" smooth="yes"/>
      <point x="505" y="0"/>
      <point x="486" y="4"/>
      <point x="473" y="12" type="curve" smooth="yes"/>
      <point x="460" y="20"/>
      <point x="446" y="34"/>
      <point x="433" y="54" type="curve" smooth="yes"/>
      <point x="419" y="79" type="line"/>
      <point x="381" y="47"/>
      <point x="345" y="24"/>
      <point x="312" y="10" type="curve" smooth="yes"/>
      <point x="279" y="-5"/>
      <point x="244" y="-12"/>
      <point x="208" y="-12" type="curve" smooth="yes"/>
      <point x="153" y="-12"/>
      <point x="111" y="3"/>
      <point x="81" y="32" type="curve" smooth="yes"/>
      <point x="51" y="61"/>
      <point x="36" y="99"/>
      <point x="36" y="146" type="curve" smooth="yes"/>
      <point x="36" y="195"/>
      <point x="52" y="239"/>
      <point x="84" y="278" type="curve" smooth="yes"/>
      <point x="115" y="317"/>
      <point x="164" y="355"/>
      <point x="230" y="394" type="curve"/>
      <point x="212" y="425"/>
      <point x="199" y="453"/>
      <point x="191" y="476" type="curve" smooth="yes"/>
      <point x="183" y="499"/>
      <point x="179" y="521"/>
      <point x="179" y="542" type="curve" smooth="yes"/>
      <point x="179" y="575"/>
      <point x="187" y="605"/>
      <point x="202" y="632" type="curve" smooth="yes"/>
      <point x="217" y="659"/>
      <point x="239" y="680"/>
      <point x="267" y="696" type="curve" smooth="yes"/>
      <point x="295" y="711"/>
      <point x="327" y="719"/>
      <point x="364" y="719" type="curve" smooth="yes"/>
      <point x="411" y="719"/>
      <point x="448" y="707"/>
      <point x="477" y="683" type="curve" smooth="yes"/>
      <point x="506" y="659"/>
      <point x="520" y="626"/>
      <point x="520" y="584" type="curve" smooth="yes"/>
      <point x="520" y="543"/>
      <point x="506" y="506"/>
      <point x="478" y="474" type="curve" smooth="yes"/>
      <point x="449" y="442"/>
      <point x="404" y="408"/>
      <point x="342" y="372" type="curve"/>
      <point x="443" y="204" type="line"/>
      <point x="562" y="313" type="line"/>
      <point x="610" y="259" type="line"/>
      <point x="483" y="138" type="line"/>
      <point x="499" y="113" type="line" smooth="yes"/>
      <point x="506" y="101"/>
      <point x="515" y="93"/>
      <point x="525" y="88" type="curve" smooth="yes"/>
      <point x="535" y="83"/>
      <point x="547" y="80"/>
    </contour>
    <contour>
      <point x="380" y="143" type="curve"/>
      <point x="267" y="332" type="line"/>
      <point x="217" y="301"/>
      <point x="181" y="273"/>
      <point x="158" y="246" type="curve" smooth="yes"/>
      <point x="135" y="219"/>
      <point x="123" y="189"/>
      <point x="123" y="156" type="curve" smooth="yes"/>
      <point x="123" y="129"/>
      <point x="132" y="107"/>
      <point x="149" y="91" type="curve" smooth="yes"/>
      <point x="166" y="75"/>
      <point x="190" y="67"/>
      <point x="221" y="67" type="curve" smooth="yes"/>
      <point x="247" y="67"/>
      <point x="272" y="73"/>
      <point x="297" y="85" type="curve" smooth="yes"/>
      <point x="321" y="96"/>
      <point x="349" y="116"/>
    </contour>
    <contour>
      <point x="266" y="548" type="curve" smooth="yes"/>
      <point x="266" y="532"/>
      <point x="269" y="516"/>
      <point x="275" y="499" type="curve" smooth="yes"/>
      <point x="281" y="482"/>
      <point x="291" y="460"/>
      <point x="305" y="433" type="curve"/>
      <point x="308" y="435" type="line" smooth="yes"/>
      <point x="355" y="462"/>
      <point x="388" y="486"/>
      <point x="407" y="507" type="curve" smooth="yes"/>
      <point x="426" y="528"/>
      <point x="435" y="551"/>
      <point x="435" y="578" type="curve" smooth="yes"/>
      <point x="435" y="599"/>
      <point x="428" y="616"/>
      <point x="414" y="628" type="curve" smooth="yes"/>
      <point x="400" y="640"/>
      <point x="382" y="646"/>
      <point x="359" y="646" type="curve" smooth="yes"/>
      <point x="331" y="646"/>
      <point x="309" y="637"/>
      <point x="292" y="619" type="curve" smooth="yes"/>
      <point x="275" y="601"/>
      <point x="266" y="577"/>
    </contour>
  </outline>
</glyph>
<glyph name="parenleft" format="2">
  <advance width="318"/>
  <unicode hex="0028"/>
  <outline>
    <contour>
      <point x="123" y="-86" type="curve"/>
      <point x="189" y="-86" type="line"/>
      <point x="157" y="-7"/>
      <point x="141" y="77"/>
      <point x="141" y="168" type="curve" smooth="yes"/>
      <point x="142" y="225"/>
      <point x="148" y="283"/>
      <point x="160" y="340" type="curve" smooth="yes"/>
      <point x="175" y="415"/>
      <point x="201" y="489"/>
      <point x="237" y="561" type="curve" smooth="yes"/>
      <point x="272" y="632"/>
      <point x="316" y="698"/>
      <point x="369" y="758" type="curve"/>
      <point x="301" y="758" type="line"/>
      <point x="242" y="697"/>
      <point x="194" y="632"/>
      <point x="155" y="561" type="curve" smooth="yes"/>
      <point x="116" y="490"/>
      <point x="89" y="417"/>
      <point x="72" y="340" type="curve" smooth="yes"/>
      <point x="61" y="293"/>
      <point x="56" y="244"/>
      <point x="56" y="193" type="curve" smooth="yes"/>
      <point x="56" y="93"/>
      <point x="78" y="0"/>
    </contour>
  </outline>
</glyph>
<glyph name="parenright" format="2">
  <advance width="318"/>
  <unicode hex="0029"/>
  <outline>
    <contour>
      <point x="-18" y="-86" type="curve"/>
      <point x="49" y="-86" type="line"/>
      <point x="108" y="-25"/>
      <point x="158" y="41"/>
      <point x="197" y="112" type="curve" smooth="yes"/>
      <point x="236" y="183"/>
      <point x="263" y="256"/>
      <point x="279" y="332" type="curve" smooth="yes"/>
      <point x="289" y="381"/>
      <point x="294" y="429"/>
      <point x="294" y="478" type="curve" smooth="yes"/>
      <point x="294" y="579"/>
      <point x="272" y="672"/>
      <point x="227" y="758" type="curve"/>
      <point x="161" y="758" type="line"/>
      <point x="193" y="679"/>
      <point x="209" y="594"/>
      <point x="209" y="503" type="curve" smooth="yes"/>
      <point x="208" y="446"/>
      <point x="202" y="389"/>
      <point x="190" y="332" type="curve" smooth="yes"/>
      <point x="175" y="257"/>
      <point x="149" y="183"/>
      <point x="114" y="112" type="curve" smooth="yes"/>
      <point x="78" y="40"/>
      <point x="34" y="-26"/>
    </contour>
  </outline>
</glyph>
<glyph name="comma" format="2">
  <advance width="183"/>
  <unicode hex="002C"/>
  <outline>
    <contour>
      <point x="-38" y="-148" type="line"/>
      <point x="62" y="-73" type="line"/>
      <point x="101" y="109" type="line"/>
      <point x="17" y="109" type="line"/>
    </contour>
  </outline>
</glyph>
<glyph name="hyphen" format="2">
  <advance width="427"/>
  <unicode hex="002D"/>
  <outline>
    <contour>
      <point x="67" y="313" type="line"/>
      <point x="383" y="313" type="line"/>
      <point x="400" y="396" type="line"/>
      <point x="84" y="396" type="line"/>
    </contour>
  </outline>
</glyph>
<glyph name="zero" format="2">
  <advance width="559"/>
  <unicode hex="0030"/>
  <outline>
    <contour>
      <point x="50" y="163" type="curve" smooth="yes"/>
      <point x="50" y="191"/>
      <point x="54" y="222"/>
      <point x="61" y="256" type="curve" smooth="yes"/>
      <point x="109" y="481" type="line" smooth="yes"/>
      <point x="126" y="559"/>
      <point x="154" y="618"/>
      <point x="194" y="658" type="curve" smooth="yes"/>
      <point x="234" y="697"/>
      <point x="288" y="717"/>
      <point x="356" y="717" type="curve" smooth="yes"/>
      <point x="415" y="717"/>
      <point x="462" y="702"/>
      <point x="497" y="673" type="curve" smooth="yes"/>
      <point x="532" y="644"/>
      <point x="549" y="601"/>
      <point x="549" y="545" type="curve" smooth="yes"/>
      <point x="549" y="518"/>
      <point x="545" y="487"/>
      <point x="538" y="453" type="curve" smooth="yes"/>
      <point x="490" y="228" type="line" smooth="yes"/>
      <point x="473" y="149"/>
      <point x="445" y="89"/>
      <point x="405" y="50" type="curve" smooth="yes"/>
      <point x="364" y="10"/>
      <point x="310" y="-10"/>
      <point x="242" y="-10" type="curve" smooth="yes"/>
      <point x="183" y="-10"/>
      <point x="136" y="5"/>
      <point x="102" y="34" type="curve" smooth="yes"/>
      <point x="67" y="63"/>
      <point x="50" y="106"/>
    </contour>
    <contour>
      <point x="401" y="245" type="curve" smooth="yes"/>
      <point x="442" y="442" type="line" smooth="yes"/>
      <point x="450" y="477"/>
      <point x="454" y="507"/>
      <point x="455" y="532" type="curve" smooth="yes"/>
      <point x="455" y="599"/>
      <point x="420" y="633"/>
      <point x="350" y="634" type="curve" smooth="yes"/>
      <point x="307" y="634"/>
      <point x="274" y="621"/>
      <point x="251" y="594" type="curve" smooth="yes"/>
      <point x="228" y="567"/>
      <point x="210" y="522"/>
      <point x="197" y="460" type="curve" smooth="yes"/>
      <point x="155" y="264" type="line" smooth="yes"/>
      <point x="148" y="229"/>
      <point x="144" y="199"/>
      <point x="143" y="176" type="curve" smooth="yes"/>
      <point x="143" y="107"/>
      <point x="178" y="73"/>
      <point x="248" y="73" type="curve" smooth="yes"/>
      <point x="291" y="73"/>
      <point x="324" y="86"/>
      <point x="347" y="113" type="curve" smooth="yes"/>
      <point x="370" y="140"/>
      <point x="388" y="184"/>
    </contour>
  </outline>
</glyph>
<glyph name="three" format="2">
  <advance width="559"/>
  <unicode hex="0033"/>
  <outline>
    <contour>
      <point x="226" y="-10" type="curve" smooth="yes"/>
      <point x="294" y="-10"/>
      <point x="350" y="7"/>
      <point x="395" y="42" type="curve" smooth="yes"/>
      <point x="440" y="76"/>
      <point x="468" y="123"/>
      <point x="480" y="183" type="curve" smooth="yes"/>
      <point x="485" y="208"/>
      <point x="488" y="231"/>
      <point x="488" y="252" type="curve" smooth="yes"/>
      <point x="488" y="281"/>
      <point x="481" y="306"/>
      <point x="468" y="328" type="curve" smooth="yes"/>
      <point x="454" y="349"/>
      <point x="434" y="365"/>
      <point x="407" y="374" type="curve"/>
      <point x="441" y="384"/>
      <point x="470" y="401"/>
      <point x="493" y="426" type="curve" smooth="yes"/>
      <point x="516" y="451"/>
      <point x="531" y="481"/>
      <point x="539" y="516" type="curve" smooth="yes"/>
      <point x="544" y="540"/>
      <point x="547" y="558"/>
      <point x="547" y="571" type="curve" smooth="yes"/>
      <point x="547" y="616"/>
      <point x="530" y="652"/>
      <point x="497" y="678" type="curve" smooth="yes"/>
      <point x="463" y="704"/>
      <point x="417" y="717"/>
      <point x="358" y="717" type="curve" smooth="yes"/>
      <point x="291" y="717"/>
      <point x="238" y="701"/>
      <point x="197" y="668" type="curve" smooth="yes"/>
      <point x="156" y="635"/>
      <point x="130" y="586"/>
      <point x="120" y="523" type="curve"/>
      <point x="208" y="523" type="line"/>
      <point x="215" y="562"/>
      <point x="230" y="590"/>
      <point x="252" y="609" type="curve" smooth="yes"/>
      <point x="274" y="627"/>
      <point x="305" y="636"/>
      <point x="345" y="636" type="curve" smooth="yes"/>
      <point x="379" y="636"/>
      <point x="405" y="629"/>
      <point x="424" y="615" type="curve" smooth="yes"/>
      <point x="442" y="600"/>
      <point x="451" y="580"/>
      <point x="451" y="553" type="curve" smooth="yes"/>
      <point x="450" y="544"/>
      <point x="448" y="530"/>
      <point x="445" y="513" type="curve" smooth="yes"/>
      <point x="438" y="479"/>
      <point x="422" y="453"/>
      <point x="397" y="435" type="curve" smooth="yes"/>
      <point x="372" y="416"/>
      <point x="338" y="407"/>
      <point x="296" y="407" type="curve" smooth="yes"/>
      <point x="256" y="407" type="line"/>
      <point x="239" y="325" type="line"/>
      <point x="284" y="325" type="line" smooth="yes"/>
      <point x="358" y="325"/>
      <point x="395" y="295"/>
      <point x="395" y="236" type="curve" smooth="yes"/>
      <point x="395" y="225"/>
      <point x="393" y="207"/>
      <point x="388" y="184" type="curve" smooth="yes"/>
      <point x="381" y="148"/>
      <point x="364" y="120"/>
      <point x="338" y="101" type="curve" smooth="yes"/>
      <point x="311" y="81"/>
      <point x="277" y="71"/>
      <point x="236" y="71" type="curve" smooth="yes"/>
      <point x="163" y="71"/>
      <point x="126" y="99"/>
      <point x="126" y="155" type="curve" smooth="yes"/>
      <point x="126" y="163"/>
      <point x="127" y="171"/>
      <point x="129" y="180" type="curve"/>
      <point x="40" y="180" type="line"/>
      <point x="37" y="166"/>
      <point x="35" y="150"/>
      <point x="35" y="132" type="curve" smooth="yes"/>
      <point x="35" y="87"/>
      <point x="52" y="53"/>
      <point x="86" y="28" type="curve" smooth="yes"/>
      <point x="119" y="3"/>
      <point x="166" y="-10"/>
    </contour>
  </outline>
</glyph>
<glyph name="five" format="2">
  <advance width="546"/>
  <unicode hex="0035"/>
  <outline>
    <contour>
      <point x="224" y="-10" type="curve" smooth="yes"/>
      <point x="291" y="-10"/>
      <point x="345" y="8"/>
      <point x="388" y="43" type="curve" smooth="yes"/>
      <point x="430" y="78"/>
      <point x="458" y="129"/>
      <point x="471" y="196" type="curve" smooth="yes"/>
      <point x="480" y="240" type="line" smooth="yes"/>
      <point x="485" y="261"/>
      <point x="487" y="281"/>
      <point x="487" y="302" type="curve" smooth="yes"/>
      <point x="487" y="353"/>
      <point x="473" y="393"/>
      <point x="444" y="421" type="curve" smooth="yes"/>
      <point x="415" y="449"/>
      <point x="374" y="463"/>
      <point x="321" y="463" type="curve" smooth="yes"/>
      <point x="293" y="463"/>
      <point x="267" y="459"/>
      <point x="244" y="450" type="curve" smooth="yes"/>
      <point x="221" y="441"/>
      <point x="202" y="430"/>
      <point x="187" y="415" type="curve"/>
      <point x="232" y="624" type="line"/>
      <point x="536" y="624" type="line"/>
      <point x="553" y="707" type="line"/>
      <point x="167" y="707" type="line"/>
      <point x="84" y="314" type="line"/>
      <point x="169" y="314" type="line"/>
      <point x="181" y="336"/>
      <point x="198" y="353"/>
      <point x="219" y="366" type="curve" smooth="yes"/>
      <point x="240" y="378"/>
      <point x="265" y="384"/>
      <point x="292" y="384" type="curve" smooth="yes"/>
      <point x="325" y="384"/>
      <point x="350" y="376"/>
      <point x="367" y="360" type="curve" smooth="yes"/>
      <point x="384" y="344"/>
      <point x="392" y="321"/>
      <point x="392" y="290" type="curve" smooth="yes"/>
      <point x="392" y="271"/>
      <point x="390" y="255"/>
      <point x="387" y="240" type="curve" smooth="yes"/>
      <point x="379" y="201" type="line" smooth="yes"/>
      <point x="362" y="114"/>
      <point x="313" y="71"/>
      <point x="233" y="71" type="curve" smooth="yes"/>
      <point x="200" y="71"/>
      <point x="175" y="78"/>
      <point x="158" y="92" type="curve" smooth="yes"/>
      <point x="140" y="106"/>
      <point x="131" y="127"/>
      <point x="131" y="154" type="curve" smooth="yes"/>
      <point x="132" y="172" type="line"/>
      <point x="43" y="172" type="line"/>
      <point x="40" y="159"/>
      <point x="39" y="145"/>
      <point x="39" y="130" type="curve" smooth="yes"/>
      <point x="39" y="85"/>
      <point x="55" y="51"/>
      <point x="88" y="27" type="curve" smooth="yes"/>
      <point x="120" y="2"/>
      <point x="165" y="-10"/>
    </contour>
  </outline>
</glyph>
<glyph name="six" format="2">
  <advance width="562"/>
  <unicode hex="0036"/>
  <outline>
    <contour>
      <point x="234" y="-10" type="curve" smooth="yes"/>
      <point x="301" y="-10"/>
      <point x="357" y="8"/>
      <point x="404" y="44" type="curve" smooth="yes"/>
      <point x="450" y="80"/>
      <point x="480" y="130"/>
      <point x="493" y="195" type="curve" smooth="yes"/>
      <point x="499" y="227"/>
      <point x="502" y="250"/>
      <point x="502" y="263" type="curve" smooth="yes"/>
      <point x="502" y="313"/>
      <point x="487" y="352"/>
      <point x="457" y="381" type="curve" smooth="yes"/>
      <point x="427" y="410"/>
      <point x="386" y="424"/>
      <point x="335" y="424" type="curve" smooth="yes"/>
      <point x="318" y="424"/>
      <point x="302" y="422"/>
      <point x="287" y="418" type="curve" smooth="yes"/>
      <point x="271" y="414"/>
      <point x="258" y="409"/>
      <point x="247" y="403" type="curve"/>
      <point x="486" y="707" type="line"/>
      <point x="382" y="707" type="line"/>
      <point x="137" y="397" type="line" smooth="yes"/>
      <point x="89" y="339"/>
      <point x="59" y="282"/>
      <point x="48" y="225" type="curve" smooth="yes"/>
      <point x="42" y="199"/>
      <point x="39" y="176"/>
      <point x="39" y="156" type="curve" smooth="yes"/>
      <point x="39" y="104"/>
      <point x="56" y="63"/>
      <point x="90" y="34" type="curve" smooth="yes"/>
      <point x="124" y="5"/>
      <point x="172" y="-10"/>
    </contour>
    <contour>
      <point x="164" y="97" type="curve" smooth="yes"/>
      <point x="143" y="114"/>
      <point x="133" y="138"/>
      <point x="133" y="169" type="curve" smooth="yes"/>
      <point x="133" y="180"/>
      <point x="135" y="197"/>
      <point x="140" y="220" type="curve" smooth="yes"/>
      <point x="149" y="259"/>
      <point x="167" y="289"/>
      <point x="194" y="311" type="curve" smooth="yes"/>
      <point x="221" y="332"/>
      <point x="254" y="343"/>
      <point x="293" y="343" type="curve" smooth="yes"/>
      <point x="328" y="343"/>
      <point x="356" y="334"/>
      <point x="377" y="317" type="curve" smooth="yes"/>
      <point x="398" y="300"/>
      <point x="408" y="276"/>
      <point x="408" y="246" type="curve" smooth="yes"/>
      <point x="408" y="238"/>
      <point x="407" y="229"/>
      <point x="405" y="219" type="curve" smooth="yes"/>
      <point x="402" y="208"/>
      <point x="400" y="200"/>
      <point x="399" y="194" type="curve" smooth="yes"/>
      <point x="390" y="155"/>
      <point x="373" y="124"/>
      <point x="346" y="103" type="curve" smooth="yes"/>
      <point x="319" y="82"/>
      <point x="286" y="71"/>
      <point x="247" y="71" type="curve" smooth="yes"/>
      <point x="212" y="71"/>
      <point x="184" y="80"/>
    </contour>
  </outline>
</glyph>
<glyph name="nine" format="2">
  <advance width="562"/>
  <unicode hex="0039"/>
  <outline>
    <contour>
      <point x="115" y="0" type="line"/>
      <point x="219" y="0" type="line"/>
      <point x="464" y="309" type="line" smooth="yes"/>
      <point x="489" y="339"/>
      <point x="508" y="368"/>
      <point x="523" y="396" type="curve" smooth="yes"/>
      <point x="538" y="423"/>
      <point x="548" y="451"/>
      <point x="553" y="480" type="curve" smooth="yes"/>
      <point x="556" y="496"/>
      <point x="559" y="510"/>
      <point x="561" y="521" type="curve" smooth="yes"/>
      <point x="562" y="532"/>
      <point x="563" y="542"/>
      <point x="563" y="550" type="curve" smooth="yes"/>
      <point x="563" y="602"/>
      <point x="546" y="643"/>
      <point x="511" y="673" type="curve" smooth="yes"/>
      <point x="476" y="702"/>
      <point x="428" y="717"/>
      <point x="366" y="717" type="curve" smooth="yes"/>
      <point x="299" y="717"/>
      <point x="243" y="699"/>
      <point x="197" y="664" type="curve" smooth="yes"/>
      <point x="151" y="628"/>
      <point x="122" y="578"/>
      <point x="109" y="513" type="curve" smooth="yes"/>
      <point x="102" y="483"/>
      <point x="99" y="460"/>
      <point x="99" y="444" type="curve" smooth="yes"/>
      <point x="99" y="395"/>
      <point x="114" y="356"/>
      <point x="143" y="327" type="curve" smooth="yes"/>
      <point x="172" y="298"/>
      <point x="213" y="283"/>
      <point x="265" y="283" type="curve" smooth="yes"/>
      <point x="282" y="283"/>
      <point x="298" y="285"/>
      <point x="314" y="289" type="curve" smooth="yes"/>
      <point x="329" y="292"/>
      <point x="343" y="297"/>
      <point x="354" y="303" type="curve"/>
    </contour>
    <contour>
      <point x="224" y="390" type="curve" smooth="yes"/>
      <point x="204" y="407"/>
      <point x="194" y="430"/>
      <point x="194" y="460" type="curve" smooth="yes"/>
      <point x="194" y="471"/>
      <point x="197" y="488"/>
      <point x="202" y="512" type="curve" smooth="yes"/>
      <point x="210" y="551"/>
      <point x="228" y="581"/>
      <point x="255" y="603" type="curve" smooth="yes"/>
      <point x="282" y="625"/>
      <point x="315" y="636"/>
      <point x="354" y="636" type="curve" smooth="yes"/>
      <point x="391" y="636"/>
      <point x="419" y="628"/>
      <point x="439" y="611" type="curve" smooth="yes"/>
      <point x="459" y="594"/>
      <point x="469" y="570"/>
      <point x="469" y="539" type="curve" smooth="yes"/>
      <point x="469" y="528"/>
      <point x="467" y="510"/>
      <point x="462" y="485" type="curve" smooth="yes"/>
      <point x="453" y="447"/>
      <point x="435" y="417"/>
      <point x="408" y="396" type="curve" smooth="yes"/>
      <point x="381" y="375"/>
      <point x="347" y="364"/>
      <point x="307" y="364" type="curve" smooth="yes"/>
      <point x="272" y="364"/>
      <point x="244" y="373"/>
    </contour>
  </outline>
</glyph>
<glyph name="less" format="2">
  <advance width="527"/>
  <unicode hex="003C"/>
  <outline>
    <contour>
      <point x="465" y="77" type="line"/>
      <point x="465" y="163" type="line"/>
      <point x="161" y="282" type="line"/>
      <point x="465" y="401" type="line"/>
      <point x="465" y="487" type="line"/>
      <point x="46" y="319" type="line"/>
      <point x="46" y="246" type="line"/>
    </contour>
  </outline>
</glyph>
<glyph name="question" format="2">
  <advance width="494"/>
  <unicode hex="003F"/>
  <outline>
    <contour>
      <point x="178" y="187" type="line"/>
      <point x="268" y="187" type="line"/>
      <point x="280" y="234" type="line" smooth="yes"/>
      <point x="284" y="255"/>
      <point x="290" y="272"/>
      <point x="298" y="285" type="curve" smooth="yes"/>
      <point x="305" y="297"/>
      <point x="318" y="311"/>
      <point x="337" y="327" type="curve" smooth="yes"/>
      <point x="419" y="398" type="line" smooth="yes"/>
      <point x="445" y="420"/>
      <point x="465" y="441"/>
      <point x="479" y="462" type="curve" smooth="yes"/>
      <point x="493" y="483"/>
      <point x="502" y="506"/>
      <point x="507" y="531" type="curve" smooth="yes"/>
      <point x="510" y="542"/>
      <point x="511" y="556"/>
      <point x="511" y="571" type="curve" smooth="yes"/>
      <point x="511" y="617"/>
      <point x="495" y="653"/>
      <point x="464" y="679" type="curve" smooth="yes"/>
      <point x="433" y="704"/>
      <point x="389" y="717"/>
      <point x="333" y="717" type="curve" smooth="yes"/>
      <point x="200" y="716"/>
      <point x="119" y="654"/>
      <point x="92" y="530" type="curve"/>
      <point x="182" y="530" type="line"/>
      <point x="196" y="600"/>
      <point x="241" y="635"/>
      <point x="317" y="635" type="curve" smooth="yes"/>
      <point x="350" y="635"/>
      <point x="376" y="628"/>
      <point x="394" y="615" type="curve" smooth="yes"/>
      <point x="411" y="602"/>
      <point x="420" y="583"/>
      <point x="420" y="559" type="curve" smooth="yes"/>
      <point x="420" y="550"/>
      <point x="418" y="540"/>
      <point x="415" y="530" type="curve" smooth="yes"/>
      <point x="411" y="513"/>
      <point x="403" y="497"/>
      <point x="392" y="483" type="curve" smooth="yes"/>
      <point x="381" y="469"/>
      <point x="363" y="452"/>
      <point x="339" y="432" type="curve" smooth="yes"/>
      <point x="271" y="373" type="line" smooth="yes"/>
      <point x="245" y="352"/>
      <point x="226" y="332"/>
      <point x="215" y="314" type="curve" smooth="yes"/>
      <point x="204" y="296"/>
      <point x="195" y="272"/>
      <point x="189" y="242" type="curve" smooth="yes"/>
    </contour>
    <contour>
      <point x="132" y="0" type="line"/>
      <point x="236" y="0" type="line"/>
      <point x="258" y="105" type="line"/>
      <point x="154" y="105" type="line"/>
    </contour>
  </outline>
</glyph>
<glyph name="at" format="2">
  <advance width="891"/>
  <unicode hex="0040"/>
  <outline>
    <contour>
      <point x="375" y="-133" type="curve" smooth="yes"/>
      <point x="423" y="-133"/>
      <point x="468" y="-128"/>
      <point x="510" y="-118" type="curve" smooth="yes"/>
      <point x="551" y="-109"/>
      <point x="593" y="-93"/>
      <point x="635" y="-71" type="curve"/>
      <point x="610" y="-4" type="line"/>
      <point x="573" y="-22"/>
      <point x="536" y="-35"/>
      <point x="501" y="-43" type="curve" smooth="yes"/>
      <point x="465" y="-52"/>
      <point x="425" y="-56"/>
      <point x="382" y="-56" type="curve" smooth="yes"/>
      <point x="301" y="-56"/>
      <point x="239" y="-36"/>
      <point x="196" y="5" type="curve" smooth="yes"/>
      <point x="152" y="45"/>
      <point x="130" y="100"/>
      <point x="130" y="170" type="curve" smooth="yes"/>
      <point x="130" y="198"/>
      <point x="133" y="227"/>
      <point x="140" y="257" type="curve" smooth="yes"/>
      <point x="155" y="327" type="line" smooth="yes"/>
      <point x="176" y="426"/>
      <point x="217" y="502"/>
      <point x="278" y="555" type="curve" smooth="yes"/>
      <point x="339" y="607"/>
      <point x="419" y="633"/>
      <point x="517" y="633" type="curve" smooth="yes"/>
      <point x="600" y="633"/>
      <point x="663" y="613"/>
      <point x="708" y="574" type="curve" smooth="yes"/>
      <point x="753" y="535"/>
      <point x="775" y="481"/>
      <point x="775" y="413" type="curve" smooth="yes"/>
      <point x="775" y="386"/>
      <point x="772" y="358"/>
      <point x="765" y="327" type="curve" smooth="yes"/>
      <point x="750" y="257" type="line" smooth="yes"/>
      <point x="739" y="210"/>
      <point x="726" y="176"/>
      <point x="710" y="156" type="curve" smooth="yes"/>
      <point x="693" y="136"/>
      <point x="673" y="126"/>
      <point x="649" y="126" type="curve" smooth="yes"/>
      <point x="634" y="126"/>
      <point x="621" y="130"/>
      <point x="612" y="139" type="curve" smooth="yes"/>
      <point x="603" y="148"/>
      <point x="598" y="161"/>
      <point x="598" y="180" type="curve" smooth="yes"/>
      <point x="598" y="188"/>
      <point x="599" y="197"/>
      <point x="601" y="208" type="curve" smooth="yes"/>
      <point x="664" y="503" type="line"/>
      <point x="583" y="503" type="line"/>
      <point x="574" y="458" type="line"/>
      <point x="554" y="495"/>
      <point x="519" y="513"/>
      <point x="468" y="513" type="curve" smooth="yes"/>
      <point x="372" y="513"/>
      <point x="311" y="451"/>
      <point x="285" y="327" type="curve" smooth="yes"/>
      <point x="266" y="242" type="line" smooth="yes"/>
      <point x="262" y="221"/>
      <point x="260" y="201"/>
      <point x="260" y="183" type="curve" smooth="yes"/>
      <point x="260" y="144"/>
      <point x="271" y="113"/>
      <point x="294" y="90" type="curve" smooth="yes"/>
      <point x="316" y="67"/>
      <point x="348" y="56"/>
      <point x="389" y="56" type="curve" smooth="yes"/>
      <point x="419" y="56"/>
      <point x="446" y="62"/>
      <point x="469" y="75" type="curve" smooth="yes"/>
      <point x="492" y="87"/>
      <point x="511" y="105"/>
      <point x="526" y="128" type="curve"/>
      <point x="533" y="105"/>
      <point x="546" y="88"/>
      <point x="565" y="75" type="curve" smooth="yes"/>
      <point x="583" y="62"/>
      <point x="606" y="56"/>
      <point x="635" y="56" type="curve" smooth="yes"/>
      <point x="682" y="56"/>
      <point x="724" y="73"/>
      <point x="761" y="108" type="curve" smooth="yes"/>
      <point x="798" y="142"/>
      <point x="823" y="192"/>
      <point x="836" y="258" type="curve" smooth="yes"/>
      <point x="851" y="328" type="line" smooth="yes"/>
      <point x="857" y="358"/>
      <point x="860" y="386"/>
      <point x="860" y="412" type="curve" smooth="yes"/>
      <point x="860" y="471"/>
      <point x="846" y="523"/>
      <point x="818" y="568" type="curve" smooth="yes"/>
      <point x="790" y="613"/>
      <point x="750" y="647"/>
      <point x="699" y="672" type="curve" smooth="yes"/>
      <point x="647" y="697"/>
      <point x="587" y="709"/>
      <point x="520" y="709" type="curve" smooth="yes"/>
      <point x="402" y="709"/>
      <point x="304" y="675"/>
      <point x="226" y="608" type="curve" smooth="yes"/>
      <point x="147" y="541"/>
      <point x="95" y="446"/>
      <point x="69" y="325" type="curve" smooth="yes"/>
      <point x="54" y="254" type="line" smooth="yes"/>
      <point x="47" y="223"/>
      <point x="44" y="193"/>
      <point x="44" y="164" type="curve" smooth="yes"/>
      <point x="44" y="103"/>
      <point x="58" y="51"/>
      <point x="85" y="6" type="curve" smooth="yes"/>
      <point x="112" y="-39"/>
      <point x="150" y="-73"/>
      <point x="200" y="-97" type="curve" smooth="yes"/>
      <point x="249" y="-121"/>
      <point x="308" y="-133"/>
    </contour>
    <contour>
      <point x="345" y="200" type="curve" smooth="yes"/>
      <point x="345" y="211"/>
      <point x="347" y="227"/>
      <point x="350" y="248" type="curve" smooth="yes"/>
      <point x="368" y="326" type="line" smooth="yes"/>
      <point x="383" y="403"/>
      <point x="421" y="442"/>
      <point x="481" y="442" type="curve" smooth="yes"/>
      <point x="502" y="442"/>
      <point x="519" y="437"/>
      <point x="530" y="427" type="curve" smooth="yes"/>
      <point x="543" y="415"/>
      <point x="549" y="396"/>
      <point x="549" y="371" type="curve" smooth="yes"/>
      <point x="549" y="356"/>
      <point x="547" y="341"/>
      <point x="544" y="328" type="curve" smooth="yes"/>
      <point x="525" y="243" type="line" smooth="yes"/>
      <point x="517" y="206"/>
      <point x="504" y="177"/>
      <point x="487" y="157" type="curve" smooth="yes"/>
      <point x="469" y="137"/>
      <point x="445" y="127"/>
      <point x="414" y="127" type="curve" smooth="yes"/>
      <point x="368" y="127"/>
      <point x="345" y="151"/>
    </contour>
  </outline>
</glyph>
<glyph name="A" format="2">
  <advance width="671"/>
  <unicode hex="0041"/>
  <outline>
    <contour>
      <point x="-51" y="0" type="line"/>
      <point x="50" y="0" type="line"/>
      <point x="146" y="160" type="line"/>
      <point x="486" y="160" type="line"/>
      <point x="515" y="0" type="line"/>
      <point x="611" y="0" type="line"/>
      <point x="469" y="707" type="line"/>
      <point x="391" y="707" type="line"/>
    </contour>
    <contour>
      <point x="195" y="239" type="line"/>
      <point x="408" y="592" type="line"/>
      <point x="472" y="239" type="line"/>
    </contour>
  </outline>
</glyph>
<glyph name="B" format="2">
  <advance width="688"/>
  <unicode hex="0042"/>
  <outline>
    <contour>
      <point x="19" y="0" type="line"/>
      <point x="332" y="0" type="line" smooth="yes"/>
      <point x="388" y="0"/>
      <point x="437" y="9"/>
      <point x="480" y="28" type="curve" smooth="yes"/>
      <point x="523" y="46"/>
      <point x="556" y="72"/>
      <point x="579" y="107" type="curve" smooth="yes"/>
      <point x="602" y="141"/>
      <point x="614" y="182"/>
      <point x="614" y="230" type="curve" smooth="yes"/>
      <point x="614" y="263"/>
      <point x="606" y="291"/>
      <point x="591" y="314" type="curve" smooth="yes"/>
      <point x="575" y="337"/>
      <point x="552" y="354"/>
      <point x="521" y="364" type="curve"/>
      <point x="566" y="377"/>
      <point x="603" y="400"/>
      <point x="630" y="435" type="curve" smooth="yes"/>
      <point x="657" y="469"/>
      <point x="671" y="509"/>
      <point x="671" y="554" type="curve" smooth="yes"/>
      <point x="671" y="603"/>
      <point x="654" y="640"/>
      <point x="619" y="667" type="curve" smooth="yes"/>
      <point x="584" y="694"/>
      <point x="533" y="707"/>
      <point x="468" y="707" type="curve" smooth="yes"/>
      <point x="170" y="707" type="line"/>
    </contour>
    <contour>
      <point x="130" y="82" type="line"/>
      <point x="180" y="319" type="line"/>
      <point x="394" y="319" type="line" smooth="yes"/>
      <point x="479" y="319"/>
      <point x="521" y="288"/>
      <point x="521" y="226" type="curve" smooth="yes"/>
      <point x="521" y="181"/>
      <point x="505" y="146"/>
      <point x="473" y="121" type="curve" smooth="yes"/>
      <point x="440" y="95"/>
      <point x="395" y="82"/>
      <point x="337" y="82" type="curve" smooth="yes"/>
    </contour>
    <contour>
      <point x="199" y="401" type="line"/>
      <point x="246" y="625" type="line"/>
      <point x="458" y="625" type="line" smooth="yes"/>
      <point x="497" y="625"/>
      <point x="527" y="618"/>
      <point x="546" y="604" type="curve" smooth="yes"/>
      <point x="565" y="590"/>
      <point x="575" y="568"/>
      <point x="575" y="538" type="curve" smooth="yes"/>
      <point x="575" y="495"/>
      <point x="559" y="461"/>
      <point x="527" y="437" type="curve" smooth="yes"/>
      <point x="494" y="413"/>
      <point x="451" y="401"/>
      <point x="397" y="401" type="curve" smooth="yes"/>
    </contour>
  </outline>
</glyph>
<glyph name="C" format="2">
  <advance width="690"/>
  <unicode hex="0043"/>
  <outline>
    <contour>
      <point x="317" y="-10" type="curve" smooth="yes"/>
      <point x="396" y="-10"/>
      <point x="462" y="10"/>
      <point x="514" y="50" type="curve" smooth="yes"/>
      <point x="566" y="90"/>
      <point x="601" y="147"/>
      <point x="618" y="222" type="curve"/>
      <point x="527" y="222" type="line"/>
      <point x="516" y="173"/>
      <point x="494" y="136"/>
      <point x="459" y="111" type="curve" smooth="yes"/>
      <point x="424" y="86"/>
      <point x="380" y="74"/>
      <point x="326" y="74" type="curve" smooth="yes"/>
      <point x="271" y="74"/>
      <point x="228" y="87"/>
      <point x="199" y="112" type="curve" smooth="yes"/>
      <point x="169" y="137"/>
      <point x="154" y="174"/>
      <point x="154" y="224" type="curve" smooth="yes"/>
      <point x="154" y="247"/>
      <point x="157" y="272"/>
      <point x="163" y="299" type="curve" smooth="yes"/>
      <point x="187" y="414" type="line" smooth="yes"/>
      <point x="204" y="491"/>
      <point x="231" y="548"/>
      <point x="269" y="583" type="curve" smooth="yes"/>
      <point x="307" y="618"/>
      <point x="358" y="635"/>
      <point x="423" y="635" type="curve" smooth="yes"/>
      <point x="475" y="635"/>
      <point x="515" y="624"/>
      <point x="542" y="602" type="curve" smooth="yes"/>
      <point x="569" y="580"/>
      <point x="583" y="549"/>
      <point x="583" y="510" type="curve" smooth="yes"/>
      <point x="583" y="500"/>
      <point x="583" y="492"/>
      <point x="582" y="485" type="curve"/>
      <point x="675" y="485" type="line"/>
      <point x="676" y="494"/>
      <point x="677" y="506"/>
      <point x="677" y="523" type="curve" smooth="yes"/>
      <point x="677" y="583"/>
      <point x="655" y="631"/>
      <point x="612" y="666" type="curve" smooth="yes"/>
      <point x="569" y="701"/>
      <point x="508" y="718"/>
      <point x="430" y="718" type="curve" smooth="yes"/>
      <point x="340" y="718"/>
      <point x="267" y="694"/>
      <point x="212" y="646" type="curve" smooth="yes"/>
      <point x="156" y="598"/>
      <point x="117" y="523"/>
      <point x="96" y="420" type="curve" smooth="yes"/>
      <point x="71" y="302" type="line" smooth="yes"/>
      <point x="64" y="271"/>
      <point x="61" y="241"/>
      <point x="61" y="214" type="curve" smooth="yes"/>
      <point x="61" y="141"/>
      <point x="84" y="85"/>
      <point x="130" y="47" type="curve" smooth="yes"/>
      <point x="176" y="9"/>
      <point x="238" y="-10"/>
    </contour>
  </outline>
</glyph>
<glyph name="D" format="2">
  <advance width="692"/>
  <unicode hex="0044"/>
  <outline>
    <contour>
      <point x="19" y="0" type="line"/>
      <point x="300" y="0" type="line" smooth="yes"/>
      <point x="391" y="0"/>
      <point x="465" y="24"/>
      <point x="521" y="71" type="curve" smooth="yes"/>
      <point x="577" y="118"/>
      <point x="616" y="192"/>
      <point x="638" y="294" type="curve" smooth="yes"/>
      <point x="659" y="397" type="line" smooth="yes"/>
      <point x="667" y="433"/>
      <point x="671" y="465"/>
      <point x="671" y="492" type="curve" smooth="yes"/>
      <point x="671" y="563"/>
      <point x="649" y="616"/>
      <point x="605" y="653" type="curve" smooth="yes"/>
      <point x="561" y="689"/>
      <point x="499" y="707"/>
      <point x="420" y="707" type="curve" smooth="yes"/>
      <point x="170" y="707" type="line"/>
    </contour>
    <contour>
      <point x="130" y="83" type="line"/>
      <point x="246" y="624" type="line"/>
      <point x="408" y="624" type="line" smooth="yes"/>
      <point x="465" y="624"/>
      <point x="507" y="612"/>
      <point x="535" y="589" type="curve" smooth="yes"/>
      <point x="563" y="565"/>
      <point x="577" y="529"/>
      <point x="577" y="480" type="curve" smooth="yes"/>
      <point x="576" y="459"/>
      <point x="573" y="431"/>
      <point x="566" y="397" type="curve" smooth="yes"/>
      <point x="545" y="297" type="line" smooth="yes"/>
      <point x="529" y="221"/>
      <point x="502" y="166"/>
      <point x="464" y="133" type="curve" smooth="yes"/>
      <point x="426" y="100"/>
      <point x="374" y="83"/>
      <point x="309" y="83" type="curve" smooth="yes"/>
    </contour>
  </outline>
</glyph>
<glyph name="F" format="2">
  <advance width="603"/>
  <unicode hex="0046"/>
  <outline>
    <contour>
      <point x="19" y="0" type="line"/>
      <point x="113" y="0" type="line"/>
      <point x="180" y="314" type="line"/>
      <point x="521" y="314" type="line"/>
      <point x="539" y="396" type="line"/>
      <point x="198" y="396" type="line"/>
      <point x="246" y="624" type="line"/>
      <point x="643" y="624" type="line"/>
      <point x="660" y="707" type="line"/>
      <point x="170" y="707" type="line"/>
    </contour>
  </outline>
</glyph>
<glyph name="G" format="2">
  <advance width="689"/>
  <unicode hex="0047"/>
  <outline>
    <contour>
      <point x="317" y="-10" type="curve" smooth="yes"/>
      <point x="398" y="-10"/>
      <point x="465" y="11"/>
      <point x="518" y="52" type="curve" smooth="yes"/>
      <point x="571" y="93"/>
      <point x="606" y="156"/>
      <point x="624" y="241" type="curve" smooth="yes"/>
      <point x="649" y="367" type="line"/>
      <point x="370" y="367" type="line"/>
      <point x="352" y="288" type="line"/>
      <point x="541" y="288" type="line"/>
      <point x="529" y="234" type="line" smooth="yes"/>
      <point x="518" y="180"/>
      <point x="494" y="140"/>
      <point x="459" y="114" type="curve" smooth="yes"/>
      <point x="424" y="87"/>
      <point x="378" y="74"/>
      <point x="323" y="74" type="curve" smooth="yes"/>
      <point x="268" y="74"/>
      <point x="227" y="86"/>
      <point x="198" y="111" type="curve" smooth="yes"/>
      <point x="169" y="136"/>
      <point x="154" y="173"/>
      <point x="154" y="222" type="curve" smooth="yes"/>
      <point x="154" y="246"/>
      <point x="157" y="272"/>
      <point x="163" y="299" type="curve" smooth="yes"/>
      <point x="187" y="414" type="line" smooth="yes"/>
      <point x="204" y="491"/>
      <point x="232" y="548"/>
      <point x="270" y="583" type="curve" smooth="yes"/>
      <point x="308" y="618"/>
      <point x="359" y="635"/>
      <point x="424" y="635" type="curve" smooth="yes"/>
      <point x="475" y="635"/>
      <point x="515" y="624"/>
      <point x="542" y="603" type="curve" smooth="yes"/>
      <point x="569" y="581"/>
      <point x="582" y="551"/>
      <point x="582" y="512" type="curve" smooth="yes"/>
      <point x="582" y="486" type="line"/>
      <point x="674" y="486" type="line"/>
      <point x="675" y="505"/>
      <point x="676" y="518"/>
      <point x="676" y="524" type="curve" smooth="yes"/>
      <point x="676" y="584"/>
      <point x="654" y="631"/>
      <point x="611" y="666" type="curve" smooth="yes"/>
      <point x="568" y="701"/>
      <point x="507" y="718"/>
      <point x="430" y="718" type="curve" smooth="yes"/>
      <point x="340" y="718"/>
      <point x="267" y="694"/>
      <point x="212" y="646" type="curve" smooth="yes"/>
      <point x="156" y="598"/>
      <point x="117" y="523"/>
      <point x="96" y="420" type="curve" smooth="yes"/>
      <point x="71" y="302" type="line" smooth="yes"/>
      <point x="64" y="271"/>
      <point x="61" y="241"/>
      <point x="61" y="214" type="curve" smooth="yes"/>
      <point x="61" y="141"/>
      <point x="84" y="85"/>
      <point x="130" y="47" type="curve" smooth="yes"/>
      <point x="176" y="9"/>
      <point x="238" y="-10"/>
    </contour>
  </outline>
</glyph>
<glyph name="H" format="2">
  <advance width="699"/>
  <unicode hex="0048"/>
  <outline>
    <contour>
      <point x="19" y="0" type="line"/>
      <point x="113" y="0" type="line"/>
      <point x="180" y="319" type="line"/>
      <point x="544" y="319" type="line"/>
      <point x="476" y="0" type="line"/>
      <point x="568" y="0" type="line"/>
      <point x="719" y="707" type="line"/>
      <point x="626" y="707" type="line"/>
      <point x="561" y="401" type="line"/>
      <point x="199" y="401" type="line"/>
      <point x="263" y="707" type="line"/>
      <point x="170" y="707" type="line"/>
    </contour>
  </outline>
</glyph>
<glyph name="J" format="2">
  <advance width="353"/>
  <unicode hex="004A"/>
  <anchor x="372" y="707" name="top"/>
  <outline>
    <contour>
      <point x="-8" y="83" type="line"/>
      <point x="55" y="83" type="line" smooth="yes"/>
      <point x="86" y="83"/>
      <point x="111" y="90"/>
      <point x="126" y="103" type="curve" smooth="yes"/>
      <point x="142" y="116"/>
      <point x="153" y="139"/>
      <point x="160" y="171" type="curve" smooth="yes"/>
      <point x="271" y="707" type="line"/>
      <point x="364" y="707" type="line"/>
      <point x="250" y="159" type="line" smooth="yes"/>
      <point x="239" y="106"/>
      <point x="218" y="66"/>
      <point x="186" y="40" type="curve" smooth="yes"/>
      <point x="154" y="13"/>
      <point x="111" y="0"/>
      <point x="57" y="0" type="curve" smooth="yes"/>
      <point x="-25" y="0" type="line"/>
    </contour>
  </outline>
</glyph>
<glyph name="M" format="2">
  <advance width="841"/>
  <unicode hex="004D"/>
  <outline>
    <contour>
      <point x="19" y="0" type="line"/>
      <point x="113" y="0" type="line"/>
      <point x="227" y="538" type="line"/>
      <point x="366" y="139" type="line"/>
      <point x="433" y="139" type="line"/>
      <point x="731" y="535" type="line"/>
      <point x="617" y="0" type="line"/>
      <point x="711" y="0" type="line"/>
      <point x="861" y="707" type="line"/>
      <point x="758" y="707" type="line"/>
      <point x="417" y="248" type="line"/>
      <point x="263" y="707" type="line"/>
      <point x="170" y="707" type="line"/>
    </contour>
  </outline>
</glyph>
<glyph name="P" format="2">
  <advance width="651"/>
  <unicode hex="0050"/>
  <outline>
    <contour>
      <point x="19" y="0" type="line"/>
      <point x="113" y="0" type="line"/>
      <point x="173" y="283" type="line"/>
      <point x="391" y="283" type="line" smooth="yes"/>
      <point x="448" y="283"/>
      <point x="497" y="293"/>
      <point x="540" y="314" type="curve" smooth="yes"/>
      <point x="582" y="335"/>
      <point x="615" y="364"/>
      <point x="638" y="401" type="curve" smooth="yes"/>
      <point x="661" y="438"/>
      <point x="673" y="482"/>
      <point x="673" y="532" type="curve" smooth="yes"/>
      <point x="673" y="589"/>
      <point x="655" y="633"/>
      <point x="620" y="662" type="curve" smooth="yes"/>
      <point x="585" y="691"/>
      <point x="533" y="705"/>
      <point x="466" y="705" type="curve" smooth="yes"/>
      <point x="170" y="705" type="line"/>
    </contour>
    <contour>
      <point x="190" y="365" type="line"/>
      <point x="245" y="622" type="line"/>
      <point x="450" y="622" type="line" smooth="yes"/>
      <point x="493" y="622"/>
      <point x="526" y="614"/>
      <point x="548" y="598" type="curve" smooth="yes"/>
      <point x="569" y="581"/>
      <point x="580" y="556"/>
      <point x="580" y="521" type="curve" smooth="yes"/>
      <point x="580" y="471"/>
      <point x="563" y="433"/>
      <point x="530" y="406" type="curve" smooth="yes"/>
      <point x="497" y="379"/>
      <point x="451" y="365"/>
      <point x="393" y="365" type="curve" smooth="yes"/>
    </contour>
  </outline>
</glyph>
<glyph name="R" format="2">
  <advance width="677"/>
  <unicode hex="0052"/>
  <outline>
    <contour>
      <point x="19" y="0" type="line"/>
      <point x="113" y="0" type="line"/>
      <point x="176" y="298" type="line"/>
      <point x="372" y="298" type="line"/>
      <point x="480" y="0" type="line"/>
      <point x="584" y="0" type="line"/>
      <point x="465" y="304" type="line"/>
      <point x="530" y="317"/>
      <point x="582" y="344"/>
      <point x="619" y="387" type="curve" smooth="yes"/>
      <point x="656" y="429"/>
      <point x="675" y="480"/>
      <point x="675" y="541" type="curve" smooth="yes"/>
      <point x="675" y="596"/>
      <point x="657" y="638"/>
      <point x="622" y="666" type="curve" smooth="yes"/>
      <point x="587" y="693"/>
      <point x="536" y="707"/>
      <point x="470" y="707" type="curve" smooth="yes"/>
      <point x="170" y="707" type="line"/>
    </contour>
    <contour>
      <point x="194" y="379" type="line"/>
      <point x="246" y="624" type="line"/>
      <point x="455" y="624" type="line" smooth="yes"/>
      <point x="497" y="624"/>
      <point x="529" y="616"/>
      <point x="550" y="600" type="curve" smooth="yes"/>
      <point x="571" y="584"/>
      <point x="581" y="560"/>
      <point x="581" y="527" type="curve" smooth="yes"/>
      <point x="581" y="481"/>
      <point x="565" y="445"/>
      <point x="532" y="419" type="curve" smooth="yes"/>
      <point x="499" y="392"/>
      <point x="455" y="379"/>
      <point x="399" y="379" type="curve" smooth="yes"/>
    </contour>
  </outline>
</glyph>
<glyph name="T" format="2">
  <advance width="559"/>
  <unicode hex="0054"/>
  <outline>
    <contour>
      <point x="178" y="0" type="line"/>
      <point x="270" y="0" type="line"/>
      <point x="402" y="624" type="line"/>
      <point x="629" y="624" type="line"/>
      <point x="646" y="707" type="line"/>
      <point x="102" y="707" type="line"/>
      <point x="85" y="624" type="line"/>
      <point x="310" y="624" type="line"/>
    </contour>
  </outline>
</glyph>
<glyph name="V" format="2">
  <advance width="609"/>
  <unicode hex="0056"/>
  <outline>
    <contour>
      <point x="212" y="0" type="line"/>
      <point x="287" y="0" type="line"/>
      <point x="699" y="707" type="line"/>
      <point x="599" y="707" type="line"/>
      <point x="275" y="131" type="line"/>
      <point x="196" y="707" type="line"/>
      <point x="99" y="707" type="line"/>
    </contour>
  </outline>
</glyph>
<glyph name="Y" format="2">
  <advance width="586"/>
  <unicode hex="0059"/>
  <outline>
    <contour>
      <point x="193" y="0" type="line"/>
      <point x="285" y="0" type="line"/>
      <point x="346" y="288" type="line"/>
      <point x="677" y="707" type="line"/>
      <point x="568" y="707" type="line"/>
      <point x="315" y="371" type="line"/>
      <point x="203" y="707" type="line"/>
      <point x="99" y="707" type="line"/>
      <point x="255" y="294" type="line"/>
    </contour>
  </outline>
</glyph>
<glyph name="Z" format="2">
  <advance width="585"/>
  <unicode hex="005A"/>
  <outline>
    <contour>
      <point x="-17" y="0" type="line"/>
      <point x="493" y="0" type="line"/>
      <point x="510" y="83" type="line"/>
      <point x="110" y="83" type="line"/>
      <point x="618" y="625" type="line"/>
      <point x="636" y="707" type="line"/>
      <point x="144" y="707" type="line"/>
      <point x="128" y="625" type="line"/>
      <point x="509" y="625" type="line"/>
      <point x="0" y="83" type="line"/>
    </contour>
  </outline>
</glyph>
<glyph name="bracketleft" format="2">
  <advance width="331"/>
  <unicode hex="005B"/>
  <outline>
    <contour>
      <point x="1" y="-86" type="line"/>
      <point x="202" y="-86" type="line"/>
      <point x="220" y="-3" type="line"/>
      <point x="110" y="-3" type="line"/>
      <point x="254" y="675" type="line"/>
      <point x="364" y="675" type="line"/>
      <point x="382" y="758" type="line"/>
      <point x="181" y="758" type="line"/>
    </contour>
  </outline>
</glyph>
<glyph name="grave" format="2">
  <advance width="505"/>
  <unicode hex="0060"/>
  <outline>
    <contour>
      <point x="315" y="591" type="line"/>
      <point x="393" y="591" type="line"/>
      <point x="305" y="721" type="line"/>
      <point x="197" y="721" type="line"/>
    </contour>
  </outline>
</glyph>
<glyph name="b" format="2">
  <advance width="583"/>
  <unicode hex="0062"/>
  <outline>
    <contour>
      <point x="116" y="72" type="curve"/>
      <point x="100" y="0" type="line"/>
      <point x="14" y="0" type="line"/>
      <point x="165" y="707" type="line"/>
      <point x="252" y="707" type="line"/>
      <point x="200" y="459" type="line"/>
      <point x="243" y="509"/>
      <point x="296" y="534"/>
      <point x="357" y="534" type="curve" smooth="yes"/>
      <point x="412" y="534"/>
      <point x="456" y="518"/>
      <point x="490" y="487" type="curve" smooth="yes"/>
      <point x="523" y="456"/>
      <point x="540" y="411"/>
      <point x="540" y="352" type="curve" smooth="yes"/>
      <point x="540" y="329"/>
      <point x="537" y="305"/>
      <point x="532" y="282" type="curve" smooth="yes"/>
      <point x="519" y="218" type="line" smooth="yes"/>
      <point x="504" y="143"/>
      <point x="475" y="86"/>
      <point x="433" y="48" type="curve" smooth="yes"/>
      <point x="390" y="10"/>
      <point x="338" y="-9"/>
      <point x="275" y="-9" type="curve" smooth="yes"/>
      <point x="202" y="-9"/>
      <point x="149" y="18"/>
    </contour>
    <contour>
      <point x="432" y="222" type="curve" smooth="yes"/>
      <point x="445" y="281" type="line" smooth="yes"/>
      <point x="449" y="303"/>
      <point x="451" y="322"/>
      <point x="452" y="338" type="curve" smooth="yes"/>
      <point x="452" y="377"/>
      <point x="441" y="407"/>
      <point x="419" y="426" type="curve" smooth="yes"/>
      <point x="397" y="445"/>
      <point x="368" y="455"/>
      <point x="333" y="455" type="curve" smooth="yes"/>
      <point x="289" y="455"/>
      <point x="253" y="441"/>
      <point x="224" y="412" type="curve" smooth="yes"/>
      <point x="195" y="383"/>
      <point x="175" y="345"/>
      <point x="165" y="298" type="curve" smooth="yes"/>
      <point x="152" y="234" type="line" smooth="yes"/>
      <point x="149" y="217"/>
      <point x="147" y="202"/>
      <point x="146" y="189" type="curve" smooth="yes"/>
      <point x="146" y="152"/>
      <point x="157" y="122"/>
      <point x="180" y="101" type="curve" smooth="yes"/>
      <point x="202" y="80"/>
      <point x="233" y="69"/>
      <point x="272" y="69" type="curve" smooth="yes"/>
      <point x="313" y="69"/>
      <point x="348" y="81"/>
      <point x="375" y="105" type="curve" smooth="yes"/>
      <point x="402" y="129"/>
      <point x="421" y="168"/>
    </contour>
  </outline>
</glyph>
<glyph name="c" format="2">
  <advance width="567"/>
  <unicode hex="0063"/>
  <outline>
    <contour>
      <point x="257" y="-9" type="curve" smooth="yes"/>
      <point x="322" y="-9"/>
      <point x="376" y="8"/>
      <point x="418" y="42" type="curve" smooth="yes"/>
      <point x="460" y="75"/>
      <point x="485" y="121"/>
      <point x="494" y="179" type="curve"/>
      <point x="409" y="179" type="line"/>
      <point x="402" y="143"/>
      <point x="385" y="116"/>
      <point x="360" y="97" type="curve" smooth="yes"/>
      <point x="335" y="78"/>
      <point x="302" y="69"/>
      <point x="262" y="69" type="curve" smooth="yes"/>
      <point x="215" y="69"/>
      <point x="181" y="80"/>
      <point x="159" y="103" type="curve" smooth="yes"/>
      <point x="141" y="123"/>
      <point x="132" y="151"/>
      <point x="132" y="187" type="curve" smooth="yes"/>
      <point x="132" y="204"/>
      <point x="134" y="224"/>
      <point x="138" y="245" type="curve" smooth="yes"/>
      <point x="151" y="300" type="line" smooth="yes"/>
      <point x="162" y="355"/>
      <point x="182" y="395"/>
      <point x="211" y="419" type="curve" smooth="yes"/>
      <point x="240" y="443"/>
      <point x="277" y="455"/>
      <point x="323" y="455" type="curve" smooth="yes"/>
      <point x="402" y="454"/>
      <point x="442" y="422"/>
      <point x="442" y="358" type="curve"/>
      <point x="441" y="343" type="line"/>
      <point x="527" y="343" type="line"/>
      <point x="528" y="350"/>
      <point x="528" y="359"/>
      <point x="528" y="369" type="curve" smooth="yes"/>
      <point x="528" y="422"/>
      <point x="510" y="463"/>
      <point x="474" y="491" type="curve" smooth="yes"/>
      <point x="437" y="518"/>
      <point x="388" y="532"/>
      <point x="327" y="532" type="curve" smooth="yes"/>
      <point x="257" y="532"/>
      <point x="200" y="513"/>
      <point x="156" y="476" type="curve" smooth="yes"/>
      <point x="111" y="439"/>
      <point x="81" y="382"/>
      <point x="65" y="307" type="curve" smooth="yes"/>
      <point x="52" y="247" type="line" smooth="yes"/>
      <point x="47" y="222"/>
      <point x="45" y="200"/>
      <point x="45" y="179" type="curve" smooth="yes"/>
      <point x="45" y="116"/>
      <point x="64" y="69"/>
      <point x="103" y="38" type="curve" smooth="yes"/>
      <point x="142" y="7"/>
      <point x="193" y="-9"/>
    </contour>
  </outline>
</glyph>
<glyph name="d" format="2">
  <advance width="583"/>
  <unicode hex="0064"/>
  <outline>
    <contour>
      <point x="224" y="-9" type="curve" smooth="yes"/>
      <point x="291" y="-9"/>
      <point x="344" y="16"/>
      <point x="385" y="65" type="curve"/>
      <point x="372" y="0" type="line"/>
      <point x="458" y="0" type="line"/>
      <point x="608" y="707" type="line"/>
      <point x="520" y="707" type="line"/>
      <point x="467" y="451" type="line"/>
      <point x="452" y="478"/>
      <point x="430" y="499"/>
      <point x="403" y="512" type="curve" smooth="yes"/>
      <point x="376" y="525"/>
      <point x="344" y="532"/>
      <point x="307" y="532" type="curve" smooth="yes"/>
      <point x="245" y="532"/>
      <point x="193" y="514"/>
      <point x="152" y="477" type="curve" smooth="yes"/>
      <point x="110" y="440"/>
      <point x="81" y="383"/>
      <point x="65" y="308" type="curve" smooth="yes"/>
      <point x="51" y="245" type="line" smooth="yes"/>
      <point x="46" y="221"/>
      <point x="44" y="197"/>
      <point x="44" y="174" type="curve" smooth="yes"/>
      <point x="44" y="115"/>
      <point x="61" y="69"/>
      <point x="94" y="38" type="curve" smooth="yes"/>
      <point x="127" y="7"/>
      <point x="170" y="-9"/>
    </contour>
    <contour>
      <point x="165" y="98" type="curve" smooth="yes"/>
      <point x="144" y="117"/>
      <point x="133" y="147"/>
      <point x="133" y="186" type="curve" smooth="yes"/>
      <point x="133" y="207"/>
      <point x="135" y="227"/>
      <point x="138" y="244" type="curve" smooth="yes"/>
      <point x="152" y="302" type="line" smooth="yes"/>
      <point x="163" y="356"/>
      <point x="183" y="395"/>
      <point x="210" y="419" type="curve" smooth="yes"/>
      <point x="237" y="443"/>
      <point x="270" y="455"/>
      <point x="310" y="455" type="curve" smooth="yes"/>
      <point x="349" y="455"/>
      <point x="380" y="444"/>
      <point x="402" y="423" type="curve" smooth="yes"/>
      <point x="424" y="401"/>
      <point x="435" y="371"/>
      <point x="435" y="333" type="curve" smooth="yes"/>
      <point x="435" y="314"/>
      <point x="433" y="296"/>
      <point x="430" y="279" type="curve" smooth="yes"/>
      <point x="418" y="224" type="line" smooth="yes"/>
      <point x="407" y="176"/>
      <point x="387" y="138"/>
      <point x="359" y="111" type="curve" smooth="yes"/>
      <point x="331" y="83"/>
      <point x="295" y="69"/>
      <point x="250" y="69" type="curve" smooth="yes"/>
      <point x="215" y="69"/>
      <point x="186" y="79"/>
    </contour>
  </outline>
</glyph>
<glyph name="e" format="2">
  <advance width="571"/>
  <unicode hex="0065"/>
  <outline>
    <contour>
      <point x="257" y="-9" type="curve" smooth="yes"/>
      <point x="320" y="-9"/>
      <point x="373" y="6"/>
      <point x="414" y="36" type="curve" smooth="yes"/>
      <point x="455" y="66"/>
      <point x="482" y="109"/>
      <point x="493" y="165" type="curve"/>
      <point x="404" y="165" type="line"/>
      <point x="396" y="133"/>
      <point x="380" y="109"/>
      <point x="356" y="93" type="curve" smooth="yes"/>
      <point x="331" y="76"/>
      <point x="300" y="68"/>
      <point x="262" y="68" type="curve" smooth="yes"/>
      <point x="222" y="68"/>
      <point x="190" y="77"/>
      <point x="167" y="96" type="curve" smooth="yes"/>
      <point x="144" y="114"/>
      <point x="132" y="143"/>
      <point x="132" y="183" type="curve" smooth="yes"/>
      <point x="132" y="202"/>
      <point x="134" y="222"/>
      <point x="139" y="242" type="curve"/>
      <point x="513" y="242" type="line"/>
      <point x="521" y="287" type="line" smooth="yes"/>
      <point x="526" y="310"/>
      <point x="528" y="333"/>
      <point x="528" y="356" type="curve" smooth="yes"/>
      <point x="528" y="413"/>
      <point x="510" y="456"/>
      <point x="474" y="487" type="curve" smooth="yes"/>
      <point x="438" y="517"/>
      <point x="389" y="532"/>
      <point x="326" y="532" type="curve" smooth="yes"/>
      <point x="257" y="532"/>
      <point x="200" y="513"/>
      <point x="155" y="476" type="curve" smooth="yes"/>
      <point x="110" y="438"/>
      <point x="80" y="381"/>
      <point x="65" y="306" type="curve" smooth="yes"/>
      <point x="53" y="251" type="line" smooth="yes"/>
      <point x="48" y="224"/>
      <point x="45" y="199"/>
      <point x="45" y="177" type="curve" smooth="yes"/>
      <point x="45" y="116"/>
      <point x="65" y="69"/>
      <point x="104" y="38" type="curve" smooth="yes"/>
      <point x="143" y="7"/>
      <point x="194" y="-9"/>
    </contour>
    <contour>
      <point x="152" y="305" type="line"/>
      <point x="163" y="358"/>
      <point x="183" y="397"/>
      <point x="212" y="421" type="curve" smooth="yes"/>
      <point x="241" y="444"/>
      <point x="277" y="456"/>
      <point x="321" y="456" type="curve" smooth="yes"/>
      <point x="360" y="456"/>
      <point x="390" y="448"/>
      <point x="412" y="431" type="curve" smooth="yes"/>
      <point x="433" y="414"/>
      <point x="444" y="389"/>
      <point x="444" y="356" type="curve" smooth="yes"/>
      <point x="444" y="344"/>
      <point x="443" y="331"/>
      <point x="440" y="318" type="curve" smooth="yes"/>
      <point x="438" y="305" type="line"/>
    </contour>
  </outline>
</glyph>
<glyph name="f" format="2">
  <advance width="370"/>
  <unicode hex="0066"/>
  <outline>
    <contour>
      <point x="67" y="0" type="line"/>
      <point x="154" y="0" type="line"/>
      <point x="250" y="458" type="line"/>
      <point x="377" y="458" type="line"/>
      <point x="390" y="523" type="line"/>
      <point x="264" y="523" type="line"/>
      <point x="273" y="567" type="line" smooth="yes"/>
      <point x="279" y="594"/>
      <point x="289" y="613"/>
      <point x="304" y="625" type="curve" smooth="yes"/>
      <point x="319" y="636"/>
      <point x="340" y="642"/>
      <point x="368" y="642" type="curve" smooth="yes"/>
      <point x="415" y="642" type="line"/>
      <point x="429" y="707" type="line"/>
      <point x="362" y="707" type="line" smooth="yes"/>
      <point x="265" y="706"/>
      <point x="206" y="658"/>
      <point x="185" y="563" type="curve" smooth="yes"/>
      <point x="177" y="523" type="line"/>
      <point x="102" y="523" type="line"/>
      <point x="88" y="458" type="line"/>
      <point x="163" y="458" type="line"/>
    </contour>
  </outline>
</glyph>
<glyph name="g" format="2">
  <advance width="584"/>
  <unicode hex="0067"/>
  <outline>
    <contour>
      <point x="204" y="-164" type="curve" smooth="yes"/>
      <point x="277" y="-164"/>
      <point x="336" y="-146"/>
      <point x="381" y="-110" type="curve" smooth="yes"/>
      <point x="425" y="-75"/>
      <point x="454" y="-25"/>
      <point x="467" y="40" type="curve" smooth="yes"/>
      <point x="570" y="525" type="line"/>
      <point x="483" y="525" type="line"/>
      <point x="468" y="453" type="line"/>
      <point x="453" y="480"/>
      <point x="432" y="500"/>
      <point x="405" y="514" type="curve" smooth="yes"/>
      <point x="377" y="528"/>
      <point x="345" y="535"/>
      <point x="308" y="535" type="curve" smooth="yes"/>
      <point x="246" y="535"/>
      <point x="194" y="517"/>
      <point x="152" y="480" type="curve" smooth="yes"/>
      <point x="110" y="443"/>
      <point x="82" y="387"/>
      <point x="67" y="312" type="curve" smooth="yes"/>
      <point x="57" y="269" type="line" smooth="yes"/>
      <point x="52" y="246"/>
      <point x="50" y="223"/>
      <point x="50" y="200" type="curve" smooth="yes"/>
      <point x="50" y="143"/>
      <point x="66" y="100"/>
      <point x="99" y="69" type="curve" smooth="yes"/>
      <point x="132" y="38"/>
      <point x="175" y="22"/>
      <point x="230" y="22" type="curve" smooth="yes"/>
      <point x="298" y="21"/>
      <point x="352" y="46"/>
      <point x="391" y="95" type="curve"/>
      <point x="379" y="37" type="line" smooth="yes"/>
      <point x="370" y="-7"/>
      <point x="352" y="-39"/>
      <point x="326" y="-60" type="curve" smooth="yes"/>
      <point x="299" y="-81"/>
      <point x="262" y="-91"/>
      <point x="215" y="-91" type="curve" smooth="yes"/>
      <point x="174" y="-91"/>
      <point x="144" y="-85"/>
      <point x="124" y="-72" type="curve" smooth="yes"/>
      <point x="104" y="-59"/>
      <point x="93" y="-41"/>
      <point x="92" y="-16" type="curve"/>
      <point x="6" y="-16" type="line"/>
      <point x="6" y="-65"/>
      <point x="23" y="-101"/>
      <point x="57" y="-126" type="curve" smooth="yes"/>
      <point x="91" y="-151"/>
      <point x="140" y="-164"/>
    </contour>
    <contour>
      <point x="171" y="128" type="curve" smooth="yes"/>
      <point x="149" y="147"/>
      <point x="138" y="176"/>
      <point x="138" y="214" type="curve" smooth="yes"/>
      <point x="138" y="231"/>
      <point x="140" y="249"/>
      <point x="144" y="268" type="curve" smooth="yes"/>
      <point x="153" y="307" type="line" smooth="yes"/>
      <point x="164" y="360"/>
      <point x="184" y="399"/>
      <point x="211" y="422" type="curve" smooth="yes"/>
      <point x="238" y="445"/>
      <point x="271" y="457"/>
      <point x="311" y="457" type="curve" smooth="yes"/>
      <point x="350" y="457"/>
      <point x="381" y="446"/>
      <point x="404" y="425" type="curve" smooth="yes"/>
      <point x="426" y="404"/>
      <point x="437" y="375"/>
      <point x="437" y="338" type="curve" smooth="yes"/>
      <point x="437" y="319"/>
      <point x="435" y="301"/>
      <point x="431" y="285" type="curve" smooth="yes"/>
      <point x="424" y="250" type="line" smooth="yes"/>
      <point x="414" y="204"/>
      <point x="395" y="167"/>
      <point x="367" y="140" type="curve" smooth="yes"/>
      <point x="338" y="113"/>
      <point x="302" y="99"/>
      <point x="257" y="99" type="curve" smooth="yes"/>
      <point x="222" y="99"/>
      <point x="193" y="109"/>
    </contour>
  </outline>
</glyph>
<glyph name="i" format="2">
  <advance width="244"/>
  <unicode hex="0069"/>
  <outline>
    <contour>
      <point x="152" y="611" type="line"/>
      <point x="242" y="611" type="line"/>
      <point x="262" y="707" type="line"/>
      <point x="172" y="707" type="line"/>
    </contour>
    <contour>
      <point x="26" y="0" type="line"/>
      <point x="112" y="0" type="line"/>
      <point x="222" y="523" type="line"/>
      <point x="136" y="523" type="line"/>
    </contour>
  </outline>
</glyph>
<glyph name="j" format="2">
  <advance width="243"/>
  <unicode hex="006A"/>
  <outline>
    <contour>
      <point x="-123" y="-80" type="line"/>
      <point x="-76" y="-80" type="line" smooth="yes"/>
      <point x="-47" y="-80"/>
      <point x="-24" y="-74"/>
      <point x="-9" y="-61" type="curve" smooth="yes"/>
      <point x="6" y="-48"/>
      <point x="17" y="-27"/>
      <point x="24" y="3" type="curve" smooth="yes"/>
      <point x="134" y="523" type="line"/>
      <point x="221" y="523" type="line"/>
      <point x="109" y="-3" type="line" smooth="yes"/>
      <point x="98" y="-55"/>
      <point x="77" y="-94"/>
      <point x="46" y="-119" type="curve" smooth="yes"/>
      <point x="15" y="-144"/>
      <point x="-27" y="-157"/>
      <point x="-80" y="-157" type="curve" smooth="yes"/>
      <point x="-139" y="-157" type="line"/>
    </contour>
    <contour>
      <point x="171" y="712" type="line"/>
      <point x="261" y="712" type="line"/>
      <point x="241" y="616" type="line"/>
      <point x="151" y="616" type="line"/>
    </contour>
  </outline>
</glyph>
<glyph name="k" format="2">
  <advance width="566"/>
  <unicode hex="006B"/>
  <outline>
    <contour>
      <point x="14" y="0" type="line"/>
      <point x="101" y="0" type="line"/>
      <point x="134" y="154" type="line"/>
      <point x="267" y="264" type="line"/>
      <point x="393" y="0" type="line"/>
      <point x="493" y="0" type="line"/>
      <point x="333" y="318" type="line"/>
      <point x="580" y="523" type="line"/>
      <point x="461" y="523" type="line"/>
      <point x="158" y="266" type="line"/>
      <point x="252" y="707" type="line"/>
      <point x="165" y="707" type="line"/>
    </contour>
  </outline>
</glyph>
<glyph name="l" format="2">
  <advance width="309"/>
  <unicode hex="006C"/>
  <outline>
    <contour>
      <point x="41" y="101" type="curve" smooth="yes"/>
      <point x="41" y="118"/>
      <point x="43" y="137"/>
      <point x="48" y="159" type="curve" smooth="yes"/>
      <point x="165" y="707" type="line"/>
      <point x="252" y="707" type="line"/>
      <point x="136" y="164" type="line" smooth="yes"/>
      <point x="133" y="149"/>
      <point x="131" y="137"/>
      <point x="131" y="126" type="curve" smooth="yes"/>
      <point x="131" y="109"/>
      <point x="136" y="96"/>
      <point x="147" y="89" type="curve" smooth="yes"/>
      <point x="158" y="82"/>
      <point x="175" y="78"/>
      <point x="199" y="78" type="curve" smooth="yes"/>
      <point x="246" y="78" type="line"/>
      <point x="230" y="0" type="line"/>
      <point x="170" y="0" type="line" smooth="yes"/>
      <point x="126" y="0"/>
      <point x="94" y="8"/>
      <point x="73" y="25" type="curve" smooth="yes"/>
      <point x="52" y="42"/>
      <point x="41" y="67"/>
    </contour>
  </outline>
</glyph>
<glyph name="m" format="2">
  <advance width="928"/>
  <unicode hex="006D"/>
  <outline>
    <contour>
      <point x="126" y="523" type="line"/>
      <point x="212" y="523" type="line"/>
      <point x="197" y="455" type="line"/>
      <point x="219" y="479"/>
      <point x="244" y="497"/>
      <point x="273" y="510" type="curve" smooth="yes"/>
      <point x="302" y="523"/>
      <point x="333" y="529"/>
      <point x="367" y="529" type="curve" smooth="yes"/>
      <point x="405" y="529"/>
      <point x="437" y="521"/>
      <point x="463" y="505" type="curve" smooth="yes"/>
      <point x="489" y="488"/>
      <point x="507" y="465"/>
      <point x="516" y="436" type="curve"/>
      <point x="545" y="469"/>
      <point x="575" y="493"/>
      <point x="606" y="508" type="curve" smooth="yes"/>
      <point x="637" y="522"/>
      <point x="672" y="529"/>
      <point x="711" y="529" type="curve" smooth="yes"/>
      <point x="764" y="529"/>
      <point x="805" y="516"/>
      <point x="834" y="490" type="curve" smooth="yes"/>
      <point x="863" y="463"/>
      <point x="878" y="426"/>
      <point x="878" y="379" type="curve" smooth="yes"/>
      <point x="878" y="361"/>
      <point x="875" y="338"/>
      <point x="869" y="311" type="curve" smooth="yes"/>
      <point x="802" y="0" type="line"/>
      <point x="715" y="0" type="line"/>
      <point x="779" y="299" type="line" smooth="yes"/>
      <point x="784" y="322"/>
      <point x="786" y="341"/>
      <point x="786" y="356" type="curve" smooth="yes"/>
      <point x="786" y="387"/>
      <point x="777" y="410"/>
      <point x="759" y="427" type="curve" smooth="yes"/>
      <point x="741" y="444"/>
      <point x="716" y="452"/>
      <point x="684" y="452" type="curve" smooth="yes"/>
      <point x="639" y="452"/>
      <point x="603" y="439"/>
      <point x="574" y="412" type="curve" smooth="yes"/>
      <point x="545" y="385"/>
      <point x="526" y="346"/>
      <point x="515" y="296" type="curve" smooth="yes"/>
      <point x="453" y="0" type="line"/>
      <point x="365" y="0" type="line"/>
      <point x="428" y="299" type="line" smooth="yes"/>
      <point x="433" y="324"/>
      <point x="436" y="343"/>
      <point x="436" y="356" type="curve" smooth="yes"/>
      <point x="436" y="387"/>
      <point x="427" y="410"/>
      <point x="409" y="427" type="curve" smooth="yes"/>
      <point x="391" y="444"/>
      <point x="366" y="452"/>
      <point x="334" y="452" type="curve" smooth="yes"/>
      <point x="291" y="452"/>
      <point x="254" y="438"/>
      <point x="225" y="411" type="curve" smooth="yes"/>
      <point x="196" y="384"/>
      <point x="176" y="345"/>
      <point x="165" y="294" type="curve" smooth="yes"/>
      <point x="102" y="0" type="line"/>
      <point x="15" y="0" type="line"/>
    </contour>
  </outline>
</glyph>
<glyph name="n" format="2">
  <advance width="584"/>
  <unicode hex="006E"/>
  <outline>
    <contour>
      <point x="126" y="523" type="line"/>
      <point x="212" y="523" type="line"/>
      <point x="197" y="455" type="line"/>
      <point x="242" y="505"/>
      <point x="299" y="530"/>
      <point x="370" y="529" type="curve" smooth="yes"/>
      <point x="422" y="529"/>
      <point x="463" y="516"/>
      <point x="492" y="490" type="curve" smooth="yes"/>
      <point x="521" y="463"/>
      <point x="535" y="426"/>
      <point x="535" y="379" type="curve" smooth="yes"/>
      <point x="535" y="360"/>
      <point x="532" y="338"/>
      <point x="525" y="311" type="curve" smooth="yes"/>
      <point x="459" y="0" type="line"/>
      <point x="372" y="0" type="line"/>
      <point x="435" y="299" type="line" smooth="yes"/>
      <point x="440" y="324"/>
      <point x="443" y="344"/>
      <point x="443" y="357" type="curve" smooth="yes"/>
      <point x="443" y="388"/>
      <point x="434" y="411"/>
      <point x="416" y="428" type="curve" smooth="yes"/>
      <point x="397" y="444"/>
      <point x="371" y="452"/>
      <point x="337" y="452" type="curve" smooth="yes"/>
      <point x="292" y="452"/>
      <point x="255" y="438"/>
      <point x="226" y="411" type="curve" smooth="yes"/>
      <point x="196" y="384"/>
      <point x="176" y="345"/>
      <point x="165" y="294" type="curve" smooth="yes"/>
      <point x="102" y="0" type="line"/>
      <point x="15" y="0" type="line"/>
    </contour>
  </outline>
</glyph>
<glyph name="o" format="2">
  <advance width="577"/>
  <unicode hex="006F"/>
  <outline>
    <contour>
      <point x="254" y="-9" type="curve" smooth="yes"/>
      <point x="321" y="-9"/>
      <point x="377" y="10"/>
      <point x="422" y="47" type="curve" smooth="yes"/>
      <point x="467" y="84"/>
      <point x="497" y="141"/>
      <point x="512" y="216" type="curve" smooth="yes"/>
      <point x="525" y="280" type="line" smooth="yes"/>
      <point x="531" y="305"/>
      <point x="534" y="328"/>
      <point x="534" y="349" type="curve" smooth="yes"/>
      <point x="534" y="410"/>
      <point x="515" y="455"/>
      <point x="477" y="486" type="curve" smooth="yes"/>
      <point x="438" y="517"/>
      <point x="388" y="532"/>
      <point x="325" y="532" type="curve" smooth="yes"/>
      <point x="256" y="532"/>
      <point x="200" y="513"/>
      <point x="156" y="476" type="curve" smooth="yes"/>
      <point x="111" y="439"/>
      <point x="81" y="383"/>
      <point x="65" y="308" type="curve" smooth="yes"/>
      <point x="52" y="245" type="line" smooth="yes"/>
      <point x="47" y="221"/>
      <point x="45" y="198"/>
      <point x="45" y="175" type="curve" smooth="yes"/>
      <point x="45" y="114"/>
      <point x="64" y="69"/>
      <point x="103" y="38" type="curve" smooth="yes"/>
      <point x="141" y="7"/>
      <point x="191" y="-9"/>
    </contour>
    <contour>
      <point x="167" y="97" type="curve" smooth="yes"/>
      <point x="144" y="116"/>
      <point x="132" y="145"/>
      <point x="132" y="185" type="curve" smooth="yes"/>
      <point x="132" y="202"/>
      <point x="134" y="221"/>
      <point x="138" y="242" type="curve" smooth="yes"/>
      <point x="151" y="300" type="line" smooth="yes"/>
      <point x="162" y="355"/>
      <point x="182" y="395"/>
      <point x="210" y="419" type="curve" smooth="yes"/>
      <point x="237" y="443"/>
      <point x="273" y="455"/>
      <point x="317" y="455" type="curve" smooth="yes"/>
      <point x="357" y="455"/>
      <point x="388" y="446"/>
      <point x="411" y="427" type="curve" smooth="yes"/>
      <point x="433" y="408"/>
      <point x="444" y="379"/>
      <point x="444" y="339" type="curve" smooth="yes"/>
      <point x="444" y="319"/>
      <point x="442" y="300"/>
      <point x="438" y="282" type="curve" smooth="yes"/>
      <point x="426" y="224" type="line" smooth="yes"/>
      <point x="415" y="169"/>
      <point x="395" y="129"/>
      <point x="368" y="105" type="curve" smooth="yes"/>
      <point x="341" y="81"/>
      <point x="305" y="69"/>
      <point x="262" y="69" type="curve" smooth="yes"/>
      <point x="222" y="69"/>
      <point x="190" y="78"/>
    </contour>
  </outline>
</glyph>
<glyph name="p" format="2">
  <advance width="584"/>
  <unicode hex="0070"/>
  <outline>
    <contour>
      <point x="-19" y="-160" type="line"/>
      <point x="68" y="-160" type="line"/>
      <point x="118" y="74" type="line"/>
      <point x="150" y="19"/>
      <point x="203" y="-9"/>
      <point x="276" y="-9" type="curve" smooth="yes"/>
      <point x="339" y="-9"/>
      <point x="391" y="10"/>
      <point x="433" y="48" type="curve" smooth="yes"/>
      <point x="475" y="85"/>
      <point x="504" y="141"/>
      <point x="520" y="216" type="curve" smooth="yes"/>
      <point x="534" y="282" type="line" smooth="yes"/>
      <point x="539" y="305"/>
      <point x="541" y="328"/>
      <point x="541" y="351" type="curve" smooth="yes"/>
      <point x="541" y="410"/>
      <point x="524" y="455"/>
      <point x="491" y="486" type="curve" smooth="yes"/>
      <point x="458" y="517"/>
      <point x="414" y="532"/>
      <point x="359" y="532" type="curve" smooth="yes"/>
      <point x="297" y="533"/>
      <point x="244" y="508"/>
      <point x="199" y="459" type="curve"/>
      <point x="213" y="523" type="line"/>
      <point x="126" y="523" type="line"/>
    </contour>
    <contour>
      <point x="272" y="69" type="curve" smooth="yes"/>
      <point x="233" y="69"/>
      <point x="203" y="80"/>
      <point x="181" y="102" type="curve" smooth="yes"/>
      <point x="158" y="123"/>
      <point x="147" y="153"/>
      <point x="147" y="190" type="curve" smooth="yes"/>
      <point x="148" y="207"/>
      <point x="150" y="223"/>
      <point x="153" y="238" type="curve" smooth="yes"/>
      <point x="165" y="298" type="line" smooth="yes"/>
      <point x="175" y="345"/>
      <point x="195" y="383"/>
      <point x="224" y="412" type="curve" smooth="yes"/>
      <point x="253" y="441"/>
      <point x="290" y="455"/>
      <point x="334" y="455" type="curve" smooth="yes"/>
      <point x="369" y="455"/>
      <point x="397" y="445"/>
      <point x="419" y="425" type="curve" smooth="yes"/>
      <point x="441" y="405"/>
      <point x="452" y="375"/>
      <point x="452" y="336" type="curve" smooth="yes"/>
      <point x="451" y="320"/>
      <point x="449" y="302"/>
      <point x="445" y="281" type="curve" smooth="yes"/>
      <point x="433" y="222" type="line" smooth="yes"/>
      <point x="411" y="119"/>
      <point x="357" y="68"/>
    </contour>
  </outline>
</glyph>
<glyph name="q" format="2">
  <advance width="583"/>
  <unicode hex="0071"/>
  <outline>
    <contour>
      <point x="384" y="65" type="line"/>
      <point x="344" y="16"/>
      <point x="291" y="-9"/>
      <point x="224" y="-9" type="curve" smooth="yes"/>
      <point x="170" y="-9"/>
      <point x="127" y="7"/>
      <point x="94" y="38" type="curve" smooth="yes"/>
      <point x="61" y="69"/>
      <point x="44" y="115"/>
      <point x="44" y="174" type="curve" smooth="yes"/>
      <point x="44" y="197"/>
      <point x="46" y="221"/>
      <point x="51" y="245" type="curve" smooth="yes"/>
      <point x="65" y="308" type="line" smooth="yes"/>
      <point x="81" y="383"/>
      <point x="110" y="440"/>
      <point x="152" y="477" type="curve" smooth="yes"/>
      <point x="194" y="514"/>
      <point x="246" y="532"/>
      <point x="307" y="532" type="curve" smooth="yes"/>
      <point x="344" y="532"/>
      <point x="377" y="525"/>
      <point x="404" y="512" type="curve" smooth="yes"/>
      <point x="431" y="499"/>
      <point x="452" y="478"/>
      <point x="467" y="451" type="curve"/>
      <point x="482" y="523" type="line"/>
      <point x="568" y="523" type="line"/>
      <point x="424" y="-160" type="line"/>
      <point x="337" y="-160" type="line"/>
    </contour>
    <contour>
      <point x="418" y="224" type="curve" smooth="yes"/>
      <point x="430" y="279" type="line" smooth="yes"/>
      <point x="433" y="296"/>
      <point x="435" y="313"/>
      <point x="435" y="332" type="curve" smooth="yes"/>
      <point x="435" y="370"/>
      <point x="424" y="400"/>
      <point x="402" y="422" type="curve" smooth="yes"/>
      <point x="379" y="444"/>
      <point x="348" y="455"/>
      <point x="309" y="455" type="curve" smooth="yes"/>
      <point x="226" y="455"/>
      <point x="174" y="404"/>
      <point x="152" y="302" type="curve" smooth="yes"/>
      <point x="138" y="244" type="line" smooth="yes"/>
      <point x="135" y="227"/>
      <point x="133" y="207"/>
      <point x="133" y="186" type="curve" smooth="yes"/>
      <point x="133" y="147"/>
      <point x="144" y="117"/>
      <point x="165" y="98" type="curve" smooth="yes"/>
      <point x="186" y="79"/>
      <point x="215" y="69"/>
      <point x="250" y="69" type="curve" smooth="yes"/>
      <point x="295" y="69"/>
      <point x="331" y="83"/>
      <point x="359" y="111" type="curve" smooth="yes"/>
      <point x="387" y="138"/>
      <point x="407" y="176"/>
    </contour>
  </outline>
</glyph>
<glyph name="r" format="2">
  <advance width="386"/>
  <unicode hex="0072"/>
  <outline>
    <contour>
      <point x="15" y="0" type="line"/>
      <point x="102" y="0" type="line"/>
      <point x="165" y="296" type="line" smooth="yes"/>
      <point x="176" y="346"/>
      <point x="196" y="385"/>
      <point x="227" y="412" type="curve" smooth="yes"/>
      <point x="258" y="439"/>
      <point x="295" y="453"/>
      <point x="339" y="453" type="curve" smooth="yes"/>
      <point x="362" y="452"/>
      <point x="383" y="449"/>
      <point x="400" y="443" type="curve"/>
      <point x="419" y="528" type="line"/>
      <point x="406" y="530"/>
      <point x="390" y="531"/>
      <point x="373" y="531" type="curve" smooth="yes"/>
      <point x="300" y="532"/>
      <point x="241" y="505"/>
      <point x="196" y="452" type="curve"/>
      <point x="212" y="523" type="line"/>
      <point x="126" y="523" type="line"/>
    </contour>
  </outline>
</glyph>
<glyph name="t" format="2">
  <advance width="400"/>
  <unicode hex="0074"/>
  <outline>
    <contour>
      <point x="224" y="0" type="curve" smooth="yes"/>
      <point x="284" y="0" type="line"/>
      <point x="300" y="76" type="line"/>
      <point x="252" y="76" type="line" smooth="yes"/>
      <point x="231" y="76"/>
      <point x="215" y="80"/>
      <point x="205" y="87" type="curve" smooth="yes"/>
      <point x="195" y="94"/>
      <point x="190" y="106"/>
      <point x="190" y="122" type="curve" smooth="yes"/>
      <point x="191" y="135"/>
      <point x="193" y="148"/>
      <point x="196" y="163" type="curve" smooth="yes"/>
      <point x="258" y="458" type="line"/>
      <point x="392" y="458" type="line"/>
      <point x="406" y="523" type="line"/>
      <point x="272" y="523" type="line"/>
      <point x="304" y="674" type="line"/>
      <point x="210" y="638" type="line"/>
      <point x="185" y="523" type="line"/>
      <point x="91" y="523" type="line"/>
      <point x="78" y="458" type="line"/>
      <point x="171" y="458" type="line"/>
      <point x="108" y="159" type="line" smooth="yes"/>
      <point x="103" y="134"/>
      <point x="100" y="114"/>
      <point x="100" y="101" type="curve" smooth="yes"/>
      <point x="100" y="68"/>
      <point x="111" y="43"/>
      <point x="132" y="26" type="curve" smooth="yes"/>
      <point x="153" y="9"/>
      <point x="183" y="0"/>
    </contour>
  </outline>
</glyph>
<glyph name="u" format="2">
  <advance width="584"/>
  <unicode hex="0075"/>
  <outline>
    <contour>
      <point x="54" y="154" type="curve" smooth="yes"/>
      <point x="54" y="175"/>
      <point x="56" y="197"/>
      <point x="61" y="220" type="curve" smooth="yes"/>
      <point x="126" y="523" type="line"/>
      <point x="213" y="523" type="line"/>
      <point x="150" y="223" type="line" smooth="yes"/>
      <point x="145" y="197"/>
      <point x="142" y="178"/>
      <point x="141" y="165" type="curve" smooth="yes"/>
      <point x="141" y="102"/>
      <point x="179" y="70"/>
      <point x="256" y="70" type="curve" smooth="yes"/>
      <point x="303" y="70"/>
      <point x="339" y="81"/>
      <point x="364" y="104" type="curve" smooth="yes"/>
      <point x="389" y="127"/>
      <point x="406" y="163"/>
      <point x="417" y="212" type="curve" smooth="yes"/>
      <point x="483" y="523" type="line"/>
      <point x="570" y="523" type="line"/>
      <point x="503" y="207" type="line" smooth="yes"/>
      <point x="473" y="64"/>
      <point x="388" y="-8"/>
      <point x="249" y="-8" type="curve" smooth="yes"/>
      <point x="187" y="-8"/>
      <point x="139" y="6"/>
      <point x="105" y="34" type="curve" smooth="yes"/>
      <point x="71" y="62"/>
      <point x="54" y="102"/>
    </contour>
  </outline>
</glyph>
<glyph name="v" format="2">
  <advance width="519"/>
  <unicode hex="0076"/>
  <outline>
    <contour>
      <point x="165" y="0" type="line"/>
      <point x="243" y="0" type="line"/>
      <point x="562" y="523" type="line"/>
      <point x="465" y="523" type="line"/>
      <point x="225" y="110" type="line"/>
      <point x="160" y="523" type="line"/>
      <point x="69" y="523" type="line"/>
    </contour>
  </outline>
</glyph>
<glyph name="w" format="2">
  <advance width="828"/>
  <unicode hex="0077"/>
  <outline>
    <contour>
      <point x="138" y="0" type="line"/>
      <point x="218" y="0" type="line"/>
      <point x="444" y="407" type="line"/>
      <point x="499" y="0" type="line"/>
      <point x="579" y="0" type="line"/>
      <point x="871" y="523" type="line"/>
      <point x="776" y="523" type="line"/>
      <point x="560" y="114" type="line"/>
      <point x="504" y="523" type="line"/>
      <point x="431" y="523" type="line"/>
      <point x="203" y="114" type="line"/>
      <point x="159" y="523" type="line"/>
      <point x="69" y="523" type="line"/>
    </contour>
  </outline>
</glyph>
<glyph name="y" format="2">
  <advance width="520"/>
  <unicode hex="0079"/>
  <outline>
    <contour>
      <point x="-9" y="-157" type="line"/>
      <point x="35" y="-157" type="line" smooth="yes"/>
      <point x="76" y="-157"/>
      <point x="112" y="-149"/>
      <point x="141" y="-132" type="curve" smooth="yes"/>
      <point x="170" y="-116"/>
      <point x="194" y="-91"/>
      <point x="214" y="-57" type="curve" smooth="yes"/>
      <point x="563" y="523" type="line"/>
      <point x="467" y="523" type="line"/>
      <point x="231" y="113" type="line"/>
      <point x="161" y="523" type="line"/>
      <point x="69" y="523" type="line"/>
      <point x="171" y="7" type="line"/>
      <point x="156" y="-19" type="line" smooth="yes"/>
      <point x="143" y="-41"/>
      <point x="129" y="-56"/>
      <point x="114" y="-65" type="curve" smooth="yes"/>
      <point x="98" y="-74"/>
      <point x="76" y="-78"/>
      <point x="47" y="-78" type="curve" smooth="yes"/>
      <point x="7" y="-78" type="line"/>
    </contour>
  </outline>
</glyph>
<glyph name="braceleft" format="2">
  <advance width="388"/>
  <unicode hex="007B"/>
  <outline>
    <contour>
      <point x="90" y="-6" type="curve" smooth="yes"/>
      <point x="90" y="3"/>
      <point x="92" y="17"/>
      <point x="95" y="38" type="curve" smooth="yes"/>
      <point x="133" y="216" type="line" smooth="yes"/>
      <point x="135" y="228"/>
      <point x="136" y="239"/>
      <point x="136" y="248" type="curve" smooth="yes"/>
      <point x="136" y="266"/>
      <point x="130" y="279"/>
      <point x="119" y="287" type="curve" smooth="yes"/>
      <point x="108" y="294"/>
      <point x="89" y="298"/>
      <point x="62" y="299" type="curve"/>
      <point x="80" y="378" type="line"/>
      <point x="113" y="379"/>
      <point x="137" y="385"/>
      <point x="153" y="398" type="curve" smooth="yes"/>
      <point x="168" y="411"/>
      <point x="179" y="432"/>
      <point x="185" y="461" type="curve" smooth="yes"/>
      <point x="223" y="638" type="line" smooth="yes"/>
      <point x="232" y="679"/>
      <point x="248" y="709"/>
      <point x="272" y="729" type="curve" smooth="yes"/>
      <point x="296" y="748"/>
      <point x="329" y="758"/>
      <point x="370" y="758" type="curve" smooth="yes"/>
      <point x="438" y="758" type="line"/>
      <point x="422" y="683" type="line"/>
      <point x="377" y="683" type="line" smooth="yes"/>
      <point x="356" y="683"/>
      <point x="341" y="679"/>
      <point x="330" y="671" type="curve" smooth="yes"/>
      <point x="319" y="662"/>
      <point x="312" y="649"/>
      <point x="308" y="630" type="curve" smooth="yes"/>
      <point x="272" y="462" type="line" smooth="yes"/>
      <point x="264" y="425"/>
      <point x="253" y="397"/>
      <point x="240" y="379" type="curve" smooth="yes"/>
      <point x="226" y="360"/>
      <point x="206" y="347"/>
      <point x="181" y="338" type="curve"/>
      <point x="197" y="332"/>
      <point x="209" y="324"/>
      <point x="216" y="313" type="curve" smooth="yes"/>
      <point x="223" y="302"/>
      <point x="226" y="288"/>
      <point x="226" y="270" type="curve" smooth="yes"/>
      <point x="226" y="253"/>
      <point x="224" y="235"/>
      <point x="219" y="214" type="curve" smooth="yes"/>
      <point x="184" y="50" type="line" smooth="yes"/>
      <point x="181" y="37"/>
      <point x="180" y="28"/>
      <point x="180" y="22" type="curve" smooth="yes"/>
      <point x="180" y="11"/>
      <point x="184" y="2"/>
      <point x="193" y="-3" type="curve" smooth="yes"/>
      <point x="201" y="-8"/>
      <point x="214" y="-11"/>
      <point x="232" y="-11" type="curve" smooth="yes"/>
      <point x="274" y="-11" type="line"/>
      <point x="259" y="-86" type="line"/>
      <point x="195" y="-86" type="line" smooth="yes"/>
      <point x="125" y="-86"/>
      <point x="90" y="-59"/>
    </contour>
  </outline>
</glyph>
<glyph name="bar" format="2">
  <advance width="482"/>
  <unicode hex="007C"/>
  <outline>
    <contour>
      <point x="215" y="-85" type="line"/>
      <point x="299" y="-85" type="line"/>
      <point x="299" y="758" type="line"/>
      <point x="215" y="758" type="line"/>
    </contour>
  </outline>
</glyph>
<glyph name="braceright" format="2">
  <advance width="498"/>
  <unicode hex="007D"/>
  <outline>
    <contour>
      <point x="36" y="-86" type="line"/>
      <point x="105" y="-86" type="line" smooth="yes"/>
      <point x="146" y="-86"/>
      <point x="179" y="-76"/>
      <point x="203" y="-56" type="curve" smooth="yes"/>
      <point x="227" y="-37"/>
      <point x="243" y="-7"/>
      <point x="252" y="34" type="curve" smooth="yes"/>
      <point x="290" y="215" type="line" smooth="yes"/>
      <point x="296" y="244"/>
      <point x="307" y="265"/>
      <point x="323" y="278" type="curve" smooth="yes"/>
      <point x="338" y="291"/>
      <point x="362" y="297"/>
      <point x="395" y="298" type="curve"/>
      <point x="414" y="377" type="line"/>
      <point x="387" y="378"/>
      <point x="368" y="382"/>
      <point x="357" y="390" type="curve" smooth="yes"/>
      <point x="345" y="397"/>
      <point x="339" y="410"/>
      <point x="339" y="428" type="curve" smooth="yes"/>
      <point x="339" y="439"/>
      <point x="340" y="449"/>
      <point x="343" y="460" type="curve" smooth="yes"/>
      <point x="380" y="634" type="line" smooth="yes"/>
      <point x="383" y="650"/>
      <point x="385" y="664"/>
      <point x="385" y="677" type="curve" smooth="yes"/>
      <point x="385" y="731"/>
      <point x="350" y="758"/>
      <point x="281" y="758" type="curve" smooth="yes"/>
      <point x="216" y="758" type="line"/>
      <point x="200" y="683" type="line"/>
      <point x="243" y="683" type="line" smooth="yes"/>
      <point x="260" y="683"/>
      <point x="273" y="680"/>
      <point x="282" y="675" type="curve" smooth="yes"/>
      <point x="290" y="670"/>
      <point x="294" y="661"/>
      <point x="294" y="650" type="curve" smooth="yes"/>
      <point x="294" y="641"/>
      <point x="293" y="632"/>
      <point x="291" y="622" type="curve" smooth="yes"/>
      <point x="256" y="461" type="line" smooth="yes"/>
      <point x="251" y="442"/>
      <point x="249" y="423"/>
      <point x="249" y="406" type="curve" smooth="yes"/>
      <point x="249" y="387"/>
      <point x="253" y="373"/>
      <point x="260" y="362" type="curve" smooth="yes"/>
      <point x="267" y="351"/>
      <point x="278" y="343"/>
      <point x="293" y="337" type="curve"/>
      <point x="268" y="328"/>
      <point x="248" y="315"/>
      <point x="235" y="297" type="curve" smooth="yes"/>
      <point x="222" y="279"/>
      <point x="211" y="251"/>
      <point x="203" y="213" type="curve" smooth="yes"/>
      <point x="167" y="42" type="line" smooth="yes"/>
      <point x="162" y="22"/>
      <point x="155" y="8"/>
      <point x="145" y="1" type="curve" smooth="yes"/>
      <point x="134" y="-7"/>
      <point x="118" y="-11"/>
      <point x="97" y="-11" type="curve" smooth="yes"/>
      <point x="52" y="-11" type="line"/>
    </contour>
  </outline>
</glyph>
<glyph name="asciitilde" format="2">
  <advance width="527"/>
  <unicode hex="007E"/>
  <outline>
    <contour>
      <point x="349" y="212" type="curve" smooth="yes"/>
      <point x="378" y="212"/>
      <point x="404" y="221"/>
      <point x="427" y="238" type="curve" smooth="yes"/>
      <point x="450" y="255"/>
      <point x="470" y="279"/>
      <point x="485" y="312" type="curve"/>
      <point x="426" y="349" type="line"/>
      <point x="414" y="327"/>
      <point x="402" y="312"/>
      <point x="391" y="303" type="curve" smooth="yes"/>
      <point x="379" y="294"/>
      <point x="365" y="290"/>
      <point x="349" y="290" type="curve" smooth="yes"/>
      <point x="338" y="290"/>
      <point x="327" y="292"/>
      <point x="318" y="297" type="curve" smooth="yes"/>
      <point x="308" y="301"/>
      <point x="295" y="308"/>
      <point x="279" y="317" type="curve" smooth="yes"/>
      <point x="260" y="329"/>
      <point x="244" y="338"/>
      <point x="230" y="344" type="curve" smooth="yes"/>
      <point x="216" y="349"/>
      <point x="200" y="352"/>
      <point x="183" y="352" type="curve" smooth="yes"/>
      <point x="154" y="352"/>
      <point x="129" y="344"/>
      <point x="106" y="327" type="curve" smooth="yes"/>
      <point x="83" y="310"/>
      <point x="63" y="285"/>
      <point x="48" y="252" type="curve"/>
      <point x="108" y="215" type="line"/>
      <point x="121" y="238"/>
      <point x="133" y="253"/>
      <point x="144" y="262" type="curve" smooth="yes"/>
      <point x="155" y="271"/>
      <point x="168" y="275"/>
      <point x="184" y="275" type="curve" smooth="yes"/>
      <point x="195" y="275"/>
      <point x="206" y="273"/>
      <point x="216" y="269" type="curve" smooth="yes"/>
      <point x="225" y="264"/>
      <point x="238" y="257"/>
      <point x="254" y="248" type="curve" smooth="yes"/>
      <point x="272" y="236"/>
      <point x="288" y="227"/>
      <point x="303" y="221" type="curve" smooth="yes"/>
      <point x="317" y="215"/>
      <point x="332" y="212"/>
    </contour>
  </outline>
</glyph>
<glyph name="sterling" format="2">
  <advance width="505"/>
  <unicode hex="00A3"/>
  <outline>
    <contour>
      <point x="-2" y="0" type="line"/>
      <point x="420" y="0" type="line"/>
      <point x="437" y="84" type="line"/>
      <point x="124" y="84" type="line"/>
      <point x="154" y="107"/>
      <point x="174" y="142"/>
      <point x="184" y="190" type="curve" smooth="yes"/>
      <point x="206" y="293" type="line"/>
      <point x="376" y="293" type="line"/>
      <point x="393" y="375" type="line"/>
      <point x="223" y="375" type="line"/>
      <point x="256" y="531" type="line" smooth="yes"/>
      <point x="271" y="600"/>
      <point x="308" y="634"/>
      <point x="369" y="634" type="curve" smooth="yes"/>
      <point x="394" y="634"/>
      <point x="413" y="629"/>
      <point x="426" y="619" type="curve" smooth="yes"/>
      <point x="439" y="608"/>
      <point x="446" y="593"/>
      <point x="446" y="574" type="curve" smooth="yes"/>
      <point x="446" y="566"/>
      <point x="445" y="558"/>
      <point x="443" y="550" type="curve"/>
      <point x="532" y="550" type="line"/>
      <point x="536" y="563"/>
      <point x="538" y="577"/>
      <point x="538" y="593" type="curve" smooth="yes"/>
      <point x="538" y="632"/>
      <point x="524" y="663"/>
      <point x="497" y="685" type="curve" smooth="yes"/>
      <point x="469" y="706"/>
      <point x="431" y="717"/>
      <point x="382" y="717" type="curve" smooth="yes"/>
      <point x="323" y="717"/>
      <point x="274" y="700"/>
      <point x="237" y="667" type="curve" smooth="yes"/>
      <point x="200" y="633"/>
      <point x="174" y="585"/>
      <point x="161" y="523" type="curve" smooth="yes"/>
      <point x="129" y="375" type="line"/>
      <point x="55" y="375" type="line"/>
      <point x="38" y="293" type="line"/>
      <point x="112" y="293" type="line"/>
      <point x="88" y="180" type="line" smooth="yes"/>
      <point x="83" y="153"/>
      <point x="74" y="131"/>
      <point x="63" y="115" type="curve" smooth="yes"/>
      <point x="52" y="99"/>
      <point x="36" y="87"/>
      <point x="15" y="78" type="curve"/>
    </contour>
  </outline>
</glyph>
<glyph name="currency" format="2">
  <advance width="625"/>
  <unicode hex="00A4"/>
  <outline>
    <contour>
      <point x="466" y="89" type="line"/>
      <point x="530" y="144" type="line"/>
      <point x="475" y="213" type="line"/>
      <point x="494" y="234"/>
      <point x="509" y="259"/>
      <point x="520" y="288" type="curve" smooth="yes"/>
      <point x="530" y="316"/>
      <point x="535" y="345"/>
      <point x="535" y="375" type="curve" smooth="yes"/>
      <point x="534" y="399"/>
      <point x="529" y="422"/>
      <point x="520" y="443" type="curve"/>
      <point x="605" y="513" type="line"/>
      <point x="561" y="569" type="line"/>
      <point x="477" y="500" type="line"/>
      <point x="444" y="524"/>
      <point x="406" y="536"/>
      <point x="362" y="536" type="curve" smooth="yes"/>
      <point x="319" y="536"/>
      <point x="280" y="525"/>
      <point x="245" y="504" type="curve"/>
      <point x="189" y="571" type="line"/>
      <point x="125" y="518" type="line"/>
      <point x="180" y="447" type="line"/>
      <point x="162" y="426"/>
      <point x="148" y="402"/>
      <point x="138" y="374" type="curve" smooth="yes"/>
      <point x="127" y="345"/>
      <point x="122" y="317"/>
      <point x="122" y="288" type="curve" smooth="yes"/>
      <point x="122" y="263"/>
      <point x="127" y="240"/>
      <point x="136" y="219" type="curve"/>
      <point x="49" y="148" type="line"/>
      <point x="93" y="92" type="line"/>
      <point x="179" y="163" type="line"/>
      <point x="209" y="139"/>
      <point x="247" y="127"/>
      <point x="293" y="127" type="curve" smooth="yes"/>
      <point x="336" y="127"/>
      <point x="375" y="138"/>
      <point x="411" y="159" type="curve"/>
    </contour>
    <contour>
      <point x="228" y="229" type="curve" smooth="yes"/>
      <point x="209" y="247"/>
      <point x="199" y="271"/>
      <point x="199" y="301" type="curve" smooth="yes"/>
      <point x="199" y="329"/>
      <point x="206" y="355"/>
      <point x="219" y="380" type="curve" smooth="yes"/>
      <point x="232" y="405"/>
      <point x="251" y="424"/>
      <point x="274" y="439" type="curve" smooth="yes"/>
      <point x="297" y="454"/>
      <point x="322" y="461"/>
      <point x="351" y="461" type="curve" smooth="yes"/>
      <point x="383" y="461"/>
      <point x="409" y="452"/>
      <point x="428" y="433" type="curve" smooth="yes"/>
      <point x="447" y="414"/>
      <point x="457" y="390"/>
      <point x="457" y="360" type="curve" smooth="yes"/>
      <point x="457" y="331"/>
      <point x="450" y="305"/>
      <point x="437" y="281" type="curve" smooth="yes"/>
      <point x="424" y="257"/>
      <point x="405" y="238"/>
      <point x="382" y="224" type="curve" smooth="yes"/>
      <point x="359" y="209"/>
      <point x="333" y="202"/>
      <point x="305" y="202" type="curve" smooth="yes"/>
      <point x="273" y="202"/>
      <point x="247" y="211"/>
    </contour>
  </outline>
</glyph>
<glyph name="yen" format="2">
  <advance width="538"/>
  <unicode hex="00A5"/>
  <outline>
    <contour>
      <point x="168" y="0" type="line"/>
      <point x="260" y="0" type="line"/>
      <point x="292" y="146" type="line"/>
      <point x="457" y="146" type="line"/>
      <point x="471" y="214" type="line"/>
      <point x="305" y="214" type="line"/>
      <point x="319" y="280" type="line"/>
      <point x="484" y="280" type="line"/>
      <point x="500" y="347" type="line"/>
      <point x="356" y="347" type="line"/>
      <point x="624" y="707" type="line"/>
      <point x="515" y="707" type="line"/>
      <point x="295" y="387" type="line"/>
      <point x="205" y="707" type="line"/>
      <point x="103" y="707" type="line"/>
      <point x="220" y="347" type="line"/>
      <point x="77" y="347" type="line"/>
      <point x="62" y="280" type="line"/>
      <point x="227" y="280" type="line"/>
      <point x="213" y="214" type="line"/>
      <point x="48" y="214" type="line"/>
      <point x="34" y="146" type="line"/>
      <point x="199" y="146" type="line"/>
    </contour>
  </outline>
</glyph>
<glyph name="section" format="2">
  <advance width="570"/>
  <unicode hex="00A7"/>
  <outline>
    <contour>
      <point x="29" y="-47" type="curve" smooth="yes"/>
      <point x="29" y="-36"/>
      <point x="31" y="-21"/>
      <point x="34" y="-2" type="curve"/>
      <point x="118" y="-2" type="line"/>
      <point x="116" y="-11"/>
      <point x="115" y="-20"/>
      <point x="115" y="-29" type="curve" smooth="yes"/>
      <point x="115" y="-44"/>
      <point x="119" y="-56"/>
      <point x="126" y="-66" type="curve" smooth="yes"/>
      <point x="140" y="-85"/>
      <point x="167" y="-94"/>
      <point x="207" y="-94" type="curve" smooth="yes"/>
      <point x="241" y="-94"/>
      <point x="269" y="-87"/>
      <point x="290" y="-73" type="curve" smooth="yes"/>
      <point x="311" y="-60"/>
      <point x="324" y="-40"/>
      <point x="329" y="-14" type="curve" smooth="yes"/>
      <point x="330" y="-8"/>
      <point x="331" y="-1"/>
      <point x="331" y="8" type="curve" smooth="yes"/>
      <point x="331" y="31"/>
      <point x="322" y="48"/>
      <point x="303" y="61" type="curve" smooth="yes"/>
      <point x="284" y="73"/>
      <point x="253" y="84"/>
      <point x="208" y="94" type="curve" smooth="yes"/>
      <point x="169" y="103"/>
      <point x="138" y="118"/>
      <point x="113" y="141" type="curve" smooth="yes"/>
      <point x="88" y="164"/>
      <point x="75" y="195"/>
      <point x="75" y="234" type="curve" smooth="yes"/>
      <point x="75" y="247"/>
      <point x="77" y="264"/>
      <point x="80" y="284" type="curve" smooth="yes"/>
      <point x="88" y="324"/>
      <point x="104" y="358"/>
      <point x="129" y="386" type="curve" smooth="yes"/>
      <point x="154" y="414"/>
      <point x="185" y="433"/>
      <point x="223" y="443" type="curve"/>
      <point x="183" y="465"/>
      <point x="163" y="499"/>
      <point x="163" y="545" type="curve" smooth="yes"/>
      <point x="163" y="581"/>
      <point x="172" y="613"/>
      <point x="191" y="642" type="curve" smooth="yes"/>
      <point x="210" y="671"/>
      <point x="235" y="693"/>
      <point x="268" y="709" type="curve" smooth="yes"/>
      <point x="301" y="724"/>
      <point x="338" y="732"/>
      <point x="380" y="732" type="curve" smooth="yes"/>
      <point x="432" y="732"/>
      <point x="472" y="721"/>
      <point x="501" y="700" type="curve" smooth="yes"/>
      <point x="530" y="678"/>
      <point x="544" y="648"/>
      <point x="544" y="609" type="curve" smooth="yes"/>
      <point x="544" y="594"/>
      <point x="543" y="579"/>
      <point x="540" y="566" type="curve"/>
      <point x="456" y="566" type="line"/>
      <point x="458" y="575"/>
      <point x="459" y="584"/>
      <point x="459" y="591" type="curve" smooth="yes"/>
      <point x="459" y="612"/>
      <point x="452" y="627"/>
      <point x="437" y="638" type="curve" smooth="yes"/>
      <point x="422" y="649"/>
      <point x="399" y="654"/>
      <point x="370" y="654" type="curve" smooth="yes"/>
      <point x="335" y="654"/>
      <point x="306" y="645"/>
      <point x="285" y="628" type="curve" smooth="yes"/>
      <point x="264" y="611"/>
      <point x="253" y="586"/>
      <point x="253" y="555" type="curve" smooth="yes"/>
      <point x="253" y="533"/>
      <point x="262" y="516"/>
      <point x="280" y="504" type="curve" smooth="yes"/>
      <point x="297" y="492"/>
      <point x="328" y="481"/>
      <point x="372" y="470" type="curve" smooth="yes"/>
      <point x="413" y="459"/>
      <point x="446" y="443"/>
      <point x="470" y="422" type="curve" smooth="yes"/>
      <point x="493" y="400"/>
      <point x="505" y="370"/>
      <point x="505" y="331" type="curve" smooth="yes"/>
      <point x="505" y="316"/>
      <point x="503" y="299"/>
      <point x="499" y="282" type="curve" smooth="yes"/>
      <point x="492" y="241"/>
      <point x="475" y="207"/>
      <point x="450" y="179" type="curve" smooth="yes"/>
      <point x="425" y="151"/>
      <point x="394" y="132"/>
      <point x="357" y="122" type="curve"/>
      <point x="400" y="101"/>
      <point x="422" y="69"/>
      <point x="422" y="26" type="curve" smooth="yes"/>
      <point x="422" y="16"/>
      <point x="420" y="2"/>
      <point x="417" y="-15" type="curve" smooth="yes"/>
      <point x="407" y="-64"/>
      <point x="383" y="-102"/>
      <point x="345" y="-130" type="curve" smooth="yes"/>
      <point x="306" y="-158"/>
      <point x="258" y="-172"/>
      <point x="201" y="-172" type="curve" smooth="yes"/>
      <point x="147" y="-172"/>
      <point x="105" y="-161"/>
      <point x="75" y="-140" type="curve" smooth="yes"/>
      <point x="44" y="-119"/>
      <point x="29" y="-88"/>
    </contour>
    <contour>
      <point x="412" y="281" type="curve" smooth="yes"/>
      <point x="414" y="292"/>
      <point x="415" y="303"/>
      <point x="415" y="312" type="curve" smooth="yes"/>
      <point x="415" y="338"/>
      <point x="406" y="358"/>
      <point x="389" y="372" type="curve" smooth="yes"/>
      <point x="371" y="386"/>
      <point x="346" y="393"/>
      <point x="313" y="393" type="curve" smooth="yes"/>
      <point x="274" y="393"/>
      <point x="241" y="384"/>
      <point x="216" y="365" type="curve" smooth="yes"/>
      <point x="191" y="346"/>
      <point x="175" y="319"/>
      <point x="168" y="284" type="curve" smooth="yes"/>
      <point x="165" y="269"/>
      <point x="164" y="258"/>
      <point x="164" y="252" type="curve" smooth="yes"/>
      <point x="164" y="227"/>
      <point x="173" y="207"/>
      <point x="191" y="193" type="curve" smooth="yes"/>
      <point x="208" y="179"/>
      <point x="233" y="172"/>
      <point x="266" y="172" type="curve" smooth="yes"/>
      <point x="306" y="172"/>
      <point x="338" y="181"/>
      <point x="363" y="200" type="curve" smooth="yes"/>
      <point x="388" y="218"/>
      <point x="404" y="245"/>
    </contour>
  </outline>
</glyph>
<glyph name="dieresis" format="2">
  <advance width="512"/>
  <unicode hex="00A8"/>
  <outline>
    <contour>
      <point x="174" y="595" type="line"/>
      <point x="262" y="595" type="line"/>
      <point x="283" y="692" type="line"/>
      <point x="195" y="692" type="line"/>
    </contour>
    <contour>
      <point x="391" y="595" type="line"/>
      <point x="479" y="595" type="line"/>
      <point x="499" y="692" type="line"/>
      <point x="412" y="692" type="line"/>
    </contour>
  </outline>
</glyph>
<glyph name="copyright" format="2">
  <advance width="846"/>
  <unicode hex="00A9"/>
  <outline>
    <contour>
      <point x="90" y="349" type="curve" smooth="yes"/>
      <point x="90" y="419"/>
      <point x="105" y="481"/>
      <point x="134" y="536" type="curve" smooth="yes"/>
      <point x="163" y="590"/>
      <point x="205" y="632"/>
      <point x="259" y="663" type="curve" smooth="yes"/>
      <point x="312" y="693"/>
      <point x="373" y="708"/>
      <point x="442" y="708" type="curve" smooth="yes"/>
      <point x="511" y="708"/>
      <point x="572" y="693"/>
      <point x="626" y="663" type="curve" smooth="yes"/>
      <point x="679" y="632"/>
      <point x="721" y="590"/>
      <point x="750" y="536" type="curve" smooth="yes"/>
      <point x="779" y="482"/>
      <point x="794" y="420"/>
      <point x="794" y="349" type="curve" smooth="yes"/>
      <point x="794" y="279"/>
      <point x="779" y="217"/>
      <point x="750" y="163" type="curve" smooth="yes"/>
      <point x="721" y="108"/>
      <point x="679" y="66"/>
      <point x="626" y="36" type="curve" smooth="yes"/>
      <point x="573" y="5"/>
      <point x="511" y="-10"/>
      <point x="442" y="-10" type="curve" smooth="yes"/>
      <point x="373" y="-10"/>
      <point x="311" y="5"/>
      <point x="258" y="36" type="curve" smooth="yes"/>
      <point x="205" y="66"/>
      <point x="163" y="108"/>
      <point x="134" y="163" type="curve" smooth="yes"/>
      <point x="105" y="217"/>
      <point x="90" y="279"/>
    </contour>
    <contour>
      <point x="728" y="349" type="curve" smooth="yes"/>
      <point x="728" y="408"/>
      <point x="716" y="461"/>
      <point x="693" y="506" type="curve" smooth="yes"/>
      <point x="669" y="551"/>
      <point x="636" y="585"/>
      <point x="593" y="610" type="curve" smooth="yes"/>
      <point x="550" y="634"/>
      <point x="499" y="646"/>
      <point x="442" y="646" type="curve" smooth="yes"/>
      <point x="384" y="646"/>
      <point x="334" y="634"/>
      <point x="291" y="610" type="curve" smooth="yes"/>
      <point x="248" y="585"/>
      <point x="214" y="551"/>
      <point x="191" y="506" type="curve" smooth="yes"/>
      <point x="168" y="461"/>
      <point x="156" y="408"/>
      <point x="156" y="349" type="curve" smooth="yes"/>
      <point x="156" y="290"/>
      <point x="168" y="238"/>
      <point x="191" y="193" type="curve" smooth="yes"/>
      <point x="214" y="148"/>
      <point x="248" y="113"/>
      <point x="291" y="89" type="curve" smooth="yes"/>
      <point x="334" y="64"/>
      <point x="384" y="52"/>
      <point x="442" y="52" type="curve" smooth="yes"/>
      <point x="500" y="52"/>
      <point x="551" y="64"/>
      <point x="594" y="89" type="curve" smooth="yes"/>
      <point x="637" y="113"/>
      <point x="670" y="148"/>
      <point x="693" y="193" type="curve" smooth="yes"/>
      <point x="716" y="238"/>
      <point x="728" y="290"/>
    </contour>
    <contour>
      <point x="274" y="326" type="curve" smooth="yes"/>
      <point x="274" y="375" type="line" smooth="yes"/>
      <point x="274" y="432"/>
      <point x="290" y="476"/>
      <point x="321" y="505" type="curve" smooth="yes"/>
      <point x="352" y="534"/>
      <point x="393" y="549"/>
      <point x="444" y="549" type="curve" smooth="yes"/>
      <point x="493" y="549"/>
      <point x="533" y="537"/>
      <point x="562" y="513" type="curve" smooth="yes"/>
      <point x="591" y="489"/>
      <point x="605" y="456"/>
      <point x="605" y="415" type="curve" smooth="yes"/>
      <point x="605" y="412" type="line"/>
      <point x="539" y="412" type="line"/>
      <point x="539" y="414" type="line" smooth="yes"/>
      <point x="539" y="438"/>
      <point x="531" y="457"/>
      <point x="514" y="470" type="curve" smooth="yes"/>
      <point x="497" y="483"/>
      <point x="475" y="489"/>
      <point x="446" y="489" type="curve" smooth="yes"/>
      <point x="376" y="489"/>
      <point x="341" y="450"/>
      <point x="341" y="373" type="curve" smooth="yes"/>
      <point x="341" y="328" type="line" smooth="yes"/>
      <point x="341" y="287"/>
      <point x="350" y="257"/>
      <point x="369" y="238" type="curve" smooth="yes"/>
      <point x="387" y="219"/>
      <point x="413" y="210"/>
      <point x="447" y="210" type="curve" smooth="yes"/>
      <point x="476" y="210"/>
      <point x="498" y="217"/>
      <point x="515" y="230" type="curve" smooth="yes"/>
      <point x="531" y="243"/>
      <point x="539" y="262"/>
      <point x="539" y="286" type="curve" smooth="yes"/>
      <point x="539" y="289" type="line"/>
      <point x="604" y="289" type="line"/>
      <point x="604" y="285" type="line" smooth="yes"/>
      <point x="604" y="244"/>
      <point x="590" y="212"/>
      <point x="561" y="188" type="curve" smooth="yes"/>
      <point x="532" y="164"/>
      <point x="493" y="152"/>
      <point x="444" y="152" type="curve" smooth="yes"/>
      <point x="393" y="152"/>
      <point x="352" y="167"/>
      <point x="321" y="196" type="curve" smooth="yes"/>
      <point x="290" y="225"/>
      <point x="274" y="269"/>
    </contour>
  </outline>
</glyph>
<glyph name="ordfeminine" format="2">
  <advance width="351"/>
  <unicode hex="00AA"/>
  <outline>
    <contour>
      <point x="82" y="541" type="curve" smooth="yes"/>
      <point x="82" y="558"/>
      <point x="84" y="573"/>
      <point x="87" y="586" type="curve" smooth="yes"/>
      <point x="95" y="627" type="line" smooth="yes"/>
      <point x="104" y="674"/>
      <point x="121" y="709"/>
      <point x="146" y="732" type="curve" smooth="yes"/>
      <point x="171" y="755"/>
      <point x="202" y="766"/>
      <point x="240" y="766" type="curve" smooth="yes"/>
      <point x="282" y="766"/>
      <point x="312" y="751"/>
      <point x="331" y="720" type="curve"/>
      <point x="339" y="761" type="line"/>
      <point x="407" y="761" type="line"/>
      <point x="339" y="439" type="line"/>
      <point x="270" y="439" type="line"/>
      <point x="279" y="477" type="line"/>
      <point x="258" y="448"/>
      <point x="227" y="434"/>
      <point x="185" y="434" type="curve" smooth="yes"/>
      <point x="153" y="434"/>
      <point x="128" y="443"/>
      <point x="110" y="462" type="curve" smooth="yes"/>
      <point x="91" y="480"/>
      <point x="82" y="506"/>
    </contour>
    <contour>
      <point x="300" y="581" type="curve" smooth="yes"/>
      <point x="307" y="615" type="line" smooth="yes"/>
      <point x="309" y="622"/>
      <point x="310" y="632"/>
      <point x="310" y="644" type="curve" smooth="yes"/>
      <point x="310" y="663"/>
      <point x="305" y="677"/>
      <point x="295" y="688" type="curve" smooth="yes"/>
      <point x="284" y="698"/>
      <point x="269" y="703"/>
      <point x="248" y="703" type="curve" smooth="yes"/>
      <point x="225" y="703"/>
      <point x="207" y="697"/>
      <point x="194" y="685" type="curve" smooth="yes"/>
      <point x="180" y="672"/>
      <point x="170" y="652"/>
      <point x="164" y="624" type="curve" smooth="yes"/>
      <point x="156" y="586" type="line" smooth="yes"/>
      <point x="153" y="571"/>
      <point x="152" y="560"/>
      <point x="152" y="555" type="curve" smooth="yes"/>
      <point x="152" y="536"/>
      <point x="157" y="521"/>
      <point x="168" y="512" type="curve" smooth="yes"/>
      <point x="178" y="502"/>
      <point x="192" y="497"/>
      <point x="211" y="497" type="curve" smooth="yes"/>
      <point x="235" y="497"/>
      <point x="255" y="504"/>
      <point x="270" y="519" type="curve" smooth="yes"/>
      <point x="285" y="534"/>
      <point x="295" y="554"/>
    </contour>
  </outline>
</glyph>
<glyph name="logicalnot" format="2">
  <advance width="527"/>
  <unicode hex="00AC"/>
  <outline>
    <contour>
      <point x="383" y="130" type="line"/>
      <point x="470" y="130" type="line"/>
      <point x="470" y="346" type="line"/>
      <point x="51" y="346" type="line"/>
      <point x="51" y="267" type="line"/>
      <point x="383" y="267" type="line"/>
    </contour>
  </outline>
</glyph>
<glyph name="macron" format="2">
  <advance width="505"/>
  <unicode hex="00AF"/>
  <outline>
    <contour>
      <point x="175" y="604" type="line"/>
      <point x="482" y="604" type="line"/>
      <point x="500" y="683" type="line"/>
      <point x="191" y="683" type="line"/>
    </contour>
  </outline>
</glyph>
<glyph name="degree" format="2">
  <advance width="373"/>
  <unicode hex="00B0"/>
  <outline>
    <contour>
      <point x="253" y="426" type="curve" smooth="yes"/>
      <point x="280" y="426"/>
      <point x="304" y="432"/>
      <point x="326" y="445" type="curve" smooth="yes"/>
      <point x="348" y="458"/>
      <point x="366" y="475"/>
      <point x="379" y="497" type="curve" smooth="yes"/>
      <point x="392" y="519"/>
      <point x="398" y="544"/>
      <point x="398" y="571" type="curve" smooth="yes"/>
      <point x="398" y="598"/>
      <point x="392" y="623"/>
      <point x="379" y="646" type="curve" smooth="yes"/>
      <point x="366" y="668"/>
      <point x="348" y="685"/>
      <point x="326" y="698" type="curve" smooth="yes"/>
      <point x="304" y="711"/>
      <point x="280" y="717"/>
      <point x="253" y="717" type="curve" smooth="yes"/>
      <point x="211" y="717"/>
      <point x="176" y="703"/>
      <point x="149" y="675" type="curve" smooth="yes"/>
      <point x="122" y="647"/>
      <point x="108" y="612"/>
      <point x="108" y="571" type="curve" smooth="yes"/>
      <point x="108" y="530"/>
      <point x="122" y="495"/>
      <point x="149" y="468" type="curve" smooth="yes"/>
      <point x="176" y="440"/>
      <point x="211" y="426"/>
    </contour>
    <contour>
      <point x="192" y="509" type="curve" smooth="yes"/>
      <point x="176" y="525"/>
      <point x="168" y="546"/>
      <point x="168" y="571" type="curve" smooth="yes"/>
      <point x="168" y="596"/>
      <point x="176" y="617"/>
      <point x="192" y="634" type="curve" smooth="yes"/>
      <point x="208" y="651"/>
      <point x="228" y="659"/>
      <point x="253" y="659" type="curve" smooth="yes"/>
      <point x="278" y="659"/>
      <point x="298" y="651"/>
      <point x="314" y="635" type="curve" smooth="yes"/>
      <point x="329" y="618"/>
      <point x="337" y="597"/>
      <point x="337" y="571" type="curve" smooth="yes"/>
      <point x="337" y="546"/>
      <point x="329" y="526"/>
      <point x="314" y="509" type="curve" smooth="yes"/>
      <point x="298" y="492"/>
      <point x="278" y="484"/>
      <point x="253" y="484" type="curve" smooth="yes"/>
      <point x="228" y="484"/>
      <point x="208" y="492"/>
    </contour>
  </outline>
</glyph>
<glyph name="guillemotright" format="2">
  <advance width="560"/>
  <unicode hex="00BB"/>
  <outline>
    <contour>
      <point x="28" y="58" type="line"/>
      <point x="309" y="270" type="line"/>
      <point x="117" y="482" type="line"/>
      <point x="97" y="388" type="line"/>
      <point x="204" y="271" type="line"/>
      <point x="48" y="155" type="line"/>
    </contour>
    <contour>
      <point x="257" y="58" type="line"/>
      <point x="539" y="270" type="line"/>
      <point x="347" y="482" type="line"/>
      <point x="327" y="388" type="line"/>
      <point x="433" y="271" type="line"/>
      <point x="278" y="155" type="line"/>
    </contour>
  </outline>
</glyph>
<glyph name="onequarter" format="2">
  <advance width="905"/>
  <unicode hex="00BC"/>
  <outline>
    <contour>
      <point x="115" y="0" type="line"/>
      <point x="191" y="0" type="line"/>
      <point x="719" y="709" type="line"/>
      <point x="641" y="709" type="line"/>
    </contour>
    <contour>
      <point x="137" y="279" type="line"/>
      <point x="218" y="279" type="line"/>
      <point x="309" y="707" type="line"/>
      <point x="227" y="707" type="line"/>
      <point x="126" y="652" type="line"/>
      <point x="109" y="568" type="line"/>
      <point x="210" y="624" type="line"/>
    </contour>
    <contour>
      <point x="690" y="0" type="line"/>
      <point x="770" y="0" type="line"/>
      <point x="785" y="72" type="line"/>
      <point x="825" y="72" type="line"/>
      <point x="841" y="141" type="line"/>
      <point x="800" y="141" type="line"/>
      <point x="820" y="239" type="line"/>
      <point x="741" y="239" type="line"/>
      <point x="721" y="141" type="line"/>
      <point x="611" y="141" type="line"/>
      <point x="811" y="428" type="line"/>
      <point x="725" y="428" type="line"/>
      <point x="525" y="141" type="line"/>
      <point x="511" y="72" type="line"/>
      <point x="706" y="72" type="line"/>
    </contour>
  </outline>
</glyph>
<glyph name="onehalf" format="2">
  <advance width="922"/>
  <unicode hex="00BD"/>
  <outline>
    <contour>
      <point x="522" y="0" type="line"/>
      <point x="804" y="0" type="line"/>
      <point x="819" y="70" type="line"/>
      <point x="653" y="70" type="line"/>
      <point x="781" y="186" type="line" smooth="yes"/>
      <point x="810" y="211"/>
      <point x="833" y="235"/>
      <point x="849" y="258" type="curve" smooth="yes"/>
      <point x="864" y="281"/>
      <point x="872" y="307"/>
      <point x="872" y="336" type="curve" smooth="yes"/>
      <point x="872" y="367"/>
      <point x="861" y="391"/>
      <point x="838" y="409" type="curve" smooth="yes"/>
      <point x="815" y="426"/>
      <point x="783" y="435"/>
      <point x="744" y="435" type="curve" smooth="yes"/>
      <point x="701" y="435"/>
      <point x="666" y="424"/>
      <point x="638" y="403" type="curve" smooth="yes"/>
      <point x="610" y="382"/>
      <point x="593" y="352"/>
      <point x="586" y="314" type="curve" smooth="yes"/>
      <point x="584" y="303" type="line"/>
      <point x="660" y="303" type="line"/>
      <point x="663" y="312" type="line" smooth="yes"/>
      <point x="666" y="331"/>
      <point x="673" y="345"/>
      <point x="686" y="355" type="curve" smooth="yes"/>
      <point x="698" y="364"/>
      <point x="714" y="369"/>
      <point x="734" y="369" type="curve" smooth="yes"/>
      <point x="751" y="369"/>
      <point x="765" y="365"/>
      <point x="774" y="358" type="curve" smooth="yes"/>
      <point x="783" y="350"/>
      <point x="788" y="339"/>
      <point x="788" y="324" type="curve" smooth="yes"/>
      <point x="788" y="309"/>
      <point x="784" y="295"/>
      <point x="775" y="281" type="curve" smooth="yes"/>
      <point x="766" y="266"/>
      <point x="751" y="251"/>
      <point x="732" y="234" type="curve" smooth="yes"/>
      <point x="536" y="62" type="line"/>
    </contour>
    <contour>
      <point x="115" y="0" type="line"/>
      <point x="191" y="0" type="line"/>
      <point x="719" y="709" type="line"/>
      <point x="641" y="709" type="line"/>
    </contour>
    <contour>
      <point x="137" y="279" type="line"/>
      <point x="218" y="279" type="line"/>
      <point x="309" y="707" type="line"/>
      <point x="227" y="707" type="line"/>
      <point x="126" y="652" type="line"/>
      <point x="109" y="568" type="line"/>
      <point x="210" y="624" type="line"/>
    </contour>
  </outline>
</glyph>
<glyph name="threequarters" format="2">
  <advance width="1019"/>
  <unicode hex="00BE"/>
  <outline>
    <contour>
      <point x="202" y="272" type="curve" smooth="yes"/>
      <point x="253" y="272"/>
      <point x="295" y="287"/>
      <point x="326" y="316" type="curve" smooth="yes"/>
      <point x="357" y="345"/>
      <point x="373" y="382"/>
      <point x="373" y="427" type="curve" smooth="yes"/>
      <point x="373" y="467"/>
      <point x="356" y="493"/>
      <point x="322" y="506" type="curve"/>
      <point x="347" y="512"/>
      <point x="368" y="526"/>
      <point x="384" y="547" type="curve" smooth="yes"/>
      <point x="399" y="568"/>
      <point x="407" y="592"/>
      <point x="407" y="618" type="curve" smooth="yes"/>
      <point x="407" y="648"/>
      <point x="396" y="672"/>
      <point x="374" y="689" type="curve" smooth="yes"/>
      <point x="351" y="706"/>
      <point x="321" y="714"/>
      <point x="282" y="714" type="curve" smooth="yes"/>
      <point x="239" y="714"/>
      <point x="205" y="704"/>
      <point x="178" y="685" type="curve" smooth="yes"/>
      <point x="151" y="665"/>
      <point x="135" y="637"/>
      <point x="129" y="602" type="curve" smooth="yes"/>
      <point x="127" y="590" type="line"/>
      <point x="200" y="590" type="line"/>
      <point x="201" y="598" type="line" smooth="yes"/>
      <point x="204" y="614"/>
      <point x="212" y="626"/>
      <point x="224" y="635" type="curve" smooth="yes"/>
      <point x="235" y="644"/>
      <point x="251" y="648"/>
      <point x="271" y="648" type="curve" smooth="yes"/>
      <point x="308" y="648"/>
      <point x="327" y="634"/>
      <point x="327" y="605" type="curve" smooth="yes"/>
      <point x="327" y="584"/>
      <point x="320" y="566"/>
      <point x="305" y="553" type="curve" smooth="yes"/>
      <point x="290" y="539"/>
      <point x="270" y="532"/>
      <point x="245" y="532" type="curve" smooth="yes"/>
      <point x="221" y="532" type="line"/>
      <point x="207" y="467" type="line"/>
      <point x="231" y="467" type="line" smooth="yes"/>
      <point x="273" y="467"/>
      <point x="294" y="451"/>
      <point x="294" y="420" type="curve" smooth="yes"/>
      <point x="294" y="397"/>
      <point x="287" y="377"/>
      <point x="273" y="361" type="curve" smooth="yes"/>
      <point x="258" y="345"/>
      <point x="238" y="337"/>
      <point x="212" y="337" type="curve" smooth="yes"/>
      <point x="193" y="337"/>
      <point x="179" y="341"/>
      <point x="169" y="349" type="curve" smooth="yes"/>
      <point x="158" y="356"/>
      <point x="153" y="366"/>
      <point x="153" y="378" type="curve" smooth="yes"/>
      <point x="153" y="379"/>
      <point x="154" y="385"/>
      <point x="155" y="396" type="curve"/>
      <point x="83" y="396" type="line" smooth="yes"/>
      <point x="82" y="393"/>
      <point x="81" y="388"/>
      <point x="80" y="380" type="curve" smooth="yes"/>
      <point x="79" y="372"/>
      <point x="78" y="365"/>
      <point x="78" y="358" type="curve" smooth="yes"/>
      <point x="78" y="331"/>
      <point x="89" y="310"/>
      <point x="112" y="295" type="curve" smooth="yes"/>
      <point x="135" y="280"/>
      <point x="165" y="272"/>
    </contour>
    <contour>
      <point x="804" y="0" type="line"/>
      <point x="884" y="0" type="line"/>
      <point x="899" y="72" type="line"/>
      <point x="939" y="72" type="line"/>
      <point x="954" y="141" type="line"/>
      <point x="913" y="141" type="line"/>
      <point x="934" y="239" type="line"/>
      <point x="855" y="239" type="line"/>
      <point x="835" y="141" type="line"/>
      <point x="725" y="141" type="line"/>
      <point x="925" y="428" type="line"/>
      <point x="839" y="428" type="line"/>
      <point x="639" y="141" type="line"/>
      <point x="625" y="72" type="line"/>
      <point x="819" y="72" type="line"/>
    </contour>
    <contour>
      <point x="228" y="0" type="line"/>
      <point x="305" y="0" type="line"/>
      <point x="833" y="709" type="line"/>
      <point x="755" y="709" type="line"/>
    </contour>
  </outline>
</glyph>
<glyph name="questiondown" format="2">
  <advance width="494"/>
  <unicode hex="00BF"/>
  <outline>
    <contour>
      <point x="170" y="-167" type="curve" smooth="yes"/>
      <point x="304" y="-167"/>
      <point x="383" y="-105"/>
      <point x="407" y="19" type="curve"/>
      <point x="317" y="19" type="line"/>
      <point x="310" y="-16"/>
      <point x="296" y="-42"/>
      <point x="274" y="-59" type="curve" smooth="yes"/>
      <point x="252" y="-76"/>
      <point x="222" y="-85"/>
      <point x="183" y="-85" type="curve" smooth="yes"/>
      <point x="150" y="-85"/>
      <point x="124" y="-78"/>
      <point x="107" y="-65" type="curve" smooth="yes"/>
      <point x="89" y="-52"/>
      <point x="80" y="-34"/>
      <point x="80" y="-10" type="curve" smooth="yes"/>
      <point x="80" y="15"/>
      <point x="87" y="37"/>
      <point x="100" y="56" type="curve" smooth="yes"/>
      <point x="113" y="75"/>
      <point x="133" y="96"/>
      <point x="160" y="118" type="curve" smooth="yes"/>
      <point x="223" y="169" type="line" smooth="yes"/>
      <point x="250" y="191"/>
      <point x="270" y="211"/>
      <point x="281" y="230" type="curve" smooth="yes"/>
      <point x="292" y="248"/>
      <point x="300" y="273"/>
      <point x="307" y="305" type="curve" smooth="yes"/>
      <point x="315" y="338" type="line"/>
      <point x="224" y="338" type="line"/>
      <point x="219" y="312" type="line" smooth="yes"/>
      <point x="214" y="290"/>
      <point x="207" y="273"/>
      <point x="200" y="260" type="curve" smooth="yes"/>
      <point x="192" y="247"/>
      <point x="178" y="232"/>
      <point x="158" y="215" type="curve" smooth="yes"/>
      <point x="83" y="154" type="line" smooth="yes"/>
      <point x="52" y="128"/>
      <point x="28" y="101"/>
      <point x="12" y="73" type="curve" smooth="yes"/>
      <point x="-4" y="44"/>
      <point x="-12" y="13"/>
      <point x="-12" y="-22" type="curve" smooth="yes"/>
      <point x="-12" y="-67"/>
      <point x="4" y="-102"/>
      <point x="37" y="-128" type="curve" smooth="yes"/>
      <point x="70" y="-154"/>
      <point x="114" y="-167"/>
    </contour>
    <contour>
      <point x="236" y="418" type="line"/>
      <point x="340" y="418" type="line"/>
      <point x="362" y="523" type="line"/>
      <point x="258" y="523" type="line"/>
    </contour>
  </outline>
</glyph>
<glyph name="AE" format="2">
  <advance width="1013"/>
  <unicode hex="00C6"/>
  <outline>
    <contour>
      <point x="-51" y="0" type="line"/>
      <point x="59" y="0" type="line"/>
      <point x="194" y="166" type="line"/>
      <point x="464" y="166" type="line"/>
      <point x="429" y="0" type="line"/>
      <point x="905" y="0" type="line"/>
      <point x="924" y="83" type="line"/>
      <point x="539" y="83" type="line"/>
      <point x="589" y="317" type="line"/>
      <point x="918" y="317" type="line"/>
      <point x="934" y="399" type="line"/>
      <point x="606" y="399" type="line"/>
      <point x="654" y="624" type="line"/>
      <point x="1038" y="624" type="line"/>
      <point x="1056" y="707" type="line"/>
      <point x="527" y="707" type="line"/>
    </contour>
    <contour>
      <point x="256" y="244" type="line"/>
      <point x="560" y="621" type="line"/>
      <point x="480" y="244" type="line"/>
    </contour>
  </outline>
</glyph>
<glyph name="Eth" format="2">
  <advance width="744"/>
  <unicode hex="00D0"/>
  <outline>
    <contour>
      <point x="72" y="0" type="line"/>
      <point x="352" y="0" type="line" smooth="yes"/>
      <point x="443" y="0"/>
      <point x="517" y="24"/>
      <point x="573" y="71" type="curve" smooth="yes"/>
      <point x="629" y="118"/>
      <point x="668" y="192"/>
      <point x="690" y="294" type="curve" smooth="yes"/>
      <point x="712" y="397" type="line" smooth="yes"/>
      <point x="719" y="433"/>
      <point x="723" y="465"/>
      <point x="723" y="492" type="curve" smooth="yes"/>
      <point x="723" y="563"/>
      <point x="701" y="616"/>
      <point x="657" y="653" type="curve" smooth="yes"/>
      <point x="613" y="689"/>
      <point x="551" y="707"/>
      <point x="472" y="707" type="curve" smooth="yes"/>
      <point x="222" y="707" type="line"/>
      <point x="157" y="399" type="line"/>
      <point x="65" y="399" type="line"/>
      <point x="47" y="316" type="line"/>
      <point x="139" y="316" type="line"/>
    </contour>
    <contour>
      <point x="182" y="83" type="line"/>
      <point x="232" y="316" type="line"/>
      <point x="400" y="316" type="line"/>
      <point x="418" y="399" type="line"/>
      <point x="250" y="399" type="line"/>
      <point x="298" y="624" type="line"/>
      <point x="460" y="624" type="line" smooth="yes"/>
      <point x="517" y="624"/>
      <point x="559" y="612"/>
      <point x="587" y="589" type="curve" smooth="yes"/>
      <point x="615" y="565"/>
      <point x="629" y="529"/>
      <point x="629" y="480" type="curve" smooth="yes"/>
      <point x="629" y="459"/>
      <point x="625" y="431"/>
      <point x="618" y="397" type="curve" smooth="yes"/>
      <point x="597" y="297" type="line" smooth="yes"/>
      <point x="581" y="221"/>
      <point x="554" y="166"/>
      <point x="516" y="133" type="curve" smooth="yes"/>
      <point x="478" y="100"/>
      <point x="426" y="83"/>
      <point x="361" y="83" type="curve" smooth="yes"/>
    </contour>
  </outline>
</glyph>
<glyph name="germandbls" format="2">
  <advance width="574"/>
  <unicode hex="00DF"/>
  <outline>
    <contour>
      <point x="242" y="73" type="line"/>
      <point x="274" y="73" type="line" smooth="yes"/>
      <point x="306" y="73"/>
      <point x="332" y="78"/>
      <point x="351" y="88" type="curve" smooth="yes"/>
      <point x="370" y="98"/>
      <point x="385" y="114"/>
      <point x="396" y="137" type="curve" smooth="yes"/>
      <point x="407" y="159"/>
      <point x="416" y="190"/>
      <point x="425" y="230" type="curve" smooth="yes"/>
      <point x="433" y="269"/>
      <point x="437" y="297"/>
      <point x="437" y="314" type="curve" smooth="yes"/>
      <point x="437" y="342"/>
      <point x="429" y="362"/>
      <point x="414" y="375" type="curve" smooth="yes"/>
      <point x="398" y="387"/>
      <point x="372" y="393"/>
      <point x="335" y="393" type="curve" smooth="yes"/>
      <point x="310" y="393" type="line"/>
      <point x="326" y="469" type="line"/>
      <point x="358" y="469" type="line" smooth="yes"/>
      <point x="397" y="469"/>
      <point x="428" y="478"/>
      <point x="451" y="495" type="curve" smooth="yes"/>
      <point x="474" y="512"/>
      <point x="485" y="537"/>
      <point x="485" y="569" type="curve" smooth="yes"/>
      <point x="485" y="615"/>
      <point x="448" y="638"/>
      <point x="374" y="638" type="curve" smooth="yes"/>
      <point x="325" y="638"/>
      <point x="288" y="628"/>
      <point x="263" y="609" type="curve" smooth="yes"/>
      <point x="238" y="590"/>
      <point x="220" y="556"/>
      <point x="210" y="508" type="curve" smooth="yes"/>
      <point x="102" y="0" type="line"/>
      <point x="15" y="0" type="line"/>
      <point x="122" y="506" type="line" smooth="yes"/>
      <point x="137" y="577"/>
      <point x="165" y="629"/>
      <point x="206" y="664" type="curve" smooth="yes"/>
      <point x="246" y="698"/>
      <point x="304" y="715"/>
      <point x="380" y="715" type="curve" smooth="yes"/>
      <point x="442" y="715"/>
      <point x="490" y="703"/>
      <point x="524" y="680" type="curve" smooth="yes"/>
      <point x="558" y="657"/>
      <point x="575" y="624"/>
      <point x="575" y="583" type="curve" smooth="yes"/>
      <point x="575" y="549"/>
      <point x="566" y="519"/>
      <point x="548" y="492" type="curve" smooth="yes"/>
      <point x="529" y="465"/>
      <point x="503" y="446"/>
      <point x="469" y="433" type="curve"/>
      <point x="490" y="422"/>
      <point x="505" y="409"/>
      <point x="514" y="393" type="curve" smooth="yes"/>
      <point x="523" y="377"/>
      <point x="527" y="357"/>
      <point x="527" y="332" type="curve" smooth="yes"/>
      <point x="527" y="307"/>
      <point x="522" y="272"/>
      <point x="513" y="227" type="curve" smooth="yes"/>
      <point x="500" y="169"/>
      <point x="484" y="124"/>
      <point x="465" y="91" type="curve" smooth="yes"/>
      <point x="446" y="58"/>
      <point x="420" y="34"/>
      <point x="389" y="19" type="curve" smooth="yes"/>
      <point x="357" y="4"/>
      <point x="315" y="-4"/>
      <point x="264" y="-4" type="curve" smooth="yes"/>
      <point x="226" y="-4" type="line"/>
    </contour>
  </outline>
</glyph>
<glyph name="ae" format="2">
  <advance width="933"/>
  <unicode hex="00E6"/>
  <outline>
    <contour>
      <point x="621" y="-9" type="curve" smooth="yes"/>
      <point x="681" y="-9"/>
      <point x="731" y="6"/>
      <point x="772" y="35" type="curve" smooth="yes"/>
      <point x="812" y="64"/>
      <point x="840" y="108"/>
      <point x="855" y="165" type="curve"/>
      <point x="767" y="165" type="line"/>
      <point x="748" y="100"/>
      <point x="699" y="68"/>
      <point x="622" y="68" type="curve" smooth="yes"/>
      <point x="583" y="68"/>
      <point x="551" y="77"/>
      <point x="528" y="95" type="curve" smooth="yes"/>
      <point x="505" y="112"/>
      <point x="493" y="139"/>
      <point x="493" y="176" type="curve" smooth="yes"/>
      <point x="493" y="187"/>
      <point x="495" y="203"/>
      <point x="498" y="222" type="curve" smooth="yes"/>
      <point x="502" y="242" type="line"/>
      <point x="874" y="242" type="line"/>
      <point x="884" y="288" type="line" smooth="yes"/>
      <point x="889" y="311"/>
      <point x="891" y="334"/>
      <point x="891" y="357" type="curve" smooth="yes"/>
      <point x="891" y="414"/>
      <point x="873" y="457"/>
      <point x="838" y="487" type="curve" smooth="yes"/>
      <point x="803" y="517"/>
      <point x="754" y="532"/>
      <point x="691" y="532" type="curve" smooth="yes"/>
      <point x="653" y="532"/>
      <point x="618" y="526"/>
      <point x="586" y="515" type="curve" smooth="yes"/>
      <point x="554" y="504"/>
      <point x="527" y="486"/>
      <point x="505" y="462" type="curve"/>
      <point x="476" y="507"/>
      <point x="420" y="530"/>
      <point x="337" y="530" type="curve" smooth="yes"/>
      <point x="273" y="530"/>
      <point x="220" y="516"/>
      <point x="178" y="489" type="curve" smooth="yes"/>
      <point x="135" y="461"/>
      <point x="109" y="422"/>
      <point x="98" y="372" type="curve"/>
      <point x="184" y="372" type="line"/>
      <point x="190" y="400"/>
      <point x="205" y="422"/>
      <point x="228" y="437" type="curve" smooth="yes"/>
      <point x="251" y="452"/>
      <point x="283" y="460"/>
      <point x="323" y="460" type="curve" smooth="yes"/>
      <point x="399" y="460"/>
      <point x="437" y="432"/>
      <point x="437" y="376" type="curve" smooth="yes"/>
      <point x="437" y="364"/>
      <point x="433" y="340"/>
      <point x="425" y="303" type="curve"/>
      <point x="267" y="303" type="line" smooth="yes"/>
      <point x="194" y="303"/>
      <point x="137" y="288"/>
      <point x="95" y="258" type="curve" smooth="yes"/>
      <point x="52" y="227"/>
      <point x="31" y="183"/>
      <point x="31" y="126" type="curve" smooth="yes"/>
      <point x="31" y="83"/>
      <point x="47" y="50"/>
      <point x="79" y="27" type="curve" smooth="yes"/>
      <point x="111" y="4"/>
      <point x="156" y="-8"/>
      <point x="213" y="-8" type="curve" smooth="yes"/>
      <point x="308" y="-8"/>
      <point x="380" y="23"/>
      <point x="429" y="85" type="curve"/>
      <point x="462" y="22"/>
      <point x="526" y="-9"/>
    </contour>
    <contour>
      <point x="118" y="139" type="curve" smooth="yes"/>
      <point x="118" y="172"/>
      <point x="131" y="197"/>
      <point x="158" y="214" type="curve" smooth="yes"/>
      <point x="184" y="231"/>
      <point x="221" y="240"/>
      <point x="269" y="240" type="curve" smooth="yes"/>
      <point x="412" y="240" type="line"/>
      <point x="403" y="203" type="line" smooth="yes"/>
      <point x="394" y="156"/>
      <point x="375" y="121"/>
      <point x="347" y="98" type="curve" smooth="yes"/>
      <point x="318" y="75"/>
      <point x="279" y="63"/>
      <point x="229" y="63" type="curve" smooth="yes"/>
      <point x="155" y="63"/>
      <point x="118" y="88"/>
    </contour>
    <contour>
      <point x="514" y="305" type="line"/>
      <point x="517" y="321" type="line"/>
      <point x="538" y="411"/>
      <point x="593" y="456"/>
      <point x="683" y="456" type="curve" smooth="yes"/>
      <point x="721" y="456"/>
      <point x="751" y="448"/>
      <point x="774" y="431" type="curve" smooth="yes"/>
      <point x="796" y="414"/>
      <point x="807" y="389"/>
      <point x="807" y="357" type="curve" smooth="yes"/>
      <point x="807" y="346"/>
      <point x="805" y="329"/>
      <point x="800" y="305" type="curve"/>
    </contour>
  </outline>
</glyph>
<glyph name="ccedilla" format="2">
  <advance width="567"/>
  <unicode hex="00E7"/>
  <outline>
    <contour>
      <point x="105" y="-156" type="line"/>
      <point x="197" y="-156" type="line"/>
      <point x="289" y="-8" type="line"/>
      <point x="346" y="-3"/>
      <point x="392" y="17"/>
      <point x="428" y="50" type="curve" smooth="yes"/>
      <point x="464" y="83"/>
      <point x="486" y="126"/>
      <point x="494" y="179" type="curve"/>
      <point x="409" y="179" type="line"/>
      <point x="402" y="143"/>
      <point x="385" y="116"/>
      <point x="360" y="97" type="curve" smooth="yes"/>
      <point x="335" y="78"/>
      <point x="302" y="69"/>
      <point x="262" y="69" type="curve" smooth="yes"/>
      <point x="215" y="69"/>
      <point x="181" y="80"/>
      <point x="159" y="103" type="curve" smooth="yes"/>
      <point x="141" y="123"/>
      <point x="132" y="151"/>
      <point x="132" y="187" type="curve" smooth="yes"/>
      <point x="132" y="204"/>
      <point x="134" y="224"/>
      <point x="138" y="245" type="curve" smooth="yes"/>
      <point x="151" y="300" type="line" smooth="yes"/>
      <point x="162" y="355"/>
      <point x="182" y="395"/>
      <point x="211" y="419" type="curve" smooth="yes"/>
      <point x="240" y="443"/>
      <point x="277" y="455"/>
      <point x="323" y="455" type="curve" smooth="yes"/>
      <point x="402" y="454"/>
      <point x="442" y="422"/>
      <point x="442" y="358" type="curve"/>
      <point x="441" y="343" type="line"/>
      <point x="527" y="343" type="line"/>
      <point x="528" y="350"/>
      <point x="528" y="359"/>
      <point x="528" y="369" type="curve" smooth="yes"/>
      <point x="528" y="422"/>
      <point x="510" y="463"/>
      <point x="474" y="491" type="curve" smooth="yes"/>
      <point x="437" y="518"/>
      <point x="388" y="532"/>
      <point x="327" y="532" type="curve" smooth="yes"/>
      <point x="257" y="532"/>
      <point x="200" y="513"/>
      <point x="156" y="476" type="curve" smooth="yes"/>
      <point x="111" y="439"/>
      <point x="81" y="382"/>
      <point x="65" y="307" type="curve" smooth="yes"/>
      <point x="52" y="247" type="line" smooth="yes"/>
      <point x="47" y="222"/>
      <point x="45" y="200"/>
      <point x="45" y="179" type="curve" smooth="yes"/>
      <point x="45" y="124"/>
      <point x="60" y="81"/>
      <point x="90" y="50" type="curve" smooth="yes"/>
      <point x="119" y="19"/>
      <point x="160" y="1"/>
      <point x="211" y="-6" type="curve"/>
    </contour>
  </outline>
</glyph>
<glyph name="oslash" format="2">
  <advance width="577"/>
  <unicode hex="00F8"/>
  <outline>
    <contour>
      <point x="500" y="462" type="line"/>
      <point x="523" y="432"/>
      <point x="534" y="394"/>
      <point x="534" y="349" type="curve" smooth="yes"/>
      <point x="534" y="328"/>
      <point x="531" y="305"/>
      <point x="525" y="280" type="curve" smooth="yes"/>
      <point x="512" y="216" type="line" smooth="yes"/>
      <point x="497" y="141"/>
      <point x="467" y="84"/>
      <point x="422" y="47" type="curve" smooth="yes"/>
      <point x="377" y="10"/>
      <point x="321" y="-9"/>
      <point x="254" y="-9" type="curve" smooth="yes"/>
      <point x="195" y="-9"/>
      <point x="148" y="4"/>
      <point x="113" y="30" type="curve"/>
      <point x="58" y="-31" type="line"/>
      <point x="-3" y="-31" type="line"/>
      <point x="79" y="61" type="line"/>
      <point x="56" y="91"/>
      <point x="45" y="129"/>
      <point x="45" y="175" type="curve" smooth="yes"/>
      <point x="45" y="198"/>
      <point x="47" y="221"/>
      <point x="52" y="245" type="curve" smooth="yes"/>
      <point x="65" y="308" type="line" smooth="yes"/>
      <point x="81" y="383"/>
      <point x="111" y="439"/>
      <point x="156" y="476" type="curve" smooth="yes"/>
      <point x="200" y="513"/>
      <point x="256" y="532"/>
      <point x="325" y="532" type="curve" smooth="yes"/>
      <point x="384" y="532"/>
      <point x="431" y="519"/>
      <point x="467" y="494" type="curve"/>
      <point x="517" y="550" type="line"/>
      <point x="579" y="550" type="line"/>
    </contour>
    <contour>
      <point x="142" y="131" type="curve"/>
      <point x="409" y="428" type="line"/>
      <point x="387" y="446"/>
      <point x="356" y="455"/>
      <point x="317" y="455" type="curve" smooth="yes"/>
      <point x="273" y="455"/>
      <point x="237" y="443"/>
      <point x="210" y="419" type="curve" smooth="yes"/>
      <point x="182" y="395"/>
      <point x="162" y="355"/>
      <point x="151" y="300" type="curve" smooth="yes"/>
      <point x="138" y="242" type="line" smooth="yes"/>
      <point x="134" y="221"/>
      <point x="132" y="202"/>
      <point x="132" y="185" type="curve" smooth="yes"/>
      <point x="132" y="164"/>
      <point x="135" y="146"/>
    </contour>
    <contour>
      <point x="436" y="390" type="curve"/>
      <point x="170" y="94" type="line"/>
      <point x="192" y="77"/>
      <point x="223" y="68"/>
      <point x="262" y="69" type="curve" smooth="yes"/>
      <point x="305" y="69"/>
      <point x="341" y="81"/>
      <point x="368" y="105" type="curve" smooth="yes"/>
      <point x="395" y="129"/>
      <point x="415" y="169"/>
      <point x="426" y="224" type="curve" smooth="yes"/>
      <point x="438" y="282" type="line" smooth="yes"/>
      <point x="442" y="300"/>
      <point x="444" y="319"/>
      <point x="444" y="339" type="curve" smooth="yes"/>
      <point x="444" y="358"/>
      <point x="441" y="375"/>
    </contour>
  </outline>
</glyph>
<glyph name="thorn" format="2">
  <advance width="584"/>
  <unicode hex="00FE"/>
  <outline>
    <contour>
      <point x="165" y="707" type="line"/>
      <point x="252" y="707" type="line"/>
      <point x="200" y="459" type="line"/>
      <point x="244" y="509"/>
      <point x="297" y="534"/>
      <point x="359" y="534" type="curve" smooth="yes"/>
      <point x="414" y="534"/>
      <point x="458" y="519"/>
      <point x="491" y="488" type="curve" smooth="yes"/>
      <point x="524" y="457"/>
      <point x="541" y="412"/>
      <point x="541" y="353" type="curve" smooth="yes"/>
      <point x="541" y="329"/>
      <point x="538" y="304"/>
      <point x="532" y="278" type="curve" smooth="yes"/>
      <point x="519" y="219" type="line" smooth="yes"/>
      <point x="503" y="143"/>
      <point x="474" y="86"/>
      <point x="432" y="48" type="curve" smooth="yes"/>
      <point x="389" y="10"/>
      <point x="336" y="-9"/>
      <point x="273" y="-9" type="curve" smooth="yes"/>
      <point x="199" y="-9"/>
      <point x="147" y="18"/>
      <point x="116" y="72" type="curve"/>
      <point x="68" y="-157" type="line"/>
      <point x="-18" y="-157" type="line"/>
    </contour>
    <contour>
      <point x="433" y="223" type="curve" smooth="yes"/>
      <point x="445" y="281" type="line" smooth="yes"/>
      <point x="449" y="303"/>
      <point x="451" y="322"/>
      <point x="452" y="338" type="curve" smooth="yes"/>
      <point x="452" y="377"/>
      <point x="441" y="407"/>
      <point x="420" y="426" type="curve" smooth="yes"/>
      <point x="398" y="445"/>
      <point x="370" y="455"/>
      <point x="335" y="455" type="curve" smooth="yes"/>
      <point x="290" y="455"/>
      <point x="253" y="441"/>
      <point x="224" y="412" type="curve" smooth="yes"/>
      <point x="194" y="383"/>
      <point x="174" y="345"/>
      <point x="165" y="298" type="curve" smooth="yes"/>
      <point x="154" y="245" type="line" smooth="yes"/>
      <point x="149" y="224"/>
      <point x="147" y="205"/>
      <point x="146" y="188" type="curve" smooth="yes"/>
      <point x="146" y="151"/>
      <point x="157" y="122"/>
      <point x="179" y="101" type="curve" smooth="yes"/>
      <point x="201" y="80"/>
      <point x="232" y="69"/>
      <point x="271" y="69" type="curve" smooth="yes"/>
      <point x="356" y="68"/>
      <point x="410" y="120"/>
    </contour>
  </outline>
</glyph>
<glyph name="Aogonek" format="2">
  <advance width="681"/>
  <unicode hex="0104"/>
  <outline>
    <component base="A"/>
    <contour>
      <point x="567" y="-217" type="curve"/>
      <point x="585" y="-132" type="line"/>
      <point x="529" y="-130"/>
      <point x="472" y="-115"/>
      <point x="445" y="-80" type="curve"/>
      <point x="612" y="0" type="line"/>
      <point x="612" y="1" type="line"/>
      <point x="515" y="1" type="line"/>
      <point x="336" y="-76" type="line"/>
      <point x="348" y="-115"/>
      <point x="357" y="-123"/>
      <point x="378" y="-147" type="curve" smooth="yes"/>
      <point x="420" y="-192"/>
      <point x="483" y="-216"/>
    </contour>
  </outline>
</glyph>
<glyph name="aogonek" format="2">
  <advance width="562"/>
  <unicode hex="0105"/>
  <outline>
    <component base="a"/>
    <contour>
      <point x="373" y="0" type="line"/>
      <point x="458" y="0" type="line"/>
      <point x="291" y="-80" type="line"/>
      <point x="318" y="-115"/>
      <point x="375" y="-130"/>
      <point x="431" y="-131" type="curve"/>
      <point x="413" y="-217" type="line"/>
      <point x="329" y="-216"/>
      <point x="266" y="-192"/>
      <point x="225" y="-147" type="curve" smooth="yes"/>
      <point x="203" y="-123"/>
      <point x="191" y="-93"/>
      <point x="187" y="-55" type="curve"/>
    </contour>
  </outline>
</glyph>
<glyph name="dcroat" format="2">
  <advance width="593"/>
  <unicode hex="0111"/>
  <outline>
    <component base="d"/>
    <contour>
      <point x="358" y="640" type="line"/>
      <point x="671" y="640" type="line"/>
      <point x="659" y="581" type="line"/>
      <point x="346" y="581" type="line"/>
    </contour>
  </outline>
</glyph>
<glyph name="gcommaaccent" format="2">
  <advance width="593"/>
  <unicode hex="0123"/>
  <outline>
    <component base="g"/>
    <contour>
      <point x="318" y="564" type="line"/>
      <point x="401" y="564" type="line"/>
      <point x="431" y="707" type="line"/>
      <point x="332" y="633" type="line"/>
    </contour>
  </outline>
</glyph>
<glyph name="Hbar" format="2">
  <advance width="701"/>
  <unicode hex="0126"/>
  <outline>
    <component base="H"/>
    <contour>
      <point x="95" y="513" type="line"/>
      <point x="711" y="513" type="line"/>
      <point x="728" y="596" type="line"/>
      <point x="112" y="596" type="line"/>
    </contour>
  </outline>
</glyph>
<glyph name="dotlessi" format="2">
  <advance width="239"/>
  <unicode hex="0131"/>
  <anchor x="228" y="524" name="top"/>
  <outline>
    <contour>
      <point x="130" y="524" type="line"/>
      <point x="217" y="524" type="line"/>
      <point x="108" y="0" type="line"/>
      <point x="21" y="0" type="line"/>
    </contour>
  </outline>
</glyph>
<glyph name="IJ" format="2">
  <advance width="712"/>
  <unicode hex="0132"/>
  <outline>
    <contour>
      <point x="300" y="-6" type="curve" smooth="yes"/>
      <point x="388" y="-6"/>
      <point x="462" y="17"/>
      <point x="521" y="62" type="curve" smooth="yes"/>
      <point x="580" y="107"/>
      <point x="618" y="171"/>
      <point x="636" y="253" type="curve" smooth="yes"/>
      <point x="732" y="707" type="line"/>
      <point x="639" y="707" type="line"/>
      <point x="544" y="259" type="line" smooth="yes"/>
      <point x="518" y="137"/>
      <point x="442" y="76"/>
      <point x="317" y="76" type="curve" smooth="yes"/>
      <point x="232" y="76"/>
      <point x="182" y="104"/>
      <point x="167" y="160" type="curve"/>
      <point x="68" y="160" type="line"/>
      <point x="72" y="121"/>
      <point x="85" y="88"/>
      <point x="108" y="62" type="curve" smooth="yes"/>
      <point x="148" y="17"/>
      <point x="212" y="-6"/>
    </contour>
    <contour>
      <point x="89" y="320" type="line"/>
      <point x="182" y="320" type="line"/>
      <point x="264" y="707" type="line"/>
      <point x="171" y="707" type="line"/>
    </contour>
  </outline>
</glyph>
<glyph name="OE" format="2">
  <advance width="1088"/>
  <unicode hex="0152"/>
  <outline>
    <contour>
      <point x="314" y="-10" type="curve" smooth="yes"/>
      <point x="388" y="-10"/>
      <point x="449" y="6"/>
      <point x="498" y="39" type="curve"/>
      <point x="489" y="0" type="line"/>
      <point x="980" y="0" type="line"/>
      <point x="998" y="83" type="line"/>
      <point x="600" y="83" type="line"/>
      <point x="650" y="317" type="line"/>
      <point x="992" y="317" type="line"/>
      <point x="1010" y="399" type="line"/>
      <point x="668" y="399" type="line"/>
      <point x="716" y="624" type="line"/>
      <point x="1113" y="624" type="line"/>
      <point x="1130" y="707" type="line"/>
      <point x="640" y="707" type="line"/>
      <point x="627" y="643" type="line"/>
      <point x="605" y="668"/>
      <point x="577" y="686"/>
      <point x="543" y="699" type="curve" smooth="yes"/>
      <point x="509" y="712"/>
      <point x="470" y="718"/>
      <point x="425" y="718" type="curve" smooth="yes"/>
      <point x="337" y="718"/>
      <point x="266" y="694"/>
      <point x="211" y="646" type="curve" smooth="yes"/>
      <point x="156" y="598"/>
      <point x="117" y="523"/>
      <point x="96" y="420" type="curve" smooth="yes"/>
      <point x="71" y="302" type="line" smooth="yes"/>
      <point x="64" y="271"/>
      <point x="61" y="241"/>
      <point x="61" y="213" type="curve" smooth="yes"/>
      <point x="61" y="140"/>
      <point x="84" y="85"/>
      <point x="129" y="47" type="curve" smooth="yes"/>
      <point x="174" y="9"/>
      <point x="235" y="-10"/>
    </contour>
    <contour>
      <point x="197" y="111" type="curve" smooth="yes"/>
      <point x="168" y="136"/>
      <point x="154" y="173"/>
      <point x="154" y="223" type="curve" smooth="yes"/>
      <point x="154" y="246"/>
      <point x="157" y="272"/>
      <point x="163" y="299" type="curve" smooth="yes"/>
      <point x="187" y="414" type="line" smooth="yes"/>
      <point x="204" y="491"/>
      <point x="232" y="548"/>
      <point x="269" y="583" type="curve" smooth="yes"/>
      <point x="306" y="618"/>
      <point x="357" y="635"/>
      <point x="420" y="635" type="curve" smooth="yes"/>
      <point x="473" y="635"/>
      <point x="513" y="622"/>
      <point x="542" y="597" type="curve" smooth="yes"/>
      <point x="570" y="571"/>
      <point x="584" y="533"/>
      <point x="584" y="482" type="curve" smooth="yes"/>
      <point x="583" y="459"/>
      <point x="580" y="433"/>
      <point x="574" y="403" type="curve" smooth="yes"/>
      <point x="550" y="290" type="line" smooth="yes"/>
      <point x="533" y="215"/>
      <point x="507" y="160"/>
      <point x="470" y="126" type="curve" smooth="yes"/>
      <point x="433" y="91"/>
      <point x="383" y="74"/>
      <point x="321" y="74" type="curve" smooth="yes"/>
      <point x="267" y="74"/>
      <point x="226" y="86"/>
    </contour>
  </outline>
</glyph>
<glyph name="tbar" format="2">
  <advance width="392"/>
  <unicode hex="0167"/>
  <outline>
    <component base="t"/>
    <contour>
      <point x="43" y="316" type="line"/>
      <point x="360" y="316" type="line"/>
      <point x="374" y="385" type="line"/>
      <point x="57" y="385" type="line"/>
    </contour>
  </outline>
</glyph>
<glyph name="uogonek" format="2">
  <advance width="585"/>
  <unicode hex="0173"/>
  <outline>
    <component base="u"/>
    <contour>
      <point x="324" y="-217" type="curve"/>
      <point x="342" y="-132" type="line"/>
      <point x="286" y="-130"/>
      <point x="229" y="-115"/>
      <point x="202" y="-80" type="curve"/>
      <point x="373" y="30" type="line"/>
      <point x="97" y="-55" type="line"/>
      <point x="102" y="-93"/>
      <point x="114" y="-123"/>
      <point x="136" y="-147" type="curve" smooth="yes"/>
      <point x="177" y="-192"/>
      <point x="240" y="-216"/>
    </contour>
  </outline>
</glyph>
<glyph name="florin" format="2">
  <advance width="471"/>
  <unicode hex="0192"/>
  <outline>
    <contour>
      <point x="-77" y="-157" type="line"/>
      <point x="-26" y="-157" type="line" smooth="yes"/>
      <point x="29" y="-157"/>
      <point x="72" y="-144"/>
      <point x="103" y="-119" type="curve" smooth="yes"/>
      <point x="134" y="-94"/>
      <point x="161" y="-52"/>
      <point x="183" y="9" type="curve" smooth="yes"/>
      <point x="306" y="345" type="line"/>
      <point x="445" y="345" type="line"/>
      <point x="462" y="424" type="line"/>
      <point x="335" y="424" type="line"/>
      <point x="377" y="540" type="line" smooth="yes"/>
      <point x="388" y="571"/>
      <point x="401" y="593"/>
      <point x="417" y="606" type="curve" smooth="yes"/>
      <point x="433" y="618"/>
      <point x="455" y="624"/>
      <point x="484" y="624" type="curve" smooth="yes"/>
      <point x="537" y="624" type="line"/>
      <point x="554" y="707" type="line"/>
      <point x="498" y="707" type="line" smooth="yes"/>
      <point x="445" y="707"/>
      <point x="402" y="694"/>
      <point x="370" y="669" type="curve" smooth="yes"/>
      <point x="338" y="644"/>
      <point x="311" y="602"/>
      <point x="289" y="543" type="curve" smooth="yes"/>
      <point x="246" y="424" type="line"/>
      <point x="131" y="424" type="line"/>
      <point x="115" y="345" type="line"/>
      <point x="217" y="345" type="line"/>
      <point x="97" y="12" type="line" smooth="yes"/>
      <point x="85" y="-21"/>
      <point x="71" y="-44"/>
      <point x="56" y="-56" type="curve" smooth="yes"/>
      <point x="40" y="-68"/>
      <point x="17" y="-74"/>
      <point x="-12" y="-74" type="curve" smooth="yes"/>
      <point x="-58" y="-74" type="line"/>
    </contour>
  </outline>
</glyph>
<glyph name="oogonek" format="2">
  <advance width="585"/>
  <unicode hex="01EB"/>
  <outline>
    <component base="o"/>
    <contour>
      <point x="324" y="-218" type="curve"/>
      <point x="342" y="-132" type="line"/>
      <point x="286" y="-131"/>
      <point x="229" y="-116"/>
      <point x="202" y="-81" type="curve"/>
      <point x="374" y="27" type="line"/>
      <point x="97" y="-56" type="line"/>
      <point x="102" y="-93"/>
      <point x="114" y="-124"/>
      <point x="135" y="-147" type="curve" smooth="yes"/>
      <point x="177" y="-193"/>
      <point x="240" y="-216"/>
    </contour>
  </outline>
</glyph>
<glyph name="Oogonekmacron" format="2">
  <advance width="711"/>
  <unicode hex="01EC"/>
  <outline>
    <contour>
      <point x="324" y="-217" type="curve"/>
      <point x="342" y="-132" type="line"/>
      <point x="286" y="-130"/>
      <point x="229" y="-115"/>
      <point x="202" y="-80" type="curve"/>
      <point x="351" y="-8" type="line"/>
      <point x="422" y="-2"/>
      <point x="481" y="21"/>
      <point x="528" y="63" type="curve" smooth="yes"/>
      <point x="583" y="111"/>
      <point x="621" y="186"/>
      <point x="643" y="288" type="curve" smooth="yes"/>
      <point x="668" y="406" type="line" smooth="yes"/>
      <point x="674" y="439"/>
      <point x="677" y="468"/>
      <point x="677" y="495" type="curve" smooth="yes"/>
      <point x="677" y="567"/>
      <point x="654" y="622"/>
      <point x="609" y="661" type="curve" smooth="yes"/>
      <point x="564" y="699"/>
      <point x="502" y="718"/>
      <point x="425" y="718" type="curve" smooth="yes"/>
      <point x="337" y="718"/>
      <point x="266" y="694"/>
      <point x="211" y="646" type="curve" smooth="yes"/>
      <point x="156" y="598"/>
      <point x="117" y="523"/>
      <point x="96" y="420" type="curve" smooth="yes"/>
      <point x="71" y="302" type="line" smooth="yes"/>
      <point x="64" y="271"/>
      <point x="61" y="241"/>
      <point x="61" y="213" type="curve" smooth="yes"/>
      <point x="61" y="140"/>
      <point x="84" y="85"/>
      <point x="129" y="47" type="curve" smooth="yes"/>
      <point x="160" y="21"/>
      <point x="198" y="4"/>
      <point x="244" y="-4" type="curve"/>
      <point x="97" y="-56" type="line"/>
      <point x="102" y="-93"/>
      <point x="114" y="-123"/>
      <point x="135" y="-147" type="curve" smooth="yes"/>
      <point x="177" y="-192"/>
      <point x="240" y="-216"/>
    </contour>
    <contour>
      <point x="197" y="111" type="curve" smooth="yes"/>
      <point x="168" y="136"/>
      <point x="154" y="173"/>
      <point x="154" y="223" type="curve" smooth="yes"/>
      <point x="154" y="246"/>
      <point x="157" y="272"/>
      <point x="163" y="299" type="curve" smooth="yes"/>
      <point x="187" y="414" type="line" smooth="yes"/>
      <point x="204" y="491"/>
      <point x="232" y="548"/>
      <point x="269" y="583" type="curve" smooth="yes"/>
      <point x="306" y="618"/>
      <point x="357" y="635"/>
      <point x="420" y="635" type="curve" smooth="yes"/>
      <point x="473" y="635"/>
      <point x="513" y="622"/>
      <point x="542" y="597" type="curve" smooth="yes"/>
      <point x="570" y="571"/>
      <point x="584" y="533"/>
      <point x="584" y="482" type="curve" smooth="yes"/>
      <point x="583" y="459"/>
      <point x="580" y="433"/>
      <point x="574" y="403" type="curve" smooth="yes"/>
      <point x="550" y="290" type="line" smooth="yes"/>
      <point x="533" y="215"/>
      <point x="507" y="160"/>
      <point x="470" y="126" type="curve" smooth="yes"/>
      <point x="433" y="91"/>
      <point x="383" y="74"/>
      <point x="321" y="74" type="curve" smooth="yes"/>
      <point x="267" y="74"/>
      <point x="226" y="86"/>
    </contour>
    <contour>
      <point x="306" y="754" type="line"/>
      <point x="613" y="754" type="line"/>
      <point x="631" y="833" type="line"/>
      <point x="322" y="833" type="line"/>
    </contour>
  </outline>
</glyph>
<glyph name="jcaron" format="2">
  <advance width="237"/>
  <unicode hex="01F0"/>
  <outline>
    <contour>
      <point x="-126" y="-79" type="line"/>
      <point x="-80" y="-79" type="line" smooth="yes"/>
      <point x="-50" y="-79"/>
      <point x="-27" y="-72"/>
      <point x="-11" y="-59" type="curve" smooth="yes"/>
      <point x="4" y="-46"/>
      <point x="15" y="-25"/>
      <point x="21" y="6" type="curve" smooth="yes"/>
      <point x="129" y="524" type="line"/>
      <point x="216" y="524" type="line"/>
      <point x="107" y="0" type="line" smooth="yes"/>
      <point x="96" y="-52"/>
      <point x="75" y="-91"/>
      <point x="42" y="-117" type="curve" smooth="yes"/>
      <point x="9" y="-144"/>
      <point x="-34" y="-157"/>
      <point x="-87" y="-157" type="curve" smooth="yes"/>
      <point x="-143" y="-157" type="line"/>
    </contour>
    <contour>
      <point x="48" y="729" type="line"/>
      <point x="130" y="729" type="line"/>
      <point x="196" y="637" type="line"/>
      <point x="301" y="729" type="line"/>
      <point x="383" y="729" type="line"/>
      <point x="218" y="580" type="line"/>
      <point x="151" y="580" type="line"/>
    </contour>
  </outline>
</glyph>
<glyph name="dotlessj" format="2">
  <advance width="237"/>
  <unicode hex="0237"/>
  <anchor x="228" y="524" name="top"/>
  <outline>
    <contour>
      <point x="-143" y="-157" type="line"/>
      <point x="-87" y="-157" type="line" smooth="yes"/>
      <point x="-34" y="-157"/>
      <point x="10" y="-144"/>
      <point x="43" y="-117" type="curve" smooth="yes"/>
      <point x="75" y="-91"/>
      <point x="96" y="-52"/>
      <point x="107" y="0" type="curve" smooth="yes"/>
      <point x="216" y="524" type="line"/>
      <point x="129" y="524" type="line"/>
      <point x="21" y="6" type="line" smooth="yes"/>
      <point x="15" y="-25"/>
      <point x="4" y="-46"/>
      <point x="-11" y="-59" type="curve" smooth="yes"/>
      <point x="-27" y="-72"/>
      <point x="-50" y="-79"/>
      <point x="-80" y="-79" type="curve" smooth="yes"/>
      <point x="-126" y="-79" type="line"/>
    </contour>
  </outline>
</glyph>
<glyph name="caron" format="2">
  <advance width="512"/>
  <unicode hex="02C7"/>
  <outline>
    <contour>
      <point x="288" y="580" type="line"/>
      <point x="355" y="580" type="line"/>
      <point x="520" y="729" type="line"/>
      <point x="438" y="729" type="line"/>
      <point x="333" y="637" type="line"/>
      <point x="267" y="729" type="line"/>
      <point x="185" y="729" type="line"/>
    </contour>
  </outline>
</glyph>
<glyph name="dotaccent" format="2">
  <advance width="512"/>
  <unicode hex="02D9"/>
  <outline>
    <contour>
      <point x="275" y="606" type="line"/>
      <point x="366" y="606" type="line"/>
      <point x="386" y="701" type="line"/>
      <point x="296" y="701" type="line"/>
    </contour>
  </outline>
</glyph>
<glyph name="ring" format="2">
  <advance width="512"/>
  <unicode hex="02DA"/>
  <outline>
    <contour>
      <point x="344" y="585" type="curve" smooth="yes"/>
      <point x="372" y="585"/>
      <point x="395" y="594"/>
      <point x="413" y="613" type="curve" smooth="yes"/>
      <point x="431" y="631"/>
      <point x="440" y="654"/>
      <point x="440" y="681" type="curve" smooth="yes"/>
      <point x="440" y="709"/>
      <point x="431" y="732"/>
      <point x="413" y="751" type="curve" smooth="yes"/>
      <point x="394" y="770"/>
      <point x="371" y="779"/>
      <point x="344" y="779" type="curve" smooth="yes"/>
      <point x="316" y="779"/>
      <point x="293" y="770"/>
      <point x="275" y="751" type="curve" smooth="yes"/>
      <point x="256" y="732"/>
      <point x="247" y="709"/>
      <point x="247" y="681" type="curve" smooth="yes"/>
      <point x="247" y="653"/>
      <point x="256" y="630"/>
      <point x="275" y="612" type="curve" smooth="yes"/>
      <point x="293" y="594"/>
      <point x="316" y="585"/>
    </contour>
    <contour>
      <point x="307" y="644" type="curve" smooth="yes"/>
      <point x="297" y="653"/>
      <point x="292" y="666"/>
      <point x="292" y="681" type="curve" smooth="yes"/>
      <point x="292" y="697"/>
      <point x="297" y="710"/>
      <point x="307" y="720" type="curve" smooth="yes"/>
      <point x="316" y="730"/>
      <point x="329" y="735"/>
      <point x="344" y="735" type="curve" smooth="yes"/>
      <point x="359" y="735"/>
      <point x="372" y="730"/>
      <point x="381" y="720" type="curve" smooth="yes"/>
      <point x="390" y="710"/>
      <point x="395" y="697"/>
      <point x="395" y="681" type="curve" smooth="yes"/>
      <point x="395" y="666"/>
      <point x="390" y="653"/>
      <point x="381" y="644" type="curve" smooth="yes"/>
      <point x="372" y="634"/>
      <point x="359" y="629"/>
      <point x="344" y="629" type="curve" smooth="yes"/>
      <point x="329" y="629"/>
      <point x="317" y="634"/>
    </contour>
  </outline>
</glyph>
<glyph name="ogonek" format="2">
  <advance width="512"/>
  <unicode hex="02DB"/>
  <outline>
    <contour>
      <point x="324" y="-217" type="curve"/>
      <point x="342" y="-132" type="line"/>
      <point x="286" y="-130"/>
      <point x="229" y="-115"/>
      <point x="202" y="-80" type="curve"/>
      <point x="369" y="0" type="line"/>
      <point x="372" y="16" type="line"/>
      <point x="302" y="16" type="line"/>
      <point x="97" y="-56" type="line"/>
      <point x="102" y="-93"/>
      <point x="114" y="-123"/>
      <point x="135" y="-147" type="curve" smooth="yes"/>
      <point x="177" y="-192"/>
      <point x="240" y="-216"/>
    </contour>
  </outline>
</glyph>
<glyph name="acutecomb" format="2">
  <unicode hex="0301"/>
  <anchor x="108" y="519" name="_top"/>
  <outline>
    <contour>
      <point x="128" y="717" type="line"/>
      <point x="237" y="717" type="line"/>
      <point x="68" y="586" type="line"/>
      <point x="-14" y="586" type="line"/>
    </contour>
  </outline>
</glyph>
<glyph name="tildecomb" format="2">
  <unicode hex="0303"/>
  <outline>
    <contour>
      <point x="-66" y="659" type="line"/>
      <point x="-50" y="672"/>
      <point x="-35" y="681"/>
      <point x="-21" y="688" type="curve" smooth="yes"/>
      <point x="-7" y="695"/>
      <point x="8" y="698"/>
      <point x="25" y="698" type="curve" smooth="yes"/>
      <point x="38" y="698"/>
      <point x="49" y="696"/>
      <point x="59" y="693" type="curve" smooth="yes"/>
      <point x="69" y="690"/>
      <point x="80" y="685"/>
      <point x="92" y="678" type="curve" smooth="yes"/>
      <point x="105" y="672"/>
      <point x="115" y="667"/>
      <point x="124" y="664" type="curve" smooth="yes"/>
      <point x="132" y="661"/>
      <point x="142" y="659"/>
      <point x="154" y="659" type="curve" smooth="yes"/>
      <point x="169" y="659"/>
      <point x="183" y="662"/>
      <point x="195" y="668" type="curve" smooth="yes"/>
      <point x="206" y="674"/>
      <point x="222" y="684"/>
      <point x="242" y="698" type="curve"/>
      <point x="226" y="626" type="line"/>
      <point x="211" y="613"/>
      <point x="196" y="604"/>
      <point x="183" y="598" type="curve" smooth="yes"/>
      <point x="169" y="591"/>
      <point x="154" y="588"/>
      <point x="137" y="588" type="curve" smooth="yes"/>
      <point x="124" y="588"/>
      <point x="112" y="590"/>
      <point x="102" y="593" type="curve" smooth="yes"/>
      <point x="92" y="596"/>
      <point x="81" y="601"/>
      <point x="68" y="608" type="curve" smooth="yes"/>
      <point x="57" y="614"/>
      <point x="47" y="619"/>
      <point x="38" y="622" type="curve" smooth="yes"/>
      <point x="29" y="625"/>
      <point x="19" y="627"/>
      <point x="8" y="627" type="curve" smooth="yes"/>
      <point x="-7" y="627"/>
      <point x="-20" y="624"/>
      <point x="-32" y="618" type="curve" smooth="yes"/>
      <point x="-45" y="612"/>
      <point x="-61" y="602"/>
      <point x="-81" y="587" type="curve"/>
    </contour>
  </outline>
</glyph>
<glyph name="brevecmb" format="2">
  <unicode hex="0306"/>
  <outline>
    <contour>
      <point x="32" y="573" type="curve" smooth="yes"/>
      <point x="115" y="573"/>
      <point x="169" y="621"/>
      <point x="187" y="707" type="curve" smooth="yes"/>
      <point x="191" y="725" type="line"/>
      <point x="125" y="725" type="line"/>
      <point x="121" y="707" type="line" smooth="yes"/>
      <point x="111" y="657"/>
      <point x="86" y="633"/>
      <point x="45" y="633" type="curve" smooth="yes"/>
      <point x="4" y="633"/>
      <point x="-11" y="657"/>
      <point x="-1" y="707" type="curve" smooth="yes"/>
      <point x="3" y="725" type="line"/>
      <point x="-63" y="725" type="line"/>
      <point x="-67" y="707" type="line" smooth="yes"/>
      <point x="-85" y="621"/>
      <point x="-51" y="573"/>
    </contour>
  </outline>
</glyph>
<glyph name="dotaccentcmb" format="2">
  <unicode hex="0307"/>
  <outline>
    <contour>
      <point x="19" y="606" type="line"/>
      <point x="110" y="606" type="line"/>
      <point x="130" y="701" type="line"/>
      <point x="40" y="701" type="line"/>
    </contour>
  </outline>
</glyph>
<glyph name="ringcmb" format="2">
  <unicode hex="030A"/>
  <outline>
    <contour>
      <point x="-9" y="681" type="curve" smooth="yes"/>
      <point x="-9" y="709"/>
      <point x="0" y="732"/>
      <point x="19" y="751" type="curve" smooth="yes"/>
      <point x="37" y="770"/>
      <point x="60" y="779"/>
      <point x="87" y="779" type="curve" smooth="yes"/>
      <point x="115" y="779"/>
      <point x="138" y="770"/>
      <point x="157" y="751" type="curve" smooth="yes"/>
      <point x="175" y="732"/>
      <point x="184" y="709"/>
      <point x="184" y="681" type="curve" smooth="yes"/>
      <point x="184" y="653"/>
      <point x="175" y="630"/>
      <point x="157" y="612" type="curve" smooth="yes"/>
      <point x="138" y="594"/>
      <point x="115" y="585"/>
      <point x="87" y="585" type="curve" smooth="yes"/>
      <point x="60" y="585"/>
      <point x="37" y="594"/>
      <point x="19" y="613" type="curve" smooth="yes"/>
      <point x="0" y="631"/>
      <point x="-9" y="654"/>
    </contour>
    <contour>
      <point x="139" y="681" type="curve" smooth="yes"/>
      <point x="139" y="697"/>
      <point x="134" y="710"/>
      <point x="125" y="720" type="curve" smooth="yes"/>
      <point x="115" y="730"/>
      <point x="102" y="735"/>
      <point x="87" y="735" type="curve" smooth="yes"/>
      <point x="72" y="735"/>
      <point x="60" y="730"/>
      <point x="51" y="719" type="curve" smooth="yes"/>
      <point x="41" y="708"/>
      <point x="36" y="696"/>
      <point x="36" y="681" type="curve" smooth="yes"/>
      <point x="36" y="666"/>
      <point x="41" y="653"/>
      <point x="51" y="644" type="curve" smooth="yes"/>
      <point x="61" y="634"/>
      <point x="73" y="629"/>
      <point x="87" y="629" type="curve" smooth="yes"/>
      <point x="102" y="629"/>
      <point x="115" y="634"/>
      <point x="125" y="644" type="curve" smooth="yes"/>
      <point x="134" y="653"/>
      <point x="139" y="666"/>
    </contour>
  </outline>
</glyph>
<glyph name="caroncmb" format="2">
  <unicode hex="030C"/>
  <outline>
    <contour>
      <point x="32" y="580" type="line"/>
      <point x="99" y="580" type="line"/>
      <point x="264" y="729" type="line"/>
      <point x="182" y="729" type="line"/>
      <point x="77" y="637" type="line"/>
      <point x="11" y="729" type="line"/>
      <point x="-71" y="729" type="line"/>
    </contour>
  </outline>
</glyph>
<glyph name="commaaccentcomb" format="2">
  <unicode hex="0326"/>
  <outline>
    <contour>
      <point x="-102" y="-30" type="line"/>
      <point x="-19" y="-30" type="line"/>
      <point x="-34" y="-99" type="line"/>
      <point x="-132" y="-173" type="line"/>
    </contour>
  </outline>
</glyph>
<glyph name="cedillacmb" format="2">
  <unicode hex="0327"/>
  <outline>
    <contour>
      <point x="86" y="-156" type="line"/>
      <point x="177" y="-156" type="line"/>
      <point x="282" y="12" type="line"/>
      <point x="205" y="12" type="line"/>
    </contour>
  </outline>
</glyph>
<glyph name="alpha" format="2">
  <advance width="709"/>
  <unicode hex="03B1"/>
  <outline>
    <contour>
      <point x="254" y="-9" type="curve" smooth="yes"/>
      <point x="321" y="-9"/>
      <point x="377" y="10"/>
      <point x="422" y="47" type="curve" smooth="yes"/>
      <point x="437" y="60"/>
      <point x="450" y="74"/>
      <point x="461" y="90" type="curve"/>
      <point x="471" y="69"/>
      <point x="485" y="52"/>
      <point x="502" y="38" type="curve" smooth="yes"/>
      <point x="539" y="8"/>
      <point x="588" y="-8"/>
      <point x="647" y="-9" type="curve"/>
      <point x="658" y="69" type="line"/>
      <point x="620" y="70"/>
      <point x="590" y="79"/>
      <point x="567" y="97" type="curve" smooth="yes"/>
      <point x="544" y="116"/>
      <point x="532" y="145"/>
      <point x="532" y="185" type="curve" smooth="yes"/>
      <point x="531" y="202"/>
      <point x="533" y="221"/>
      <point x="538" y="242" type="curve" smooth="yes"/>
      <point x="551" y="300" type="line" smooth="yes"/>
      <point x="564" y="355"/>
      <point x="583" y="395"/>
      <point x="610" y="419" type="curve" smooth="yes"/>
      <point x="635" y="442"/>
      <point x="668" y="454"/>
      <point x="709" y="455" type="curve"/>
      <point x="719" y="532" type="line"/>
      <point x="653" y="531"/>
      <point x="598" y="512"/>
      <point x="555" y="476" type="curve" smooth="yes"/>
      <point x="541" y="464"/>
      <point x="528" y="450"/>
      <point x="517" y="435" type="curve"/>
      <point x="508" y="455"/>
      <point x="494" y="472"/>
      <point x="476" y="486" type="curve" smooth="yes"/>
      <point x="438" y="517"/>
      <point x="388" y="532"/>
      <point x="325" y="532" type="curve" smooth="yes"/>
      <point x="256" y="532"/>
      <point x="200" y="513"/>
      <point x="156" y="476" type="curve" smooth="yes"/>
      <point x="111" y="439"/>
      <point x="81" y="383"/>
      <point x="65" y="308" type="curve" smooth="yes"/>
      <point x="52" y="245" type="line" smooth="yes"/>
      <point x="47" y="221"/>
      <point x="45" y="198"/>
      <point x="45" y="175" type="curve" smooth="yes"/>
      <point x="45" y="114"/>
      <point x="64" y="69"/>
      <point x="103" y="38" type="curve" smooth="yes"/>
      <point x="141" y="7"/>
      <point x="191" y="-9"/>
    </contour>
    <contour>
      <point x="167" y="97" type="curve" smooth="yes"/>
      <point x="144" y="116"/>
      <point x="132" y="145"/>
      <point x="132" y="185" type="curve" smooth="yes"/>
      <point x="132" y="202"/>
      <point x="134" y="221"/>
      <point x="138" y="242" type="curve" smooth="yes"/>
      <point x="151" y="300" type="line" smooth="yes"/>
      <point x="162" y="355"/>
      <point x="182" y="395"/>
      <point x="210" y="419" type="curve" smooth="yes"/>
      <point x="237" y="443"/>
      <point x="273" y="455"/>
      <point x="317" y="455" type="curve" smooth="yes"/>
      <point x="402" y="455"/>
      <point x="444" y="416"/>
      <point x="444" y="339" type="curve" smooth="yes"/>
      <point x="444" y="319"/>
      <point x="442" y="300"/>
      <point x="438" y="282" type="curve" smooth="yes"/>
      <point x="426" y="224" type="line" smooth="yes"/>
      <point x="415" y="169"/>
      <point x="395" y="129"/>
      <point x="368" y="105" type="curve" smooth="yes"/>
      <point x="341" y="81"/>
      <point x="305" y="69"/>
      <point x="262" y="69" type="curve" smooth="yes"/>
      <point x="222" y="69"/>
      <point x="190" y="78"/>
    </contour>
  </outline>
</glyph>
<glyph name="Djecyr" format="2">
  <advance width="803"/>
  <unicode hex="0402"/>
  <anchor x="243" y="0" name="b.cedilla"/>
  <anchor x="282" y="-86" name="bottom"/>
  <anchor x="248" y="760" name="top"/>
  <outline>
    <contour>
      <point x="181" y="0" type="line"/>
      <point x="273" y="0" type="line"/>
      <point x="344" y="340" type="line"/>
      <point x="518" y="340" type="line" smooth="yes"/>
      <point x="620" y="340"/>
      <point x="657" y="301"/>
      <point x="638" y="213" type="curve" smooth="yes"/>
      <point x="619" y="121"/>
      <point x="566" y="84"/>
      <point x="458" y="83" type="curve" smooth="yes"/>
      <point x="402" y="83" type="line"/>
      <point x="385" y="0" type="line"/>
      <point x="445" y="0" type="line" smooth="yes"/>
      <point x="603" y="0"/>
      <point x="703" y="74"/>
      <point x="732" y="212" type="curve" smooth="yes"/>
      <point x="761" y="349"/>
      <point x="691" y="423"/>
      <point x="533" y="423" type="curve" smooth="yes"/>
      <point x="361" y="423" type="line"/>
      <point x="403" y="624" type="line"/>
      <point x="631" y="624" type="line"/>
      <point x="648" y="707" type="line"/>
      <point x="99" y="707" type="line"/>
      <point x="82" y="624" type="line"/>
      <point x="311" y="624" type="line"/>
    </contour>
  </outline>
</glyph>
<glyph name="Eukrcyr" format="2">
  <advance width="696"/>
  <unicode hex="0404"/>
  <guideline x="357" y="0" angle="90" name="h1"/>
  <anchor x="357" y="760" name="top"/>
  <outline>
    <contour>
      <point x="301" y="-9" type="curve" smooth="yes"/>
      <point x="472" y="-9"/>
      <point x="596" y="77"/>
      <point x="625" y="217" type="curve" smooth="yes"/>
      <point x="626" y="222" type="line"/>
      <point x="534" y="222" type="line"/>
      <point x="533" y="218" type="line" smooth="yes"/>
      <point x="514" y="125"/>
      <point x="439" y="75"/>
      <point x="321" y="75" type="curve" smooth="yes"/>
      <point x="183" y="75"/>
      <point x="132" y="148"/>
      <point x="164" y="301" type="curve" smooth="yes"/>
      <point x="167" y="319" type="line"/>
      <point x="443" y="319" type="line"/>
      <point x="460" y="401" type="line"/>
      <point x="184" y="401" type="line"/>
      <point x="217" y="559"/>
      <point x="298" y="633"/>
      <point x="436" y="633" type="curve" smooth="yes"/>
      <point x="554" y="633"/>
      <point x="609" y="582"/>
      <point x="590" y="490" type="curve" smooth="yes"/>
      <point x="589" y="486" type="line"/>
      <point x="682" y="486" type="line"/>
      <point x="683" y="492" type="line" smooth="yes"/>
      <point x="712" y="632"/>
      <point x="625" y="717"/>
      <point x="454" y="717" type="curve" smooth="yes"/>
      <point x="260" y="717"/>
      <point x="133" y="608"/>
      <point x="91" y="406" type="curve" smooth="yes"/>
      <point x="70" y="302" type="line" smooth="yes"/>
      <point x="28" y="100"/>
      <point x="109" y="-9"/>
    </contour>
  </outline>
</glyph>
<glyph name="Ljecyr" format="2">
  <advance width="1033"/>
  <unicode hex="0409"/>
  <outline>
    <component base="Elcyr"/>
    <contour>
      <point x="530" y="423" type="line"/>
      <point x="763" y="423" type="line" smooth="yes"/>
      <point x="921" y="423"/>
      <point x="991" y="349"/>
      <point x="962" y="212" type="curve" smooth="yes"/>
      <point x="933" y="74"/>
      <point x="833" y="0"/>
      <point x="675" y="0" type="curve" smooth="yes"/>
      <point x="442" y="0" type="line"/>
      <point x="459" y="83" type="line"/>
      <point x="688" y="83" type="line" smooth="yes"/>
      <point x="796" y="83"/>
      <point x="849" y="121"/>
      <point x="868" y="213" type="curve" smooth="yes"/>
      <point x="887" y="301"/>
      <point x="850" y="340"/>
      <point x="748" y="340" type="curve" smooth="yes"/>
      <point x="513" y="340" type="line"/>
    </contour>
  </outline>
</glyph>
<glyph name="Njecyr" format="2">
  <advance width="1123"/>
  <unicode hex="040A"/>
  <outline>
    <component base="H"/>
    <contour>
      <point x="532" y="0" type="line"/>
      <point x="765" y="0" type="line" smooth="yes"/>
      <point x="923" y="0"/>
      <point x="1023" y="74"/>
      <point x="1052" y="212" type="curve" smooth="yes"/>
      <point x="1081" y="349"/>
      <point x="1011" y="423"/>
      <point x="853" y="423" type="curve" smooth="yes"/>
      <point x="620" y="423" type="line"/>
      <point x="603" y="340" type="line"/>
      <point x="838" y="340" type="line" smooth="yes"/>
      <point x="940" y="340"/>
      <point x="977" y="301"/>
      <point x="958" y="213" type="curve" smooth="yes"/>
      <point x="939" y="121"/>
      <point x="886" y="83"/>
      <point x="778" y="83" type="curve" smooth="yes"/>
      <point x="549" y="83" type="line"/>
    </contour>
  </outline>
</glyph>
<glyph name="Tshecyr" format="2">
  <advance width="833"/>
  <unicode hex="040B"/>
  <outline>
    <contour>
      <point x="181" y="0" type="line"/>
      <point x="273" y="0" type="line"/>
      <point x="344" y="340" type="line"/>
      <point x="413" y="354"/>
      <point x="486" y="360"/>
      <point x="552" y="360" type="curve" smooth="yes"/>
      <point x="654" y="360"/>
      <point x="687" y="301"/>
      <point x="668" y="213" type="curve" smooth="yes"/>
      <point x="624" y="0" type="line"/>
      <point x="718" y="0" type="line"/>
      <point x="762" y="212" type="line" smooth="yes"/>
      <point x="791" y="349"/>
      <point x="725" y="443"/>
      <point x="567" y="443" type="curve" smooth="yes"/>
      <point x="502" y="443"/>
      <point x="429" y="437"/>
      <point x="361" y="423" type="curve"/>
      <point x="403" y="624" type="line"/>
      <point x="631" y="624" type="line"/>
      <point x="648" y="707" type="line"/>
      <point x="99" y="707" type="line"/>
      <point x="82" y="624" type="line"/>
      <point x="311" y="624" type="line"/>
    </contour>
  </outline>
</glyph>
<glyph name="Dzhecyr" format="2">
  <advance width="657"/>
  <unicode hex="040F"/>
  <outline>
    <contour>
      <point x="166" y="707" type="line"/>
      <point x="259" y="707" type="line"/>
      <point x="129" y="83" type="line"/>
      <point x="452" y="83" type="line"/>
      <point x="582" y="707" type="line"/>
      <point x="675" y="707" type="line"/>
      <point x="528" y="0" type="line"/>
      <point x="320" y="0" type="line"/>
      <point x="285" y="-170" type="line"/>
      <point x="192" y="-170" type="line"/>
      <point x="227" y="0" type="line"/>
      <point x="19" y="0" type="line"/>
    </contour>
  </outline>
</glyph>
<glyph name="Becyr" format="2">
  <advance width="683"/>
  <unicode hex="0411"/>
  <outline>
    <contour>
      <point x="19" y="0" type="line"/>
      <point x="325" y="0" type="line" smooth="yes"/>
      <point x="483" y="0"/>
      <point x="583" y="74"/>
      <point x="612" y="212" type="curve" smooth="yes"/>
      <point x="641" y="349"/>
      <point x="571" y="423"/>
      <point x="413" y="423" type="curve" smooth="yes"/>
      <point x="200" y="423" type="line"/>
      <point x="242" y="624" type="line"/>
      <point x="642" y="624" type="line"/>
      <point x="659" y="707" type="line"/>
      <point x="166" y="707" type="line"/>
    </contour>
    <contour>
      <point x="129" y="83" type="line"/>
      <point x="183" y="340" type="line"/>
      <point x="398" y="340" type="line" smooth="yes"/>
      <point x="500" y="340"/>
      <point x="537" y="301"/>
      <point x="518" y="213" type="curve" smooth="yes"/>
      <point x="499" y="121"/>
      <point x="446" y="83"/>
      <point x="338" y="83" type="curve" smooth="yes"/>
    </contour>
  </outline>
</glyph>
<glyph name="Gecyr" format="2">
  <advance width="574"/>
  <unicode hex="0413"/>
  <outline>
    <contour>
      <point x="19" y="0" type="line"/>
      <point x="112" y="0" type="line"/>
      <point x="242" y="624" type="line"/>
      <point x="642" y="624" type="line"/>
      <point x="659" y="707" type="line"/>
      <point x="166" y="707" type="line"/>
    </contour>
  </outline>
</glyph>
<glyph name="Decyr" format="2">
  <advance width="643"/>
  <unicode hex="0414"/>
  <outline>
    <contour>
      <point x="-80" y="-170" type="line"/>
      <point x="13" y="-170" type="line"/>
      <point x="48" y="0" type="line"/>
      <point x="485" y="0" type="line"/>
      <point x="450" y="-170" type="line"/>
      <point x="543" y="-170" type="line"/>
      <point x="595" y="83" type="line"/>
      <point x="539" y="83" type="line"/>
      <point x="669" y="707" type="line"/>
      <point x="286" y="707" type="line"/>
      <point x="194" y="411" type="line" smooth="yes"/>
      <point x="152" y="273"/>
      <point x="89" y="150"/>
      <point x="11" y="83" type="curve"/>
      <point x="-28" y="83" type="line"/>
    </contour>
    <contour>
      <point x="119" y="83" type="line"/>
      <point x="187" y="167"/>
      <point x="253" y="286"/>
      <point x="280" y="375" type="curve" smooth="yes"/>
      <point x="355" y="625" type="line"/>
      <point x="559" y="625" type="line"/>
      <point x="446" y="83" type="line"/>
    </contour>
  </outline>
</glyph>
